<svg version="1.1" id="Layer_1" xmlns="http://www.w3.org/2000/svg" xmlns:xlink="http://www.w3.org/1999/xlink" x="0px" y="0px"
	 width="100%" viewBox="0 0 1024 1024" enable-background="new 0 0 1024 1024" xml:space="preserve">
<path fill="#FEFFFF" opacity="1.000000" stroke="none" 
	d="
M477.000000,1025.000000 
	C318.000000,1025.000000 159.500000,1025.000000 1.000000,1025.000000 
	C1.000000,683.666687 1.000000,342.333344 1.000000,1.000000 
	C342.333344,1.000000 683.666687,1.000000 1025.000000,1.000000 
	C1025.000000,342.333344 1025.000000,683.666687 1025.000000,1025.000000 
	C842.500000,1025.000000 660.000000,1025.000000 477.000000,1025.000000 
M705.285583,751.886658 
	C725.931763,742.804993 735.987793,726.418884 736.643372,704.431274 
	C737.229126,684.786011 736.700256,665.107727 736.683594,645.443970 
	C736.682129,643.728088 736.832581,642.012085 736.914368,640.255981 
	C737.848145,640.365356 738.238953,640.294312 738.467834,640.454529 
	C761.474915,656.561035 784.479065,672.671753 807.461304,688.813721 
	C818.066895,696.262756 828.556519,703.879028 839.231567,711.226562 
	C848.617920,717.687195 860.242432,715.932007 864.868896,706.965149 
	C866.749268,703.320679 867.415955,698.684082 867.425354,694.496216 
	C867.528259,648.504211 867.383606,602.511719 867.323730,556.519348 
	C867.273193,517.693970 867.241455,478.868530 867.212097,440.043121 
	C867.206787,433.075073 864.208008,427.601135 858.097778,424.539551 
	C851.806519,421.387268 845.603394,422.532593 839.762451,426.608459 
	C806.590393,449.756256 773.356995,472.816101 740.126038,495.879303 
	C739.281494,496.465454 738.225159,496.746368 736.792969,497.379395 
	C736.792969,495.255524 736.794983,493.771057 736.792603,492.286591 
	C736.761414,473.122772 736.827698,453.958130 736.662231,434.795471 
	C736.558899,422.831696 733.391541,411.724060 725.891541,402.198517 
	C714.519531,387.755432 699.124939,381.989197 681.185608,381.989014 
	C525.206970,381.987366 369.228302,382.007935 213.249634,381.983337 
	C180.456924,381.978180 158.310822,404.000366 158.308823,436.702759 
	C158.303406,525.357117 158.280960,614.011475 158.221237,702.665833 
	C158.200180,733.943420 179.875488,756.040833 211.156250,756.049500 
	C368.801361,756.093140 526.446533,756.092407 684.091370,755.865112 
	C690.919800,755.855225 697.744812,753.462158 705.285583,751.886658 
M560.161011,311.500000 
	C560.162231,323.487885 560.156677,335.475739 560.167419,347.463623 
	C560.172607,353.288239 563.180054,356.547150 568.828796,356.555511 
	C591.971802,356.589752 615.115112,356.588745 638.257996,356.512573 
	C644.217346,356.492950 646.817444,353.859131 646.832153,347.986267 
	C646.890808,324.510345 646.904053,301.034210 646.877686,277.558258 
	C646.871399,271.972229 644.267517,269.363495 638.569763,269.349762 
	C615.260254,269.293579 591.950562,269.293579 568.641052,269.348114 
	C562.824219,269.361725 560.255371,272.116364 560.231201,278.033112 
	C560.187012,288.855316 560.183655,299.677704 560.161011,311.500000 
z"/>
<path fill="#017FCC" opacity="1.000000" stroke="none" 
	d="
M704.928467,752.032959 
	C697.744812,753.462158 690.919800,755.855225 684.091370,755.865112 
	C526.446533,756.092407 368.801361,756.093140 211.156250,756.049500 
	C179.875488,756.040833 158.200180,733.943420 158.221237,702.665833 
	C158.280960,614.011475 158.303406,525.357117 158.308823,436.702759 
	C158.310822,404.000366 180.456924,381.978180 213.249634,381.983337 
	C369.228302,382.007935 525.206970,381.987366 681.185608,381.989014 
	C699.124939,381.989197 714.519531,387.755432 725.891541,402.198517 
	C733.391541,411.724060 736.558899,422.831696 736.662231,434.795471 
	C736.827698,453.958130 736.761414,473.122772 736.792603,492.286591 
	C736.794983,493.771057 736.792969,495.255524 736.792969,497.379395 
	C738.225159,496.746368 739.281494,496.465454 740.126038,495.879303 
	C773.356995,472.816101 806.590393,449.756256 839.762451,426.608459 
	C845.603394,422.532593 851.806519,421.387268 858.097778,424.539551 
	C864.208008,427.601135 867.206787,433.075073 867.212097,440.043121 
	C867.241455,478.868530 867.273193,517.693970 867.323730,556.519348 
	C867.383606,602.511719 867.528259,648.504211 867.425354,694.496216 
	C867.415955,698.684082 866.749268,703.320679 864.868896,706.965149 
	C860.242432,715.932007 848.617920,717.687195 839.231567,711.226562 
	C828.556519,703.879028 818.066895,696.262756 807.461304,688.813721 
	C784.479065,672.671753 761.474915,656.561035 738.467834,640.454529 
	C738.238953,640.294312 737.848145,640.365356 736.914368,640.255981 
	C736.832581,642.012085 736.682129,643.728088 736.683594,645.443970 
	C736.700256,665.107727 737.229126,684.786011 736.643372,704.431274 
	C735.987793,726.418884 725.931763,742.804993 704.928467,752.032959 
M350.890747,463.746002 
	C338.492004,462.813141 326.321320,463.932159 314.313202,467.305756 
	C260.991394,482.286102 225.426498,535.928833 239.561630,594.477844 
	C254.374252,655.832947 319.017639,688.698547 375.768555,669.209229 
	C430.223907,650.508301 463.121277,590.630127 441.170380,532.912598 
	C425.739960,492.339966 395.089569,469.398163 350.890747,463.746002 
z"/>
<path fill="#0680CC" opacity="1.000000" stroke="none" 
	d="
M560.162109,311.000000 
	C560.183655,299.677704 560.187012,288.855316 560.231201,278.033112 
	C560.255371,272.116364 562.824219,269.361725 568.641052,269.348114 
	C591.950562,269.293579 615.260254,269.293579 638.569763,269.349762 
	C644.267517,269.363495 646.871399,271.972229 646.877686,277.558258 
	C646.904053,301.034210 646.890808,324.510345 646.832153,347.986267 
	C646.817444,353.859131 644.217346,356.492950 638.257996,356.512573 
	C615.115112,356.588745 591.971802,356.589752 568.828796,356.555511 
	C563.180054,356.547150 560.172607,353.288239 560.167419,347.463623 
	C560.156677,335.475739 560.162231,323.487885 560.162109,311.000000 
z"/>
<path fill="#F9FCFD" opacity="1.000000" stroke="none" 
	d="
M351.337646,463.808960 
	C395.089569,469.398163 425.739960,492.339966 441.170380,532.912598 
	C463.121277,590.630127 430.223907,650.508301 375.768555,669.209229 
	C319.017639,688.698547 254.374252,655.832947 239.561630,594.477844 
	C225.426498,535.928833 260.991394,482.286102 314.313202,467.305756 
	C326.321320,463.932159 338.492004,462.813141 351.337646,463.808960 
M305.102356,640.547485 
	C341.317719,659.255066 381.239655,647.093445 402.244659,621.953064 
	C424.524750,595.286438 428.794708,565.344299 413.839294,534.350037 
	C399.013367,503.624054 372.868134,488.349640 338.682312,489.644867 
	C286.890228,491.607086 252.231003,539.812927 264.323608,589.080750 
	C269.927124,611.910522 283.947906,628.746399 305.102356,640.547485 
z"/>
<path fill="#027FCC" opacity="1.000000" stroke="none" 
	d="
M304.778870,640.364868 
	C283.947906,628.746399 269.927124,611.910522 264.323608,589.080750 
	C252.231003,539.812927 286.890228,491.607086 338.682312,489.644867 
	C372.868134,488.349640 399.013367,503.624054 413.839294,534.350037 
	C428.794708,565.344299 424.524750,595.286438 402.244659,621.953064 
	C381.239655,647.093445 341.317719,659.255066 304.778870,640.364868 
z"/>
</svg>