<?xml version="1.0" encoding="UTF-8"?>
<svg version="1.1" xmlns="http://www.w3.org/2000/svg" width="1024" height="1024">
<path d="M0 0 C337.92 0 675.84 0 1024 0 C1024 337.92 1024 675.84 1024 1024 C686.08 1024 348.16 1024 0 1024 C0 686.08 0 348.16 0 0 Z " fill="#FDFEFE" transform="translate(0,0)"/>
<path d="M0 0 C5.16532445 4.15874841 9.9807518 8.69869412 14.82421875 13.22265625 C18.43265773 16.59206767 22.13404233 19.84129802 25.875 23.0625 C28.31403779 25.16489017 30.75136107 27.26925147 33.1875 29.375 C34.16710693 30.22130981 34.16710693 30.22130981 35.16650391 31.0847168 C39.03876865 34.44006937 42.85366759 37.84417278 46.625 41.3125 C50.05710345 44.46154337 53.55411025 47.46088391 57.1875 50.375 C62.24416714 54.45063044 66.95848303 58.8161296 71.68286133 63.26489258 C75.14544112 66.50783642 78.66777721 69.59672177 82.375 72.5625 C86.7320342 76.04812736 90.81621533 79.74043667 94.875 83.5625 C99.78806055 88.18870527 104.82621959 92.53520878 110.09765625 96.75390625 C113.29942799 99.41529458 116.33734918 102.21712246 119.375 105.0625 C123.27076281 108.71138449 127.20834284 112.21948438 131.375 115.5625 C136.13769211 119.38372972 140.59098118 123.45446832 145.04345703 127.62548828 C148.34695262 130.70243614 151.71920553 133.6191507 155.25 136.4375 C160.53193617 140.67228848 165.41376878 145.26121525 170.32763672 149.90966797 C173.9058973 153.27706839 177.5306492 156.49617257 181.375 159.5625 C185.92242483 163.18961266 190.15295039 167.0685266 194.375 171.0625 C199.48159196 175.89240217 204.6933511 180.45724262 210.1875 184.84765625 C214.30895144 188.2442594 218.19597051 191.88398987 222.11328125 195.51171875 C226.73685562 199.78214883 231.48372397 203.89528597 236.30078125 207.9453125 C237.22818115 208.72950562 237.22818115 208.72950562 238.17431641 209.52954102 C239.40067373 210.56577649 240.6306292 211.597774 241.86474609 212.62475586 C252.58797049 221.69813774 252.58797049 221.69813774 253.11328125 227.85546875 C253.26640285 234.85876696 253.36550678 239.53572243 248.875 245.0625 C244.55178051 248.81584056 240.71964536 251.19450204 234.86254883 251.17602539 C234.06194534 251.17594986 233.26134186 251.17587433 232.43647766 251.17579651 C231.57701035 251.17063522 230.71754303 251.16547394 229.83203125 251.16015625 C228.9484343 251.1587413 228.06483734 251.15732635 227.15446472 251.15586853 C224.33210872 251.15027069 221.50983203 251.13771861 218.6875 251.125 C216.77408969 251.11998472 214.86067813 251.11542186 212.94726562 251.11132812 C208.25647986 251.10030197 203.56575337 251.08303883 198.875 251.0625 C198.87776538 252.30894917 198.88053076 253.55539833 198.88337994 254.83961868 C198.94842242 284.46046396 198.997856 314.08129075 199.02819599 343.70219 C199.03194789 347.35191585 199.03583088 351.00164156 199.03979492 354.65136719 C199.04058185 355.37792947 199.04136878 356.10449175 199.04217956 356.85307106 C199.05521601 368.60113287 199.07886009 380.34915041 199.10645839 392.097186 C199.1345617 404.16125357 199.15118665 416.22529804 199.15726548 428.289397 C199.16100426 435.06161782 199.16995963 441.83374653 199.19219017 448.60593414 C199.21260936 454.9850785 199.21882276 461.36408168 199.21432304 467.74325562 C199.21514581 470.07965615 199.22107887 472.41606159 199.23261642 474.75243378 C199.33912153 497.43991796 199.33912153 497.43991796 195.875 507.0625 C195.215 507.0625 194.555 507.0625 193.875 507.0625 C193.77960938 507.77792969 193.68421875 508.49335937 193.5859375 509.23046875 C191.10342708 519.11958994 182.16379408 525.99265508 173.875 531.0625 C167.18340014 534.82593835 161.88905511 537.1897855 154.15496826 537.18275452 C152.98831635 537.18412918 151.82166443 537.18550385 150.61965942 537.18692017 C149.34363861 537.18332489 148.0676178 537.17972961 146.75292969 537.17602539 C145.39275108 537.17574325 144.03257232 537.17590177 142.6723938 537.1764679 C138.98265235 537.17675483 135.2929434 537.17087487 131.6032095 537.16389394 C127.74615582 537.15764313 123.88910141 537.15705523 120.03204346 537.15586853 C112.72939702 537.15276032 105.42676556 537.14455379 98.12412572 537.13451904 C89.80980386 537.12334209 81.49548128 537.11784346 73.18115377 537.11282361 C56.07909386 537.10237076 38.97704851 537.08478117 21.875 537.0625 C21.86865209 535.91975412 21.86865209 535.91975412 21.86217594 534.75392246 C21.7590131 516.24387943 21.65039721 497.73387581 21.53566074 479.22390079 C21.48030823 470.27273445 21.42682296 461.32156412 21.37768555 452.37036133 C21.33486849 444.57137109 21.28859686 436.77241044 21.23812145 428.97346586 C21.21150047 424.84139552 21.18664698 420.70933113 21.16592598 416.57722664 C21.14639079 412.69245598 21.12225658 408.80774174 21.09450912 404.92302132 C21.0851221 403.49311341 21.0774528 402.06319311 21.07158089 400.63326645 C21.06334775 398.68928863 21.04848212 396.74534219 21.03321838 394.80140686 C21.02676583 393.71092576 21.02031328 392.62044466 21.0136652 391.49691868 C21.14896009 389.11454321 21.14896009 389.11454321 19.875 388.0625 C17.38097015 387.93752189 14.91335312 387.87648458 12.41772461 387.85717773 C11.62462922 387.84714501 10.83153383 387.83711229 10.01440525 387.82677555 C7.43541492 387.79527794 4.85640928 387.77057323 2.27734375 387.74609375 C0.6898141 387.72770068 -0.89771048 387.70886458 -2.48522949 387.6895752 C-8.38592626 387.62100371 -14.28672041 387.56103035 -20.1875 387.5 C-33.366875 387.355625 -46.54625 387.21125 -60.125 387.0625 C-60.125 436.5625 -60.125 486.0625 -60.125 537.0625 C-92.9496875 537.124375 -92.9496875 537.124375 -126.4375 537.1875 C-133.33309814 537.20570801 -140.22869629 537.22391602 -147.33325195 537.24267578 C-155.78942871 537.25170898 -155.78942871 537.25170898 -159.75505066 537.25338745 C-162.50964176 537.25644758 -165.26404592 537.26270086 -168.01860046 537.27365112 C-171.54372652 537.28747674 -175.06874085 537.29146262 -178.5938915 537.28864455 C-180.48248446 537.28950827 -182.37106536 537.3001791 -184.25962543 537.3113575 C-194.8208274 537.28584109 -203.85225767 536.31122207 -213.125 531.0625 C-213.125 530.4025 -213.125 529.7425 -213.125 529.0625 C-213.70507812 528.959375 -214.28515625 528.85625 -214.8828125 528.75 C-222.36493927 526.45582872 -227.46285227 518.53665401 -231.125 512.0625 C-235.95272253 502.88347493 -237.43078398 494.05528764 -237.36550903 483.75498962 C-237.36721788 482.75499658 -237.36892673 481.75500353 -237.37068737 480.72470766 C-237.37396552 477.39444107 -237.36300617 474.06437871 -237.35205078 470.73413086 C-237.35148631 468.33874517 -237.35180394 465.94335913 -237.35293579 463.54797363 C-237.35344946 457.73183678 -237.34479964 451.91576615 -237.33206047 446.09964442 C-237.31772711 439.32827943 -237.31476699 432.55692368 -237.31248413 425.78554565 C-237.30811376 413.71126454 -237.29482255 401.63701054 -237.27587891 389.56274414 C-237.25750305 377.83813614 -237.2433549 366.11353552 -237.23486328 354.38891602 C-237.23407511 353.30370289 -237.23407511 353.30370289 -237.23327102 352.19656628 C-237.23066082 348.56687272 -237.22813344 344.93717911 -237.22564721 341.30748546 C-237.2049352 311.22580464 -237.1695783 281.1441555 -237.125 251.0625 C-238.29482422 251.08344727 -239.46464844 251.10439453 -240.66992188 251.12597656 C-245.0382854 251.19874856 -249.40659605 251.24443422 -253.77539062 251.28222656 C-255.66089916 251.30225767 -257.54634623 251.32949073 -259.43164062 251.36425781 C-262.15249862 251.41315272 -264.87253056 251.43555382 -267.59375 251.453125 C-268.84424133 251.48409271 -268.84424133 251.48409271 -270.11999512 251.51568604 C-275.92432193 251.51787745 -280.27395243 250.31864568 -285.125 247.0625 C-290.00218059 241.92862569 -291.60812858 237.70014326 -291.43359375 230.71875 C-290.48579883 222.56051526 -286.11535559 217.30559241 -280.125 212.0625 C-279.50496094 211.51078125 -278.88492188 210.9590625 -278.24609375 210.390625 C-276.93442387 209.23529557 -275.61647637 208.08706182 -274.29296875 206.9453125 C-271.87657049 204.8467468 -269.49970976 202.708103 -267.125 200.5625 C-261.76483189 195.73022724 -256.35490426 190.96431144 -250.8671875 186.27734375 C-244.62719845 180.94781573 -238.43017661 175.58853155 -232.3515625 170.07421875 C-229.65517222 167.63800648 -226.9176602 165.25190787 -224.17578125 162.8671875 C-221.86411203 160.83291859 -219.5896857 158.7602769 -217.3125 156.6875 C-213.87121795 153.57721149 -210.36178702 150.59771688 -206.75 147.6875 C-201.60741457 143.52687925 -196.75048263 139.11893696 -191.90234375 134.625 C-189.0145984 131.96063861 -186.07530616 129.36869297 -183.10546875 126.796875 C-180.81366845 124.78985462 -178.56503248 122.73847149 -176.3125 120.6875 C-172.87121795 117.57721149 -169.36178702 114.59771688 -165.75 111.6875 C-160.60245451 107.52286631 -155.74147612 103.10944859 -150.88671875 98.61328125 C-146.33748736 94.41151591 -141.66132916 90.36807487 -136.9453125 86.35546875 C-131.18821488 81.45124482 -125.47853876 76.52323785 -119.9375 71.375 C-116.31216792 68.00666553 -112.61267607 64.7832798 -108.75 61.6875 C-103.71083594 57.63583783 -99.02034229 53.28895384 -94.31689453 48.85986328 C-90.85438522 45.61701548 -87.33213152 42.52820521 -83.625 39.5625 C-78.57586905 35.52170142 -73.85718249 31.19094024 -69.15820312 26.75390625 C-66.25307167 24.01487916 -63.32294336 21.30895257 -60.328125 18.66796875 C-59.47976074 17.91809692 -59.47976074 17.91809692 -58.61425781 17.15307617 C-57.125 16.0625 -57.125 16.0625 -55.125 16.0625 C-55.125 15.4025 -55.125 14.7425 -55.125 14.0625 C-52.69612228 11.4795243 -49.85946191 9.31247766 -47.125 7.0625 C-46.12210938 6.21171875 -45.11921875 5.3609375 -44.0859375 4.484375 C-30.93633844 -6.39873737 -14.71969413 -10.91333561 0 0 Z " fill="#0186D0" transform="translate(531.125,182.9375)"/>
<path d="M0 0 C35.80952381 0 35.80952381 0 46.0625 9.9375 C52.30493772 17.41889482 52.83372518 25.64221565 52.23779297 34.97412109 C51.66021881 39.8947683 49.92366295 44.46565161 48 49 C47.34 49 46.68 49 46 49 C45.75636719 49.59554687 45.51273437 50.19109375 45.26171875 50.8046875 C43.76660667 53.40608994 42.30972969 54.48310372 39.8125 56.125 C39.07644531 56.62257813 38.34039062 57.12015625 37.58203125 57.6328125 C25.6823595 63.93369769 13.79936748 61 0 61 C0 40.87 0 20.74 0 0 Z " fill="#353B43" transform="translate(292,800)"/>
<path d="M0 0 C2.97 0 5.94 0 9 0 C9 20.79 9 41.58 9 63 C6.03 63 3.06 63 0 63 C-0.495 60.03 -0.495 60.03 -1 57 C-1.94875 57.804375 -2.8975 58.60875 -3.875 59.4375 C-8.68864628 63.51863489 -12.54943064 63.33926776 -18.796875 63.27734375 C-24.40210993 62.79201243 -27.20011024 60.01912806 -30.75 56 C-36.18978316 48.74695579 -36.04291167 40.78995022 -35 32 C-32.9813832 25.21420334 -28.96130917 21.53262765 -23 18 C-18.61078172 16.53692724 -14.57778176 16.26404394 -10 17 C-6.33673388 18.93902523 -2.88460407 21.23079187 -1 25 C-0.67 16.75 -0.34 8.5 0 0 Z " fill="#383D46" transform="translate(723,798)"/>
<path d="M0 0 C2.97 0 5.94 0 9 0 C9.33 7.59 9.66 15.18 10 23 C12.64 20.69 15.28 18.38 18 16 C24.99773458 15.0378115 30.24071728 15.81030721 36 20 C42.22853185 25.46726685 43.67575617 30.91452768 44.3125 38.9375 C44.07546846 46.49288027 41.10872317 53.45424741 36 59 C30.79200759 62.81072615 25.41895428 63.87585731 19 63 C14.59450033 61.28230013 11.13664322 58.5130404 8 55 C8 57.31 8 59.62 8 62 C5.36 62 2.72 62 0 62 C0 41.54 0 21.08 0 0 Z " fill="#41454E" transform="translate(501,799)"/>
<path d="M0 0 C5.37902608 3.5087555 9.60708781 7.30706126 11.00390625 13.71484375 C11.88916658 21.96581383 12.27924332 29.87698816 7.41796875 37.01953125 C3.52065125 41.69200582 -1.04681824 44.48465458 -6.99609375 45.71484375 C-13.84393684 45.97438299 -20.46137776 44.95651474 -25.99609375 40.71484375 C-32.7045666 33.5815986 -33.36948066 27.83434145 -33.26953125 18.19921875 C-32.75413794 11.63163537 -30.36085775 7.72269605 -25.55859375 3.33984375 C-18.54121846 -2.48897377 -8.34830317 -3.58095403 0 0 Z " fill="#3B414A" transform="translate(585.99609375,816.28515625)"/>
<path d="M0 0 C21.50684932 0 21.50684932 0 28 5 C32.76465451 9.76465451 34.29457344 14.59068111 34.375 21.25 C34.24593091 28.85647153 32.43050764 33.9782878 27.6875 39.875 C18.56535524 47.08785865 12.39834588 45 0 45 C0 30.15 0 15.3 0 0 Z " fill="#F6F6F7" transform="translate(301,808)"/>
<path d="M0 0 C4.55874524 2.36131085 7.0110249 4.381107 9.328125 9.05078125 C9.66870117 12.28051758 9.66870117 12.28051758 9.62109375 15.8828125 C9.6065918 17.82124023 9.6065918 17.82124023 9.59179688 19.79882812 C9.56673485 21.15365195 9.54134006 22.50846966 9.515625 23.86328125 C9.50056513 25.2376157 9.48687901 26.61196593 9.47460938 27.98632812 C9.43929128 31.34154757 9.38996351 34.69596291 9.328125 38.05078125 C10.318125 38.38078125 11.308125 38.71078125 12.328125 39.05078125 C12.370846 40.7169003 12.36876332 42.3846101 12.328125 44.05078125 C11.328125 45.05078125 11.328125 45.05078125 7.953125 45.23828125 C4.328125 45.05078125 4.328125 45.05078125 1.328125 43.05078125 C1.328125 41.73078125 1.328125 40.41078125 1.328125 39.05078125 C0.81765625 39.48390625 0.3071875 39.91703125 -0.21875 40.36328125 C-5.81603763 44.65056539 -9.8618719 45.67967024 -16.875 45.45703125 C-21.6801223 44.75908053 -24.01883684 43.91561557 -26.984375 39.98828125 C-29.14207877 35.7436181 -29.64059534 31.71593445 -28.671875 27.05078125 C-25.66129448 22.12437675 -22.14914388 19.64961612 -16.671875 18.05078125 C-13.67662642 17.72170002 -10.74269814 17.76274603 -7.734375 17.86328125 C-6.56551758 17.88358398 -6.56551758 17.88358398 -5.37304688 17.90429688 C-3.47235096 17.93927901 -1.57201666 17.99307166 0.328125 18.05078125 C0.20566406 16.77203125 0.08320313 15.49328125 -0.04296875 14.17578125 C-0.11185303 13.45648437 -0.1807373 12.7371875 -0.25170898 11.99609375 C-0.53484112 9.81365532 -0.53484112 9.81365532 -2.734375 8.05078125 C-6.508829 6.76586074 -9.73046862 6.3102746 -13.671875 7.05078125 C-16.4819096 8.84442036 -18.18127968 10.0695906 -19.671875 13.05078125 C-21.981875 12.72078125 -24.291875 12.39078125 -26.671875 12.05078125 C-26.25494191 7.18656185 -24.34438808 5.15201452 -20.671875 2.05078125 C-14.67895986 -2.18810995 -6.82123848 -2.42333472 0 0 Z " fill="#383C44" transform="translate(381.671875,815.94921875)"/>
<path d="M0 0 C3.53845712 4.42585696 4.49040586 7.29206891 4.390625 12.9296875 C4.37773438 14.21875 4.36484375 15.5078125 4.3515625 16.8359375 C4.31814906 18.18230268 4.28428937 19.52865685 4.25 20.875 C4.22991356 22.24476569 4.21166655 23.61455966 4.1953125 24.984375 C4.1482806 28.32363986 4.08255864 31.66145562 4 35 C4.99 35.33 5.98 35.66 7 36 C7.042721 37.66611905 7.04063832 39.33382885 7 41 C5.10871658 42.89128342 2.42932274 42.2366852 -0.08984375 42.328125 C-0.72019531 42.21984375 -1.35054687 42.1115625 -2 42 C-4 39 -4 39 -4 35 C-4.66 35 -5.32 35 -6 35 C-6.20625 35.598125 -6.4125 36.19625 -6.625 36.8125 C-8.67582223 40.07517173 -10.33464951 40.73608604 -14 42 C-20.49672494 42.65055162 -25.5384543 42.91061896 -31 39 C-34.38861617 35.1439885 -34.51984877 31.30919679 -34.34375 26.37109375 C-33.83253336 22.84486078 -32.70560315 21.28935651 -30 19 C-23.72102077 15.91558915 -18.73037868 14.8589564 -11.8125 14.9375 C-11.06291016 14.94201172 -10.31332031 14.94652344 -9.54101562 14.95117188 C-7.69397617 14.96293646 -5.84697787 14.98087135 -4 15 C-4.25554054 13.53890937 -4.53000372 12.08111904 -4.8125 10.625 C-4.96332031 9.81289063 -5.11414063 9.00078125 -5.26953125 8.1640625 C-5.87544942 5.64179359 -5.87544942 5.64179359 -9 4 C-13.88516144 3.28792562 -17.8100735 3.27147357 -22.0625 5.875 C-24.03675276 7.84671163 -24.03675276 7.84671163 -25 10 C-27.31 9.67 -29.62 9.34 -32 9 C-31.58424938 4.14957612 -29.58340022 2.15680495 -26 -1 C-18.24317158 -6.17121895 -7.26851148 -5.52406873 0 0 Z " fill="#3D424B" transform="translate(640,819)"/>
<path d="M0 0 C3.3 0 6.6 0 10 0 C10.33 7.92 10.66 15.84 11 24 C12.32 22.35 13.64 20.7 15 19 C19.50063551 15.96895976 24.78795876 16.37304432 30 17 C33.5 18.8125 33.5 18.8125 36 21 C36.598125 21.495 37.19625 21.99 37.8125 22.5 C40.80509026 26.28011401 40.13038885 31.24249473 40.09765625 35.828125 C40.0962413 36.57713074 40.09482635 37.32613647 40.09336853 38.09783936 C40.08778659 40.48193412 40.07523745 42.86593378 40.0625 45.25 C40.05748266 46.86979031 40.05292016 48.48958209 40.04882812 50.109375 C40.03782308 54.07295312 40.02057091 58.03646045 40 62 C37.36 62 34.72 62 32 62 C31.98541748 61.11739502 31.97083496 60.23479004 31.95581055 59.32543945 C31.89457933 56.03561357 31.8203967 52.7466007 31.73754883 49.45727539 C31.70439443 48.03648798 31.67633308 46.61557187 31.65356445 45.19458008 C31.61984153 43.1460918 31.56752255 41.0987728 31.51171875 39.05078125 C31.48553467 37.82012939 31.45935059 36.58947754 31.43237305 35.3215332 C30.97040027 31.77261188 30.13455453 29.8431285 28 27 C25.59486979 25.79743489 23.87146436 25.7296223 21.1875 25.625 C20.33542969 25.57601562 19.48335938 25.52703125 18.60546875 25.4765625 C14.7809513 26.24490634 13.43321437 28.00076519 11 31 C10.22493229 34.56319377 10.22493229 34.56319377 10.29296875 38.48828125 C10.27784744 39.19147995 10.26272614 39.89467865 10.24714661 40.6191864 C10.20438505 42.85062003 10.19544407 45.08069809 10.1875 47.3125 C10.16434629 48.83141595 10.13897911 50.35029988 10.11132812 51.86914062 C10.04859394 55.57940133 10.01616556 59.28921085 10 63 C7.03 63 4.06 63 1 63 C-0.19388403 18.59132431 -0.19388403 18.59132431 0 0 Z " fill="#4E525B" transform="translate(448,798)"/>
<path d="M0 0 C6.16972477 4.31880734 6.16972477 4.31880734 7.25 9 C7.3325 9.9075 7.415 10.815 7.5 11.75 C5.19 12.08 2.88 12.41 0.5 12.75 C0.231875 12.13125 -0.03625 11.5125 -0.3125 10.875 C-1.45556848 8.4504767 -1.45556848 8.4504767 -4.5 6.75 C-6.91150258 6.43337561 -6.91150258 6.43337561 -9.5 6.5 C-10.799375 6.49226562 -10.799375 6.49226562 -12.125 6.484375 C-14.765795 6.59585448 -14.765795 6.59585448 -17.5 8.75 C-18.16685938 11.20672892 -18.16685938 11.20672892 -17.5 13.75 C-12.97113994 17.12051701 -7.75494833 18.27222756 -2.3828125 19.6796875 C2.41342713 21.05521283 5.35368373 22.66943273 8.5 26.75 C9.42390369 30.17931309 9.17891613 33.27751092 8.5 36.75 C5.81036381 41.3728122 2.80873156 43.70059779 -2.1953125 45.27734375 C-9.12526 46.69857027 -15.61924242 46.61664349 -21.83984375 43.02734375 C-24.49042627 40.98795438 -25.99307004 38.70107116 -27.5 35.75 C-27.5 34.76 -27.5 33.77 -27.5 32.75 C-24.59399739 31.49335022 -22.70395416 30.75 -19.5 30.75 C-18.45107762 32.38631892 -17.45093297 34.05485863 -16.5 35.75 C-13.91246844 37.04376578 -11.95041015 36.91832397 -9.0625 36.9375 C-8.09441406 36.95167969 -7.12632812 36.96585938 -6.12890625 36.98046875 C-3.26733273 36.94149451 -3.26733273 36.94149451 -0.5 34.75 C-0.24969023 32.16619823 -0.24969023 32.16619823 -0.5 29.75 C-4.81765277 27.68930209 -8.81113514 26.42710967 -13.5 25.4375 C-18.87641294 24.11365963 -23.48729105 22.66870848 -26.5 17.75 C-27.48198148 13.17719073 -27.02654427 9.26381478 -25.5 4.875 C-18.77996342 -2.26503887 -9.02076603 -3.22170215 0 0 Z " fill="#3C414A" transform="translate(429.5,816.25)"/>
<path d="M0 0 C4.43118719 2.13646525 7.2290203 4.37577522 9 9 C9.89826816 16.15287609 9.36753719 21.21596426 5 27 C2.74075431 29.5174452 1.22606505 30.80347227 -2.14453125 31.34375 C-6.87182745 31.53190109 -10.29540436 31.17536769 -14 28 C-18.12009412 23.87990588 -18.28476954 20.66779538 -18.375 14.875 C-18.3140363 9.20537557 -17.75502136 6.03808933 -14.0625 1.75 C-9.45450591 -0.88313948 -5.18563167 -0.75385835 0 0 Z " fill="#F7F7F7" transform="translate(580,823)"/>
<path d="M0 0 C9.9 0 19.8 0 30 0 C30.66 0.66 31.32 1.32 32 2 C21.77 1.67 11.54 1.34 1 1 C1 20.47 1 39.94 1 60 C9.58 60 18.16 60 27 60 C27 59.34 27 58.68 27 58 C29.31 58 31.62 58 34 58 C31.95563002 54.93344504 30.32635882 53.52572656 27 52 C27.67546875 51.731875 28.3509375 51.46375 29.046875 51.1875 C34.77654529 48.67041941 37.98640611 46.75113521 40.37890625 40.8671875 C40.58386719 40.25101563 40.78882813 39.63484375 41 39 C41.33 38.01 41.66 37.02 42 36 C42.56796161 29.19377147 42.90018631 22.61527142 39.34375 16.58203125 C36.97308488 13.79098656 34.29842761 12.55925669 31 11 C30.01 10.34 29.02 9.68 28 9 C28 8.34 28 7.68 28 7 C34.07270811 4.0231823 34.07270811 4.0231823 37.5 3.9375 C43.98603224 6.6940637 48.22774516 11.61580393 51.1171875 17.96875 C54.19055923 28.52156619 52.21160796 39.07263838 48 49 C47.34 49 46.68 49 46 49 C45.75636719 49.59554687 45.51273437 50.19109375 45.26171875 50.8046875 C43.76660667 53.40608994 42.30972969 54.48310372 39.8125 56.125 C39.07644531 56.62257813 38.34039062 57.12015625 37.58203125 57.6328125 C25.6823595 63.93369769 13.79936748 61 0 61 C0 40.87 0 20.74 0 0 Z " fill="#4D525A" transform="translate(292,800)"/>
<path d="M0 0 C3.8948445 3.24570375 5.98508076 5.77170176 6.63671875 10.9453125 C6.80515373 16.04482675 6.73424963 19.83476006 4.5625 24.5 C0.83988908 28.32322203 -1.83535245 30.03375569 -7.1875 30.375 C-10.56107644 30.26254745 -12.53676738 29.72999355 -15.1875 27.625 C-19.12943658 23.39462904 -20.02917135 20.72071922 -20 14.9375 C-20.00515625 13.91785156 -20.0103125 12.89820313 -20.015625 11.84765625 C-19.54161172 6.54289001 -17.798536 3.31012146 -13.75 -0.125 C-8.99035537 -1.71154821 -4.61950001 -1.88979546 0 0 Z " fill="#F7F7F7" transform="translate(716.75,824.125)"/>
<path d="M0 0 C4.55640836 2.23678229 6.73472371 4.52093096 9 9 C9.88432544 13.97004605 10.02731229 18.88220735 7.79296875 23.48828125 C5.26868781 26.98393105 3.05253792 29.37111583 -1 31 C-5.99424753 31.4540225 -9.06311101 31.19207216 -13 28 C-16.42475231 24.29756506 -17.27389168 21.47636456 -17.375 16.5625 C-17.13526432 10.87071101 -16.72022581 6.09652521 -13 1.5625 C-8.6412385 -0.70768828 -4.81637629 -0.76413662 0 0 Z " fill="#F8F8F7" transform="translate(527,823)"/>
<path d="M0 0 C0.74958984 0.00451172 1.49917969 0.00902344 2.27148438 0.01367188 C4.11852383 0.02543646 5.96552213 0.04337135 7.8125 0.0625 C7.173125 0.536875 6.53375 1.01125 5.875 1.5 C3.92956694 2.89988726 3.92956694 2.89988726 2.8125 4.0625 C5.2875 4.5575 5.2875 4.5575 7.8125 5.0625 C8.73585528 12.18552642 6.63084552 15.50817178 2.34375 21.15625 C1.8384375 21.7853125 1.333125 22.414375 0.8125 23.0625 C0.04550781 22.88847656 -0.72148438 22.71445312 -1.51171875 22.53515625 C-4.40167737 22.02466721 -6.36864044 22.3376504 -9.1875 23.0625 C-9.1875 23.7225 -9.1875 24.3825 -9.1875 25.0625 C-6.8775 25.3925 -4.5675 25.7225 -2.1875 26.0625 C-2.1875 26.3925 -2.1875 26.7225 -2.1875 27.0625 C-4.08260699 27.14410748 -5.97874504 27.20196459 -7.875 27.25 C-9.45861328 27.30220703 -9.45861328 27.30220703 -11.07421875 27.35546875 C-15.50143636 26.9388548 -18.09359827 25.30728473 -21 22 C-22.75390145 17.66140167 -22.85639139 13.6763304 -22.1875 9.0625 C-17.84512985 0.89884412 -8.3719817 -0.09505307 0 0 Z " fill="#444850" transform="translate(628.1875,833.9375)"/>
<path d="M0 0 C1.63671875 1.10546875 1.63671875 1.10546875 4.01171875 3.10546875 C3.68171875 5.08546875 3.35171875 7.06546875 3.01171875 9.10546875 C2.51671875 8.94046875 2.02171875 8.77546875 1.51171875 8.60546875 C-3.34392938 7.63433912 -7.40442574 7.34797264 -11.86328125 9.48046875 C-15.00159531 11.88035598 -16.30743508 13.23610536 -16.98828125 17.10546875 C-17.81059438 25.24633086 -17.81059438 25.24633086 -15.17578125 32.73046875 C-12.21905572 35.94062789 -10.07648576 37.30990765 -5.80078125 37.73046875 C-3.91359375 37.91609375 -3.91359375 37.91609375 -1.98828125 38.10546875 C-1.98828125 38.43546875 -1.98828125 38.76546875 -1.98828125 39.10546875 C-6.44328125 39.60046875 -6.44328125 39.60046875 -10.98828125 40.10546875 C-10.65828125 41.75546875 -10.32828125 43.40546875 -9.98828125 45.10546875 C-15.46645004 44.96851453 -18.21370037 42.63237078 -22.15625 39.1875 C-26.64427114 34.08704101 -27.54572704 29.33451768 -27.48828125 22.79296875 C-27.48256104 22.04112305 -27.47684082 21.28927734 -27.47094727 20.51464844 C-27.27524999 14.42365325 -26.17412175 9.74016496 -21.98828125 5.10546875 C-16.05807209 -0.24080297 -7.76888306 -3.49523422 0 0 Z " fill="#3E434C" transform="translate(714.98828125,815.89453125)"/>
<path d="M0 0 C0 2.64 0 5.28 0 8 C-1.01320313 8.14695312 -1.01320313 8.14695312 -2.046875 8.296875 C-8.97857419 9.36108138 -8.97857419 9.36108138 -14 14 C-15.42267862 16.84535725 -15.21971869 19.36218552 -15.31640625 22.5390625 C-15.35830078 23.84101562 -15.40019531 25.14296875 -15.44335938 26.484375 C-15.48317299 27.86458045 -15.52288522 29.24478883 -15.5625 30.625 C-15.60569407 32.01303415 -15.64930865 33.40105528 -15.69335938 34.7890625 C-15.79972 38.19260256 -15.90174714 41.59621778 -16 45 C-18.64 45 -21.28 45 -24 45 C-24 30.48 -24 15.96 -24 1 C-21.36 1 -18.72 1 -16 1 C-15.67 2.65 -15.34 4.3 -15 6 C-14.05125 5.195625 -13.1025 4.39125 -12.125 3.5625 C-7.9899898 0.05673048 -5.491217 -0.1016892 0 0 Z " fill="#383D45" transform="translate(682,815)"/>
<path d="M0 0 C3.5 1.8125 3.5 1.8125 6 4 C6.8971875 4.7425 6.8971875 4.7425 7.8125 5.5 C10.80509026 9.28011401 10.13038885 14.24249473 10.09765625 18.828125 C10.0962413 19.57713074 10.09482635 20.32613647 10.09336853 21.09783936 C10.08778659 23.48193412 10.07523745 25.86593378 10.0625 28.25 C10.05748266 29.86979031 10.05292016 31.48958209 10.04882812 33.109375 C10.03782308 37.07295312 10.02057091 41.03646045 10 45 C7.36 45 4.72 45 2 45 C1.98541748 44.11739502 1.97083496 43.23479004 1.95581055 42.32543945 C1.89457933 39.03561357 1.8203967 35.7466007 1.73754883 32.45727539 C1.70439443 31.03648798 1.67633308 29.61557187 1.65356445 28.19458008 C1.61984153 26.1460918 1.56752255 24.0987728 1.51171875 22.05078125 C1.48553467 20.82012939 1.45935059 19.58947754 1.43237305 18.3215332 C0.97040027 14.77261188 0.13455453 12.8431285 -2 10 C-4.76452033 8.61773984 -7.0461363 8.90474613 -10.125 8.9375 C-11.22070312 8.94652344 -12.31640625 8.95554687 -13.4453125 8.96484375 C-14.70988281 8.98224609 -14.70988281 8.98224609 -16 9 C-16 8.34 -16 7.68 -16 7 C-16.66 6.34 -17.32 5.68 -18 5 C-11.84700857 -0.01954564 -7.93900089 -0.82978258 0 0 Z " fill="#3B404A" transform="translate(478,815)"/>
<path d="M0 0 C5.22253135 1.38243477 8.13624104 4.59621357 11 9 C14.152795 16.48602036 13.73927425 24.32493056 10.98046875 31.82421875 C8.98979031 36.24178008 6.44743135 39.68028318 2.875 42.9375 C-2.46104969 44.90951836 -8.62128296 44.79290568 -14 43 C-14.33 41.35 -14.66 39.7 -15 38 C-14.01 37.938125 -13.02 37.87625 -12 37.8125 C-7.3597771 37.14287434 -3.53658161 35.04453547 0 32 C3.96202847 26.65987467 3.79087829 21.41393606 3 15 C0.99932818 10.9272038 -1.19355278 8.44700178 -5 6 C-4.54625 5.566875 -4.0925 5.13375 -3.625 4.6875 C-1.79975666 2.89201658 -1.79975666 2.89201658 0 0 Z " fill="#3B404A" transform="translate(532,817)"/>
<path d="M0 0 C5.98603648 3.1651407 5.98603648 3.1651407 7.2578125 6.98046875 C6.6184375 7.08359375 5.9790625 7.18671875 5.3203125 7.29296875 C4.6396875 7.51984375 3.9590625 7.74671875 3.2578125 7.98046875 C2.9278125 8.97046875 2.5978125 9.96046875 2.2578125 10.98046875 C1.2678125 11.47546875 1.2678125 11.47546875 0.2578125 11.98046875 C-0.3609375 11.34109375 -0.9796875 10.70171875 -1.6171875 10.04296875 C-4.8723821 6.88351517 -7.16631988 6.64625632 -11.703125 6.6875 C-14.87353317 7.14301842 -16.5614277 8.73362532 -18.7421875 10.98046875 C-19.0721875 11.64046875 -19.4021875 12.30046875 -19.7421875 12.98046875 C-22.0521875 12.65046875 -24.3621875 12.32046875 -26.7421875 11.98046875 C-26.32525441 7.11624935 -24.41470058 5.08170202 -20.7421875 1.98046875 C-14.73472155 -2.26871448 -6.80847704 -2.53135685 0 0 Z " fill="#3C414B" transform="translate(381.7421875,816.01953125)"/>
<path d="M0 0 C1.18916016 0.02707031 1.18916016 0.02707031 2.40234375 0.0546875 C4.35208348 0.10166918 6.30119878 0.17340956 8.25 0.25 C8.46875 6.8984375 8.46875 6.8984375 6.5 10.0625 C2.92484304 13.53834704 0.1592694 14.54000331 -4.8125 14.5625 C-6.09833984 14.58763672 -6.09833984 14.58763672 -7.41015625 14.61328125 C-9.75 14.25 -9.75 14.25 -11.53125 12.9453125 C-13.59410128 10.07583348 -13.16762739 7.65068021 -12.75 4.25 C-9.38608828 -0.76480243 -5.48837524 -0.23664636 0 0 Z " fill="#F3F3F2" transform="translate(627.75,839.75)"/>
<path d="M0 0 C0.69287109 0.01804687 1.38574219 0.03609375 2.09960938 0.0546875 C3.79617664 0.10148936 5.49202476 0.17322376 7.1875 0.25 C7.67779622 7.48186925 7.67779622 7.48186925 5.3125 11.1875 C2.08695725 14.31817385 0.15549984 14.42979283 -4.25 14.5 C-5.70212891 14.53867187 -5.70212891 14.53867187 -7.18359375 14.578125 C-9.8125 14.25 -9.8125 14.25 -11.62890625 12.94921875 C-13.66358812 10.02814082 -13.29312361 7.67444323 -12.8125 4.25 C-8.92161797 0.04665708 -5.45710398 -0.27154967 0 0 Z " fill="#F7F6F6" transform="translate(374.8125,839.75)"/>
<path d="M0 0 C0.66 0 1.32 0 2 0 C1.67 1.32 1.34 2.64 1 4 C1.66 4 2.32 4 3 4 C2.67 4.515625 2.34 5.03125 2 5.5625 C0.01252078 10.40698059 0.99744908 14.98724541 2 20 C5.63 20.33 9.26 20.66 13 21 C12.67 22.32 12.34 23.64 12 25 C10.10448978 25.05441656 8.2085208 25.09298035 6.3125 25.125 C5.25675781 25.14820313 4.20101563 25.17140625 3.11328125 25.1953125 C-1.07236947 24.93272463 -3.78487845 24.22046275 -6.77734375 21.21484375 C-9.07404092 17.05437316 -8.86557255 12.58685294 -8 8 C-6.23254751 5.61637142 -4.56170289 4.63948985 -2 3 C-1.34 2.01 -0.68 1.02 0 0 Z " fill="#393B43" transform="translate(362,836)"/>
<path d="M0 0 C2.97 0 5.94 0 9 0 C9 20.79 9 41.58 9 63 C6.03 63 3.06 63 0 63 C-0.33 60.36 -0.66 57.72 -1 55 C-0.34 55 0.32 55 1 55 C1 57.31 1 59.62 1 62 C3.97 61.505 3.97 61.505 7 61 C7 41.53 7 22.06 7 2 C5.02 2 3.04 2 1 2 C1 10.25 1 18.5 1 27 C0.01 27 -0.98 27 -2 27 C-2.66 26.34 -3.32 25.68 -4 25 C-3.505 23.515 -3.505 23.515 -3 22 C-2.34 22.99 -1.68 23.98 -1 25 C-0.67 16.75 -0.34 8.5 0 0 Z " fill="#6D7279" transform="translate(723,798)"/>
<path d="M0 0 C6.16972477 4.31880734 6.16972477 4.31880734 7.25 9 C7.3325 9.9075 7.415 10.815 7.5 11.75 C5.19 12.08 2.88 12.41 0.5 12.75 C0.231875 12.13125 -0.03625 11.5125 -0.3125 10.875 C-1.45556848 8.4504767 -1.45556848 8.4504767 -4.5 6.75 C-6.77912938 6.29605448 -6.77912938 6.29605448 -9.1875 6.125 C-10.39986328 6.01285156 -10.39986328 6.01285156 -11.63671875 5.8984375 C-12.25160156 5.84945312 -12.86648438 5.80046875 -13.5 5.75 C-12.51 5.09 -11.52 4.43 -10.5 3.75 C-10.17 2.76 -9.84 1.77 -9.5 0.75 C-12.14 0.75 -14.78 0.75 -17.5 0.75 C-17.83 1.74 -18.16 2.73 -18.5 3.75 C-19.7065625 4.5234375 -19.7065625 4.5234375 -20.9375 5.3125 C-24.67711044 8.86969042 -24.86335431 12.77086055 -25.5 17.75 C-25.83 17.75 -26.16 17.75 -26.5 17.75 C-26.95560008 9.05985024 -26.95560008 9.05985024 -25.5 4.875 C-18.77996342 -2.26503887 -9.02076603 -3.22170215 0 0 Z " fill="#3B404B" transform="translate(429.5,816.25)"/>
<path d="M0 0 C1.04892238 1.63631892 2.04906703 3.30485863 3 5 C5.59516521 6.29758261 7.54183027 6.13269102 10.4375 6.125 C11.40558594 6.12757813 12.37367188 6.13015625 13.37109375 6.1328125 C16.11017829 6.11213973 16.11017829 6.11213973 19 5 C18.67 6.32 18.34 7.64 18 9 C12.39 9 6.78 9 1 9 C0.67 9.66 0.34 10.32 0 11 C1.65 10.67 3.3 10.34 5 10 C5 10.99 5 11.98 5 13 C8.3 13.33 11.6 13.66 15 14 C15 14.33 15 14.66 15 15 C7.86149533 15.47240104 1.86109433 15.50959493 -4 11 C-8 6.1 -8 6.1 -8 2 C-5.09399739 0.74335022 -3.20395416 0 0 0 Z " fill="#52585E" transform="translate(410,847)"/>
<path d="M0 0 C-0.66 1.32 -1.32 2.64 -2 4 C-1.34 4.33 -0.68 4.66 0 5 C-1.3921875 5.433125 -1.3921875 5.433125 -2.8125 5.875 C-6.09791667 6.8875 -6.09791667 6.8875 -9 9 C-9.42993881 10.90419084 -9.42993881 10.90419084 -9.4375 13 C-9.62890625 15.15234375 -9.62890625 15.15234375 -10 17 C-11.875 18.5625 -11.875 18.5625 -14 19 C-14.99 18.67 -15.98 18.34 -17 18 C-17.59933794 11.04767989 -17.59933794 11.04767989 -15.9921875 8.23828125 C-14.7427356 6.7531543 -13.37235785 5.37235785 -12 4 C-11.46375 3.401875 -10.9275 2.80375 -10.375 2.1875 C-7.27932547 -0.48603709 -3.86066933 -0.08579265 0 0 Z " fill="#333740" transform="translate(421,816)"/>
<path d="M0 0 C0.99 0.66 1.98 1.32 3 2 C2.09636719 1.98839844 1.19273437 1.97679687 0.26171875 1.96484375 C-1.50751953 1.95130859 -1.50751953 1.95130859 -3.3125 1.9375 C-5.07013672 1.92009766 -5.07013672 1.92009766 -6.86328125 1.90234375 C-10.03059195 1.85100102 -10.03059195 1.85100102 -13 3 C-13 3.99 -13 4.98 -13 6 C-10.03 6 -7.06 6 -4 6 C-4 6.33 -4 6.66 -4 7 C-4.90492188 7.12955078 -4.90492188 7.12955078 -5.828125 7.26171875 C-11.22451394 8.09144931 -11.22451394 8.09144931 -15.125 11.6875 C-15.74375 12.450625 -16.3625 13.21375 -17 14 C-20.75 13.8125 -20.75 13.8125 -24 13 C-23.58306691 8.1357806 -21.67251308 6.10123327 -18 3 C-12.56498952 -0.8442757 -6.4298297 -0.71442552 0 0 Z " fill="#4E535C" transform="translate(379,815)"/>
<path d="M0 0 C0.33 0 0.66 0 1 0 C1 2.31 1 4.62 1 7 C-0.15628906 7.07347656 -0.15628906 7.07347656 -1.3359375 7.1484375 C-2.33882813 7.22320313 -3.34171875 7.29796875 -4.375 7.375 C-5.37273437 7.44460938 -6.37046875 7.51421875 -7.3984375 7.5859375 C-10.15508879 7.76363964 -10.15508879 7.76363964 -12 10 C-7.71 10.33 -3.42 10.66 1 11 C1 13.31 1 15.62 1 18 C0.67 18 0.34 18 0 18 C0 16.02 0 14.04 0 12 C-1.20398438 12.08378906 -2.40796875 12.16757812 -3.6484375 12.25390625 C-5.22393916 12.3570641 -6.79946109 12.45991266 -8.375 12.5625 C-9.56609375 12.64661133 -9.56609375 12.64661133 -10.78125 12.73242188 C-16.7734375 13.11328125 -16.7734375 13.11328125 -19 12 C-18.67 10.68 -18.34 9.36 -18 8 C-18.94875 8.763125 -19.8975 9.52625 -20.875 10.3125 C-21.40867187 10.74175781 -21.94234375 11.17101562 -22.4921875 11.61328125 C-24.25292107 13.12270545 -24.25292107 13.12270545 -26 16 C-26.66 16 -27.32 16 -28 16 C-28 18.64 -28 21.28 -28 24 C-28.33 24 -28.66 24 -29 24 C-29.49250754 19.07492462 -29.57745327 15.94492353 -26.9375 11.625 C-20.99770843 6.31710115 -15.72464184 5.5564387 -8.0625 5.8125 C-7.28326172 5.82603516 -6.50402344 5.83957031 -5.70117188 5.85351562 C-3.80047596 5.88849776 -1.90014166 5.94229041 0 6 C0 4.02 0 2.04 0 0 Z " fill="#585A62" transform="translate(382,828)"/>
<path d="M0 0 C0.33 0 0.66 0 1 0 C1 17.16 1 34.32 1 52 C3.475 51.505 3.475 51.505 6 51 C7 52 7 52 7.0625 55.0625 C7.041875 56.031875 7.02125 57.00125 7 58 C4.69 58 2.38 58 0 58 C0 38.86 0 19.72 0 0 Z " fill="#2B3337" transform="translate(502,802)"/>
<path d="M0 0 C0 2.64 0 5.28 0 8 C-4.62 8.33 -9.24 8.66 -14 9 C-13 4 -13 4 -10.375 1.6875 C-6.58871916 -0.20564042 -4.17582188 -0.33406575 0 0 Z " fill="#393F47" transform="translate(682,815)"/>
<path d="M0 0 C2.41696872 -0.05411124 4.83271787 -0.09372278 7.25 -0.125 C7.93191406 -0.14175781 8.61382812 -0.15851562 9.31640625 -0.17578125 C13.0608235 -0.21213482 15.82352727 -0.07944349 19 2 C19 2.66 19 3.32 19 4 C13.87080814 6.10428384 9.4389165 6.21755666 4 6 C3.67 5.01 3.34 4.02 3 3 C1.68 3 0.36 3 -1 3 C-0.67 2.01 -0.34 1.02 0 0 Z " fill="#353A43" transform="translate(411,855)"/>
<path d="M0 0 C0.99 0.33 1.98 0.66 3 1 C3.6875 3.0625 3.6875 3.0625 4 5 C3.195625 5.61875 2.39125 6.2375 1.5625 6.875 C-1.03874519 8.74164041 -1.03874519 8.74164041 -2 11 C-4.31 10.67 -6.62 10.34 -9 10 C-8.64598897 6.81390075 -8.16972964 5.20933322 -6.125 2.6875 C-4 1 -4 1 -1 1 C-0.67 0.67 -0.34 0.34 0 0 Z " fill="#434851" transform="translate(617,818)"/>
<path d="M0 0 C4.62 0 9.24 0 14 0 C14.33 0.99 14.66 1.98 15 3 C14.01 4.485 14.01 4.485 13 6 C13.66 7.32 14.32 8.64 15 10 C10.71 9.34 6.42 8.68 2 8 C2.99 7.34 3.98 6.68 5 6 C5.72382467 3.94074861 5.72382467 3.94074861 6 2 C3.03 1.505 3.03 1.505 0 1 C0 0.67 0 0.34 0 0 Z " fill="#4F545D" transform="translate(569,815)"/>
<path d="M0 0 C0.21398437 0.64453125 0.42796875 1.2890625 0.6484375 1.953125 C1.8473523 4.27839115 1.8473523 4.27839115 4.6015625 4.609375 C5.59929687 4.65578125 6.59703125 4.7021875 7.625 4.75 C9.12933594 4.83507812 9.12933594 4.83507812 10.6640625 4.921875 C11.43492187 4.94765625 12.20578125 4.9734375 13 5 C12.67 6.32 12.34 7.64 12 9 C8.04 9 4.08 9 0 9 C0 7.68 0 6.36 0 5 C-1.32 5.33 -2.64 5.66 -4 6 C-3.6875 4.125 -3.6875 4.125 -3 2 C-2.01 1.34 -1.02 0.68 0 0 Z " fill="#353B44" transform="translate(362,852)"/>
<path d="M0 0 C4.95 1.98 4.95 1.98 10 4 C10 4.33 10 4.66 10 5 C9.43410156 5.12117187 8.86820312 5.24234375 8.28515625 5.3671875 C7.55167969 5.53476562 6.81820313 5.70234375 6.0625 5.875 C5.33160156 6.03742187 4.60070312 6.19984375 3.84765625 6.3671875 C1.79299706 6.82961523 1.79299706 6.82961523 1 9 C4.3 9.66 7.6 10.32 11 11 C5.67810826 12.33047293 1.96479973 11.18550154 -3 9 C-5.625 6.3125 -5.625 6.3125 -7 4 C-5.35 4 -3.7 4 -2 4 C-1.34 2.68 -0.68 1.36 0 0 Z " fill="#4F545A" transform="translate(411,830)"/>
<path d="M0 0 C2 2 2 2 2.22705078 4.88916016 C2.21134033 6.69586182 2.21134033 6.69586182 2.1953125 8.5390625 C2.18886719 9.84101562 2.18242187 11.14296875 2.17578125 12.484375 C2.15906929 13.86458595 2.14213939 15.24479429 2.125 16.625 C2.11497006 18.01301452 2.10584423 19.40103589 2.09765625 20.7890625 C2.07401863 24.19288026 2.04106867 27.59635506 2 31 C2.99 31.33 3.98 31.66 5 32 C5.042721 33.66611905 5.04063832 35.33382885 5 37 C4 38 4 38 0.625 38.1875 C-3 38 -3 38 -6 36 C-5.67 35.01 -5.34 34.02 -5 33 C-4.34 33.66 -3.68 34.32 -3 35 C-1.01178687 35.39764263 0.98944339 35.73775349 3 36 C3 34.68 3 33.36 3 32 C2.34 32 1.68 32 1 32 C1 22.76 1 13.52 1 4 C0.34 3.67 -0.32 3.34 -1 3 C-0.67 2.01 -0.34 1.02 0 0 Z " fill="#6C6D71" transform="translate(389,823)"/>
<path d="M0 0 C3.54243456 1.86443924 5.70706563 3.12119689 7 7 C7 8.32 7 9.64 7 11 C4.69 11.33 2.38 11.66 0 12 C-0.28875 11.38125 -0.5775 10.7625 -0.875 10.125 C-1.93720042 7.86674235 -1.93720042 7.86674235 -4 6 C-2.68 6 -1.36 6 0 6 C0 4.02 0 2.04 0 0 Z " fill="#5D6169" transform="translate(430,817)"/>
<path d="M0 0 C1.17046875 0.10183594 2.3409375 0.20367188 3.546875 0.30859375 C4.43890625 0.39238281 5.3309375 0.47617187 6.25 0.5625 C5.26 0.8925 4.27 1.2225 3.25 1.5625 C2.59 2.8825 1.93 4.2025 1.25 5.5625 C-2.38 5.2325 -6.01 4.9025 -9.75 4.5625 C-10.08 3.2425 -10.41 1.9225 -10.75 0.5625 C-7.06599416 -0.66854155 -3.83525024 -0.34517252 0 0 Z " fill="#31363F" transform="translate(375.75,816.4375)"/>
<path d="M0 0 C0.66 0.33 1.32 0.66 2 1 C1.54625 1.4125 1.0925 1.825 0.625 2.25 C-1.0914384 3.93416435 -1.0914384 3.93416435 -2.0625 6.125 C-3 8 -3 8 -5 9 C-6.87379605 9.07033769 -8.75001102 9.0843022 -10.625 9.0625 C-11.62789062 9.05347656 -12.63078125 9.04445313 -13.6640625 9.03515625 C-14.43492187 9.02355469 -15.20578125 9.01195312 -16 9 C-15 6 -15 6 -12.75 4.75 C-10 4 -10 4 -7.5 4.6875 C-6.675 4.790625 -5.85 4.89375 -5 5 C-2.16588845 2.666508 -2.16588845 2.666508 0 0 Z " fill="#313841" transform="translate(634,851)"/>
<path d="M0 0 C-0.33 0.33 -0.66 0.66 -1 1 C-0.01 1.66 0.98 2.32 2 3 C1.67 3.99 1.34 4.98 1 6 C-5.625 6.125 -5.625 6.125 -9 5 C-9.33 3.35 -9.66 1.7 -10 0 C-3.375 -1.125 -3.375 -1.125 0 0 Z " fill="#333943" transform="translate(527,855)"/>
<path d="M0 0 C0 0.33 0 0.66 0 1 C-4.62 1.33 -9.24 1.66 -14 2 C-14.33 2.99 -14.66 3.98 -15 5 C-16.2065625 5.7734375 -16.2065625 5.7734375 -17.4375 6.5625 C-21.17711044 10.11969042 -21.36335431 14.02086055 -22 19 C-22.33 19 -22.66 19 -23 19 C-23.45560008 10.30985024 -23.45560008 10.30985024 -22 6.125 C-15.74717881 -0.51862251 -8.69799663 -0.5218798 0 0 Z " fill="#53575E" transform="translate(426,815)"/>
<path d="M0 0 C0.99 0.495 0.99 0.495 2 1 C4.2072923 1.07092842 6.41667452 1.08415025 8.625 1.0625 C10.40777344 1.04896484 10.40777344 1.04896484 12.2265625 1.03515625 C13.59941406 1.01775391 13.59941406 1.01775391 15 1 C14.67 2.32 14.34 3.64 14 5 C14.66 5.33 15.32 5.66 16 6 C14.02 6.99 14.02 6.99 12 8 C12 7.01 12 6.02 12 5 C9.02148438 5.04882812 9.02148438 5.04882812 6.04296875 5.09765625 C4 5 4 5 1 4 C0.3125 1.9375 0.3125 1.9375 0 0 Z " fill="#40444D" transform="translate(363,852)"/>
<path d="M0 0 C0.99 0.33 1.98 0.66 3 1 C3.6875 3.0625 3.6875 3.0625 4 5 C0.6659053 7.19097652 -2.04179141 8.43454163 -6 9 C-5.52797514 4.75177626 -3.03344482 2.80010291 0 0 Z " fill="#363C43" transform="translate(361,818)"/>
<path d="M0 0 C2.97 0 5.94 0 9 0 C8.67 0.66 8.34 1.32 8 2 C6.68 2 5.36 2 4 2 C4 2.66 4 3.32 4 4 C6.31 4.33 8.62 4.66 11 5 C11 5.33 11 5.66 11 6 C7.04 6 3.08 6 -1 6 C-1.33 4.68 -1.66 3.36 -2 2 C-1.34 2 -0.68 2 0 2 C0 1.34 0 0.68 0 0 Z " fill="#3C444C" transform="translate(615,855)"/>
<path d="M0 0 C0.8353125 0.48919922 0.8353125 0.48919922 1.6875 0.98828125 C4.32244021 2.14106759 6.13763816 2.23549692 9 2.1875 C9.845625 2.18105469 10.69125 2.17460938 11.5625 2.16796875 C13.83252477 2.01154076 15.81961604 1.63089814 18 1 C17.01 2.65 16.02 4.3 15 6 C14.34 5.67 13.68 5.34 13 5 C10.72433301 4.93090954 8.4670476 5.00251604 6.19140625 5.0625 C4 5 4 5 1 4 C1 4.66 1 5.32 1 6 C0.01 5.67 -0.98 5.34 -2 5 C-1.34 3.35 -0.68 1.7 0 0 Z " fill="#40464E" transform="translate(614,851)"/>
<path d="M0 0 C0 2.64 0 5.28 0 8 C-0.33 8 -0.66 8 -1 8 C-1 5.69 -1 3.38 -1 1 C-3.27071461 2.01790655 -4.80784632 2.77442829 -6.4375 4.6875 C-6.953125 5.120625 -7.46875 5.55375 -8 6 C-10.6875 5.6875 -10.6875 5.6875 -13 5 C-8.49251112 0.34226149 -6.53321609 -0.12098548 0 0 Z " fill="#50545B" transform="translate(682,815)"/>
<path d="M0 0 C2.64 0 5.28 0 8 0 C8.33 2.31 8.66 4.62 9 7 C7.68 7 6.36 7 5 7 C5 6.34 5 5.68 5 5 C4.01 5 3.02 5 2 5 C2 4.01 2 3.02 2 2 C1.34 2 0.68 2 0 2 C0 1.34 0 0.68 0 0 Z " fill="#353943" transform="translate(421,837)"/>
<path d="M0 0 C1.32 0.66 2.64 1.32 4 2 C3.34 2 2.68 2 2 2 C2 2.66 2 3.32 2 4 C5.63 4 9.26 4 13 4 C13.33 5.32 13.66 6.64 14 8 C13.01 7.67 12.02 7.34 11 7 C8.93854893 6.931009 6.87498599 6.91532273 4.8125 6.9375 C3.72582031 6.94652344 2.63914062 6.95554687 1.51953125 6.96484375 C0.68808594 6.97644531 -0.14335937 6.98804688 -1 7 C-1 6.34 -1 5.68 -1 5 C-1.66 4.34 -2.32 3.68 -3 3 C-2.01 2.01 -1.02 1.02 0 0 Z " fill="#525660" transform="translate(463,817)"/>
<path d="M0 0 C4.455 0.99 4.455 0.99 9 2 C6 4 6 4 3 4 C3 5.32 3 6.64 3 8 C6.3 8.33 9.6 8.66 13 9 C13 9.33 13 9.66 13 10 C7.32723489 10.29341888 4.00932754 10.00559652 -1 7 C-0.34 6.67 0.32 6.34 1 6 C0.67 4.02 0.34 2.04 0 0 Z " fill="#636771" transform="translate(515,852)"/>
<path d="M0 0 C0.33 0 0.66 0 1 0 C1.33 2.97 1.66 5.94 2 9 C2.66 7.68 3.32 6.36 4 5 C4.66 4.01 5.32 3.02 6 2 C6.33 4.97 6.66 7.94 7 11 C4.69 11 2.38 11 0 11 C0 7.37 0 3.74 0 0 Z " fill="#31393F" transform="translate(450,849)"/>
<path d="M0 0 C0.99 0.33 1.98 0.66 3 1 C3.33 1.99 3.66 2.98 4 4 C0.62902617 5.49821059 -1.20442119 6 -5 6 C-5 4.68 -5 3.36 -5 2 C-4.360625 1.855625 -3.72125 1.71125 -3.0625 1.5625 C-1.02454854 1.18992819 -1.02454854 1.18992819 0 0 Z " fill="#333841" transform="translate(617,818)"/>
<path d="M0 0 C0.33 0 0.66 0 1 0 C1 2.97 1 5.94 1 9 C0.34773437 9.08636719 -0.30453125 9.17273438 -0.9765625 9.26171875 C-7.14617438 10.25358851 -10.57066275 11.57066275 -15 16 C-14.09126425 12.94334338 -13.32469175 11.27694297 -10.875 9.1875 C-7.02507023 7.59731162 -4.14686216 7.7891426 0 8 C0 5.36 0 2.72 0 0 Z " fill="#D3D4D5" transform="translate(682,815)"/>
<path d="M0 0 C1.125 1.75 1.125 1.75 2 4 C1.07451225 6.69933926 0.57626463 7.71186768 -2 9 C-3.32 7.35 -4.64 5.7 -6 4 C-4.02 2.68 -2.04 1.36 0 0 Z " fill="#424A55" transform="translate(720,849)"/>
<path d="M0 0 C0.33 0 0.66 0 1 0 C1.33 2.31 1.66 4.62 2 7 C1.360625 7.433125 0.72125 7.86625 0.0625 8.3125 C-2.26746003 9.91239177 -2.26746003 9.91239177 -3 13 C-1.68 12.67 -0.36 12.34 1 12 C1 12.99 1 13.98 1 15 C-1.375 14.75 -1.375 14.75 -4 14 C-5.3125 11.9375 -5.3125 11.9375 -6 10 C-5.195625 9.278125 -4.39125 8.55625 -3.5625 7.8125 C-0.97707928 4.97484311 -0.31957187 3.72833853 0 0 Z " fill="#4F535C" transform="translate(361,845)"/>
<path d="M0 0 C0.33 0 0.66 0 1 0 C1.144375 0.763125 1.28875 1.52625 1.4375 2.3125 C1.9632594 5.08172908 1.9632594 5.08172908 3 8 C4.98 7.67 6.96 7.34 9 7 C8.21625 7.61875 7.4325 8.2375 6.625 8.875 C4.03162353 10.89858661 4.03162353 10.89858661 2 13 C0.21590198 9.93753253 -0.22880021 7.77920727 -0.125 4.25 C-0.10695313 3.45078125 -0.08890625 2.6515625 -0.0703125 1.828125 C-0.04710937 1.22484375 -0.02390625 0.6215625 0 0 Z " fill="#5A5C66" transform="translate(665,816)"/>
<path d="M0 0 C0.66 0 1.32 0 2 0 C2.042721 1.66611905 2.04063832 3.33382885 2 5 C1 6 1 6 -2.375 6.1875 C-6 6 -6 6 -9 4 C-8.67 3.01 -8.34 2.02 -8 1 C-7.34 1.66 -6.68 2.32 -6 3 C-4.01178687 3.39764263 -2.01055661 3.73775349 0 4 C0 2.68 0 1.36 0 0 Z " fill="#5A6266" transform="translate(392,855)"/>
<path d="M0 0 C0 1.65 0 3.3 0 5 C-1.65 5 -3.3 5 -5 5 C-5.33 3.35 -5.66 1.7 -6 0 C-3.50907189 -1.24546405 -2.58919267 -0.7767578 0 0 Z " fill="#333942" transform="translate(509,854)"/>
<path d="M0 0 C0.99 0.33 1.98 0.66 3 1 C3.33 2.65 3.66 4.3 4 6 C1.69 6 -0.62 6 -3 6 C-3 5.01 -3 4.02 -3 3 C-2.34 3 -1.68 3 -1 3 C-0.67 2.01 -0.34 1.02 0 0 Z " fill="#394048" transform="translate(433,821)"/>
<path d="M0 0 C1.32 0.66 2.64 1.32 4 2 C3.67 3.98 3.34 5.96 3 8 C-2.94 7.01 -2.94 7.01 -9 6 C-9 5.67 -9 5.34 -9 5 C-6.36 4.67 -3.72 4.34 -1 4 C-0.67 2.68 -0.34 1.36 0 0 Z " fill="#555964" transform="translate(715,817)"/>
<path d="M0 0 C-0.33 0.66 -0.66 1.32 -1 2 C-0.34 2 0.32 2 1 2 C1 2.66 1 3.32 1 4 C-4.75 4.125 -4.75 4.125 -7 3 C-6.67 2.01 -6.34 1.02 -6 0 C-3 -1 -3 -1 0 0 Z " fill="#3C4049" transform="translate(419,836)"/>
<path d="M0 0 C3.12270126 2.51830747 3.94523098 3.7261549 4.75 7.75 C4.8325 8.8225 4.915 9.895 5 11 C3.68 10.67 2.36 10.34 1 10 C1 9.34 1 8.68 1 8 C1.66 8 2.32 8 3 8 C2.505 7.4225 2.01 6.845 1.5 6.25 C0 4 0 4 0 0 Z " fill="#4B5259" transform="translate(511,847)"/>
<path d="M0 0 C0.66 0 1.32 0 2 0 C2.042721 1.66611905 2.04063832 3.33382885 2 5 C1 6 1 6 -0.84765625 6.09765625 C-2.8984375 6.06510417 -4.94921875 6.03255208 -7 6 C-5 4 -5 4 -2.375 3.875 C-1.59125 3.91625 -0.8075 3.9575 0 4 C0 2.68 0 1.36 0 0 Z " fill="#596269" transform="translate(645,855)"/>
<path d="M0 0 C0.66 0.33 1.32 0.66 2 1 C2 1.99 2 2.98 2 4 C4.97 4 7.94 4 11 4 C11 4.33 11 4.66 11 5 C7.37 5.33 3.74 5.66 0 6 C0 5.01 0 4.02 0 3 C-0.66 2.67 -1.32 2.34 -2 2 C-1.34 1.34 -0.68 0.68 0 0 Z " fill="#5A5E68" transform="translate(515,818)"/>
<path d="M0 0 C0.99 0.495 0.99 0.495 2 1 C3.70363822 1.22622081 5.41328701 1.40888473 7.125 1.5625 C8.03507812 1.64628906 8.94515625 1.73007812 9.8828125 1.81640625 C10.58148438 1.87699219 11.28015625 1.93757812 12 2 C12 2.33 12 2.66 12 3 C10.8553125 3.2165625 10.8553125 3.2165625 9.6875 3.4375 C6.91827092 3.9632594 6.91827092 3.9632594 4 5 C3.01 4.67 2.02 4.34 1 4 C0.3125 1.9375 0.3125 1.9375 0 0 Z " fill="#5E6069" transform="translate(363,852)"/>
<path d="M0 0 C1.32 0.33 2.64 0.66 4 1 C3.01 1.33 2.02 1.66 1 2 C0.67 1.34 0.34 0.68 0 0 Z M-4 1 C-2.68 1 -1.36 1 0 1 C-0.33 2.65 -0.66 4.3 -1 6 C-2.32 5.67 -3.64 5.34 -5 5 C-4.67 3.68 -4.34 2.36 -4 1 Z " fill="#333742" transform="translate(469,816)"/>
<path d="M0 0 C-0.99 1.32 -1.98 2.64 -3 4 C-7.455 3.01 -7.455 3.01 -12 2 C-12 1.67 -12 1.34 -12 1 C-10.37681021 0.63762737 -8.7513642 0.28534843 -7.125 -0.0625 C-6.22007812 -0.25972656 -5.31515625 -0.45695313 -4.3828125 -0.66015625 C-2 -1 -2 -1 0 0 Z " fill="#61676F" transform="translate(632,853)"/>
<path d="M0 0 C0.99 0.33 1.98 0.66 3 1 C2.67 2.32 2.34 3.64 2 5 C0.35 5 -1.3 5 -3 5 C-2.625 3.0625 -2.625 3.0625 -2 1 C-1.34 0.67 -0.68 0.34 0 0 Z " fill="#424852" transform="translate(528,852)"/>
<path d="M0 0 C0.99 0 1.98 0 3 0 C3 0.99 3 1.98 3 3 C4.32 2.34 5.64 1.68 7 1 C6.67 2.98 6.34 4.96 6 7 C3.69 5.35 1.38 3.7 -1 2 C-0.67 1.34 -0.34 0.68 0 0 Z " fill="#505360" transform="translate(377,821)"/>
<path d="M0 0 C2.31 0 4.62 0 7 0 C7 0.99 7 1.98 7 3 C4.69 3.33 2.38 3.66 0 4 C0 2.68 0 1.36 0 0 Z " fill="#31363F" transform="translate(668,820)"/>
<path d="M0 0 C0 3.93169105 -1.39419615 5.16427228 -4 8 C-4.66 8 -5.32 8 -6 8 C-4.73058503 4.08597051 -3.48832306 2.20927127 0 0 Z " fill="#4E5358" transform="translate(361,818)"/>
<path d="M0 0 C4.75 0.75 4.75 0.75 7 3 C6.34 3 5.68 3 5 3 C5 3.66 5 4.32 5 5 C4.34 5 3.68 5 3 5 C3 4.34 3 3.68 3 3 C1.68 3 0.36 3 -1 3 C-0.67 2.01 -0.34 1.02 0 0 Z " fill="#2D333B" transform="translate(411,855)"/>
<path d="M0 0 C0.33 0.99 0.66 1.98 1 3 C-1.72842061 4.36421031 -3.60953318 3.87807211 -6.625 3.5625 C-7.62789063 3.46066406 -8.63078125 3.35882812 -9.6640625 3.25390625 C-10.43492187 3.17011719 -11.20578125 3.08632813 -12 3 C-12 2.67 -12 2.34 -12 2 C-10.95199219 1.90912109 -10.95199219 1.90912109 -9.8828125 1.81640625 C-8.97273438 1.73261719 -8.06265625 1.64882813 -7.125 1.5625 C-6.22007812 1.48128906 -5.31515625 1.40007813 -4.3828125 1.31640625 C-1.98889139 1.13010715 -1.98889139 1.13010715 0 0 Z " fill="#6F747B" transform="translate(428,852)"/>
<path d="M0 0 C0.99 0.33 1.98 0.66 3 1 C3 1.99 3 2.98 3 4 C0 5 0 5 -3 4 C-3 3.34 -3 2.68 -3 2 C-2.01 1.34 -1.02 0.68 0 0 Z " fill="#424752" transform="translate(460,821)"/>
<path d="M0 0 C0.90105469 0.02707031 1.80210937 0.05414062 2.73046875 0.08203125 C3.76107422 0.13423828 3.76107422 0.13423828 4.8125 0.1875 C4.8125 0.5175 4.8125 0.8475 4.8125 1.1875 C2.1725 1.1875 -0.4675 1.1875 -3.1875 1.1875 C-3.1875 1.8475 -3.1875 2.5075 -3.1875 3.1875 C-4.8375 3.1875 -6.4875 3.1875 -8.1875 3.1875 C-5.67753317 0.01043235 -3.96125134 -0.15433447 0 0 Z " fill="#737880" transform="translate(524.1875,814.8125)"/>
<path d="M0 0 C0.86625 0.3403125 0.86625 0.3403125 1.75 0.6875 C0.76 1.0175 -0.23 1.3475 -1.25 1.6875 C-2.62195574 2.98105827 -3.96182656 4.31048702 -5.25 5.6875 C-5.58 4.6975 -5.91 3.7075 -6.25 2.6875 C-2.80384615 -0.38942308 -2.80384615 -0.38942308 0 0 Z " fill="#5B6061" transform="translate(363.25,835.3125)"/>
<path d="M0 0 C0.8971875 0.309375 0.8971875 0.309375 1.8125 0.625 C-1.1340385 2.42566242 -4.07551935 4.12663895 -7.1875 5.625 C-5.69046729 2.17030914 -4.27938051 -0.73360809 0 0 Z " fill="#D5D7D8" transform="translate(466.1875,823.375)"/>
</svg>
