<svg version="1.1" id="Layer_1" xmlns="http://www.w3.org/2000/svg" xmlns:xlink="http://www.w3.org/1999/xlink" x="0px" y="0px"
	 width="100%" viewBox="0 0 1024 1024" enable-background="new 0 0 1024 1024" xml:space="preserve">
<path fill="#E6E7E7" opacity="1.000000" stroke="none" 
	d="
M1.000000,345.000000 
	C1.000000,230.000015 1.000000,115.500031 1.000000,1.000031 
	C342.333282,1.000021 683.666565,1.000021 1025.000000,1.000010 
	C1025.000000,342.333252 1025.000000,683.666504 1025.000000,1024.999756 
	C683.666809,1024.999878 342.333618,1024.999878 1.000204,1025.000000 
	C1.000000,798.500000 1.000000,572.000000 1.000000,345.000000 
M102.541962,102.001724 
	C100.467064,104.367622 98.407387,106.747070 96.314453,109.096909 
	C89.617149,116.616325 81.504486,123.301544 76.508278,131.816757 
	C67.405319,147.331223 59.448399,163.627213 52.324272,180.161957 
	C45.652794,195.646103 43.749111,212.421265 42.945309,229.244888 
	C42.637409,235.689301 41.835953,242.108856 41.335720,248.545654 
	C40.526794,258.954620 39.356819,269.359192 39.129005,279.782898 
	C38.905933,289.989655 39.836723,300.215973 39.959351,310.437317 
	C40.124344,324.189972 40.090229,337.946838 39.982437,351.700623 
	C39.701927,387.492340 39.305115,423.283081 39.017872,459.074738 
	C38.917206,471.618195 39.000336,484.163086 39.000240,496.707336 
	C39.000027,524.461060 38.898830,552.215332 39.032906,579.968384 
	C39.137180,601.551880 39.570271,623.133667 39.788651,644.716858 
	C39.916039,657.307068 39.927399,669.898499 39.956844,682.489502 
	C39.990875,697.041260 39.869591,711.594360 40.028908,726.144592 
	C40.246613,746.027283 40.621979,765.908691 41.013916,785.789001 
	C41.259609,798.251099 40.818672,810.803772 42.192909,823.148071 
	C44.130512,840.552734 47.039810,857.884583 50.391964,875.080261 
	C51.899254,882.812195 54.752476,890.508423 58.312531,897.555176 
	C62.628319,906.097900 68.532722,913.822083 73.397263,922.107422 
	C80.502945,934.209900 89.475639,944.667297 99.074379,954.895569 
	C114.068932,970.873474 133.344818,979.395630 152.868652,987.083679 
	C166.472672,992.440552 181.059845,995.765076 195.498993,998.404785 
	C209.622467,1000.986816 224.086472,1002.196533 238.452972,1002.830322 
	C255.008026,1003.560730 271.620758,1002.913696 288.206970,1003.045837 
	C294.170380,1003.093323 300.132324,1003.992432 306.090179,1003.941589 
	C327.717529,1003.757080 349.342133,1003.171997 370.969299,1003.069580 
	C382.048096,1003.017151 393.128815,1003.885925 404.211060,1003.954895 
	C427.900452,1004.102234 451.592102,1004.110779 475.281372,1003.955627 
	C488.076782,1003.871826 500.867493,1003.189209 513.663391,1003.038452 
	C527.915771,1002.870544 542.173157,1002.870789 556.425537,1003.038757 
	C568.976990,1003.186646 581.525146,1003.954956 594.073730,1003.929626 
	C611.125977,1003.895203 628.176514,1003.195007 645.229309,1003.115234 
	C655.059326,1003.069214 664.890991,1003.889221 674.724426,1003.957092 
	C695.243896,1004.098755 715.765076,1003.953369 736.285339,1004.011719 
	C762.700745,1004.086792 789.158447,1004.615540 815.301453,999.966736 
	C831.422058,997.100220 847.914062,995.033508 863.339050,989.901672 
	C879.131470,984.647583 894.020081,976.470093 908.909363,968.805115 
	C915.302307,965.513977 921.555420,961.066528 926.370544,955.777405 
	C936.686340,944.446045 947.341675,933.408142 954.898743,919.652832 
	C962.293884,906.192383 971.317078,893.703735 976.185181,878.843872 
	C981.848938,861.555054 986.035278,843.907043 986.789673,825.839233 
	C987.924622,798.657288 987.705322,771.417542 987.981079,744.201538 
	C988.095093,732.947327 988.000000,721.690979 988.000000,710.435608 
	C988.000000,695.681335 987.938293,680.926636 988.043762,666.173096 
	C988.069702,662.543762 988.953186,658.913635 988.899597,655.291931 
	C988.765808,646.239990 988.003418,637.190613 988.060059,628.143799 
	C988.223328,602.094727 988.876404,576.047852 988.932129,549.999268 
	C988.974976,529.949585 988.235229,509.899170 988.170166,489.848022 
	C988.129944,477.465179 988.912231,465.080750 988.933472,452.696320 
	C988.950439,442.812561 988.098022,432.926849 988.130127,423.043610 
	C988.174133,409.490417 988.968750,395.937958 988.933044,382.386536 
	C988.887451,365.092468 988.279724,347.800537 988.020996,330.506104 
	C987.872620,320.585663 988.035828,310.660431 987.878174,300.740234 
	C987.683960,288.519073 987.246582,276.301880 987.020020,264.081024 
	C986.866455,255.799850 987.752258,247.399658 986.654053,239.257584 
	C984.689026,224.688019 981.770569,210.234177 978.861145,195.810516 
	C977.491089,189.018387 976.081848,182.005920 973.187439,175.793564 
	C965.436462,159.157471 956.282410,143.361053 945.550781,128.291809 
	C935.415039,114.059280 922.518005,102.898087 909.172974,92.547684 
	C892.721802,79.787994 874.719543,69.042274 853.893921,63.999359 
	C837.044006,59.919174 820.653809,54.811821 802.775940,55.688511 
	C786.426208,56.490265 769.949951,54.604424 753.525330,54.020866 
	C741.282776,53.585888 729.033875,53.328373 716.787231,53.011204 
	C703.327209,52.662613 689.865417,52.018723 676.406494,52.069038 
	C651.612976,52.161732 626.821411,52.696327 602.028320,52.986244 
	C593.607178,53.084717 585.182800,52.915409 576.761719,53.016384 
	C552.880127,53.302746 529.000183,53.824261 505.118073,53.931080 
	C493.224854,53.984276 481.327423,53.029228 469.433777,53.070869 
	C451.306274,53.134331 433.181580,53.787941 415.053497,53.965057 
	C398.134155,54.130363 381.210938,53.892094 364.291351,54.045990 
	C355.403137,54.126827 346.517548,54.975838 337.633575,54.930336 
	C322.929993,54.855030 308.214264,53.776833 293.530212,54.154247 
	C276.970123,54.579884 260.445435,56.259888 243.892654,57.160892 
	C237.678772,57.499130 231.359161,56.576435 225.210388,57.288143 
	C212.063736,58.809837 199.047546,61.538994 185.885254,62.825428 
	C168.294678,64.544662 152.601349,71.597542 137.435120,79.617470 
	C125.469376,85.944969 114.505516,94.167130 102.541962,102.001724 
M992.459229,968.678162 
	C987.155396,965.134705 981.325562,962.155396 976.720886,957.862122 
	C973.287842,954.661255 971.439209,949.761292 968.582642,945.127563 
	C964.487183,956.783447 956.949097,964.820190 944.974304,969.244385 
	C957.409302,972.884338 964.579163,981.398193 968.258179,992.160217 
	C972.389160,986.657349 975.723145,981.042847 980.223328,976.613037 
	C983.503296,973.384338 988.321289,971.717896 992.459229,968.678162 
z"/>
<path fill="#E0E0E1" opacity="1.000000" stroke="none" 
	d="
M102.819328,101.774765 
	C114.505516,94.167130 125.469376,85.944969 137.435120,79.617470 
	C152.601349,71.597542 168.294678,64.544662 185.885254,62.825428 
	C199.047546,61.538994 212.063736,58.809837 225.210388,57.288143 
	C231.359161,56.576435 237.678772,57.499130 243.892654,57.160892 
	C260.445435,56.259888 276.970123,54.579884 293.530212,54.154247 
	C308.214264,53.776833 322.929993,54.855030 337.633575,54.930336 
	C346.517548,54.975838 355.403137,54.126827 364.291351,54.045990 
	C381.210938,53.892094 398.134155,54.130363 415.053497,53.965057 
	C433.181580,53.787941 451.306274,53.134331 469.433777,53.070869 
	C481.327423,53.029228 493.224854,53.984276 505.118073,53.931080 
	C529.000183,53.824261 552.880127,53.302746 576.761719,53.016384 
	C585.182800,52.915409 593.607178,53.084717 602.028320,52.986244 
	C626.821411,52.696327 651.612976,52.161732 676.406494,52.069038 
	C689.865417,52.018723 703.327209,52.662613 716.787231,53.011204 
	C729.033875,53.328373 741.282776,53.585888 753.525330,54.020866 
	C769.949951,54.604424 786.426208,56.490265 802.775940,55.688511 
	C820.653809,54.811821 837.044006,59.919174 853.893921,63.999359 
	C874.719543,69.042274 892.721802,79.787994 909.172974,92.547684 
	C922.518005,102.898087 935.415039,114.059280 945.550781,128.291809 
	C956.282410,143.361053 965.436462,159.157471 973.187439,175.793564 
	C976.081848,182.005920 977.491089,189.018387 978.861145,195.810516 
	C981.770569,210.234177 984.689026,224.688019 986.654053,239.257584 
	C987.752258,247.399658 986.866455,255.799850 987.020020,264.081024 
	C987.246582,276.301880 987.683960,288.519073 987.878174,300.740234 
	C988.035828,310.660431 987.872620,320.585663 988.020996,330.506104 
	C988.279724,347.800537 988.887451,365.092468 988.933044,382.386536 
	C988.968750,395.937958 988.174133,409.490417 988.130127,423.043610 
	C988.098022,432.926849 988.950439,442.812561 988.933472,452.696320 
	C988.912231,465.080750 988.129944,477.465179 988.170166,489.848022 
	C988.235229,509.899170 988.974976,529.949585 988.932129,549.999268 
	C988.876404,576.047852 988.223328,602.094727 988.060059,628.143799 
	C988.003418,637.190613 988.765808,646.239990 988.899597,655.291931 
	C988.953186,658.913635 988.069702,662.543762 988.043762,666.173096 
	C987.938293,680.926636 988.000000,695.681335 988.000000,710.435608 
	C988.000000,721.690979 988.095093,732.947327 987.981079,744.201538 
	C987.705322,771.417542 987.924622,798.657288 986.789673,825.839233 
	C986.035278,843.907043 981.848938,861.555054 976.185181,878.843872 
	C971.317078,893.703735 962.293884,906.192383 954.898743,919.652832 
	C947.341675,933.408142 936.686340,944.446045 926.370544,955.777405 
	C921.555420,961.066528 915.302307,965.513977 908.909363,968.805115 
	C894.020081,976.470093 879.131470,984.647583 863.339050,989.901672 
	C847.914062,995.033508 831.422058,997.100220 815.301453,999.966736 
	C789.158447,1004.615540 762.700745,1004.086792 736.285339,1004.011719 
	C715.765076,1003.953369 695.243896,1004.098755 674.724426,1003.957092 
	C664.890991,1003.889221 655.059326,1003.069214 645.229309,1003.115234 
	C628.176514,1003.195007 611.125977,1003.895203 594.073730,1003.929626 
	C581.525146,1003.954956 568.976990,1003.186646 556.425537,1003.038757 
	C542.173157,1002.870789 527.915771,1002.870544 513.663391,1003.038452 
	C500.867493,1003.189209 488.076782,1003.871826 475.281372,1003.955627 
	C451.592102,1004.110779 427.900452,1004.102234 404.211060,1003.954895 
	C393.128815,1003.885925 382.048096,1003.017151 370.969299,1003.069580 
	C349.342133,1003.171997 327.717529,1003.757080 306.090179,1003.941589 
	C300.132324,1003.992432 294.170380,1003.093323 288.206970,1003.045837 
	C271.620758,1002.913696 255.008026,1003.560730 238.452972,1002.830322 
	C224.086472,1002.196533 209.622467,1000.986816 195.498993,998.404785 
	C181.059845,995.765076 166.472672,992.440552 152.868652,987.083679 
	C133.344818,979.395630 114.068932,970.873474 99.074379,954.895569 
	C89.475639,944.667297 80.502945,934.209900 73.397263,922.107422 
	C68.532722,913.822083 62.628319,906.097900 58.312531,897.555176 
	C54.752476,890.508423 51.899254,882.812195 50.391964,875.080261 
	C47.039810,857.884583 44.130512,840.552734 42.192909,823.148071 
	C40.818672,810.803772 41.259609,798.251099 41.013916,785.789001 
	C40.621979,765.908691 40.246613,746.027283 40.028908,726.144592 
	C39.869591,711.594360 39.990875,697.041260 39.956844,682.489502 
	C39.927399,669.898499 39.916039,657.307068 39.788651,644.716858 
	C39.570271,623.133667 39.137180,601.551880 39.032906,579.968384 
	C38.898830,552.215332 39.000027,524.461060 39.000240,496.707336 
	C39.000336,484.163086 38.917206,471.618195 39.017872,459.074738 
	C39.305115,423.283081 39.701927,387.492340 39.982437,351.700623 
	C40.090229,337.946838 40.124344,324.189972 39.959351,310.437317 
	C39.836723,300.215973 38.905933,289.989655 39.129005,279.782898 
	C39.356819,269.359192 40.526794,258.954620 41.335720,248.545654 
	C41.835953,242.108856 42.637409,235.689301 42.945309,229.244888 
	C43.749111,212.421265 45.652794,195.646103 52.324272,180.161957 
	C59.448399,163.627213 67.405319,147.331223 76.508278,131.816757 
	C81.504486,123.301544 89.617149,116.616325 96.314453,109.096909 
	C98.407387,106.747070 100.467064,104.367622 102.819328,101.774765 
M849.210327,74.989525 
	C830.457397,69.068047 811.192871,67.893005 791.642639,67.907822 
	C608.048157,68.046967 424.453461,67.972420 240.858856,68.030754 
	C230.234375,68.034126 219.603836,68.520340 208.986969,69.014633 
	C184.625046,70.148842 162.741714,78.835655 142.122955,91.277092 
	C139.441605,92.895027 136.711288,94.431816 133.885239,95.373985 
	C133.231506,95.111961 132.362686,94.438240 131.956696,94.650368 
	C126.799881,97.344719 120.859932,99.267509 116.770317,103.133278 
	C106.696533,112.655678 96.693550,122.461487 88.102440,133.295502 
	C74.906273,149.936798 65.379509,168.839645 59.854710,189.429794 
	C56.642403,201.401627 53.853806,213.585968 52.210052,225.853622 
	C50.364895,239.624390 49.550777,253.582794 49.136429,267.484833 
	C48.417633,291.601562 48.201729,315.736938 48.077984,339.866058 
	C48.020306,351.112427 48.995491,362.363922 48.942596,373.610474 
	C48.764851,411.406036 48.267944,449.200073 48.056595,486.995575 
	C48.012081,494.955139 48.946980,502.919586 48.920113,510.880035 
	C48.885933,521.009338 48.089924,531.136292 48.062244,541.265503 
	C48.026089,554.498779 48.595852,567.733459 48.584278,580.967163 
	C48.570660,596.532654 48.053913,612.097961 48.065105,627.663086 
	C48.071831,637.018127 48.880413,646.370789 48.965656,655.727783 
	C49.378273,701.021851 49.973419,746.317810 49.866959,791.611572 
	C49.816811,812.946899 50.556229,834.123901 55.102291,854.999939 
	C58.398537,870.136597 62.704376,885.079956 70.805832,898.396179 
	C78.199951,910.549805 85.738762,922.808777 94.809547,933.691284 
	C102.904984,943.403687 112.455780,952.293335 122.676071,959.747559 
	C136.083252,969.526306 151.089294,976.850647 167.317978,981.259277 
	C177.395050,983.996887 187.234818,988.167786 197.475235,989.617188 
	C214.121231,991.973206 230.997894,993.612915 247.795807,993.790466 
	C281.916687,994.150940 316.049500,993.212158 350.178497,993.062317 
	C362.781464,993.006958 375.388641,993.970947 387.992004,993.927368 
	C407.954529,993.858337 427.914795,993.138916 447.877319,993.070190 
	C460.622437,993.026306 473.368927,993.858215 486.116638,993.920471 
	C494.831879,993.963013 503.549713,993.131775 512.267517,993.108215 
	C519.503235,993.088684 526.738831,993.893860 533.977600,993.953979 
	C550.568604,994.091736 567.161499,993.997498 583.753662,993.997498 
	C647.253296,993.997498 710.752930,993.997742 774.252563,993.997437 
	C793.533020,993.997314 812.655029,992.507629 831.670227,989.061401 
	C856.018433,984.648682 878.559082,975.829529 899.456238,962.711914 
	C911.377258,955.228882 921.372986,945.450439 930.471741,934.883423 
	C942.178528,921.287659 952.307495,906.498230 960.265015,890.367554 
	C972.147827,866.279846 977.170410,840.480225 977.908752,813.860474 
	C978.642395,787.409973 978.775513,760.940430 978.936279,734.477783 
	C978.991760,725.351807 978.062500,716.220947 978.080444,707.093323 
	C978.101379,696.464355 978.812378,685.838562 978.959167,675.207642 
	C979.125244,663.176392 979.110962,651.139587 978.954041,639.108032 
	C978.863220,632.143250 978.026611,625.182068 978.075073,618.223022 
	C978.160156,606.003601 978.985352,593.786011 978.944702,581.569519 
	C978.722473,514.774475 978.326965,447.980042 978.002686,381.185303 
	C977.965088,373.429016 978.006653,365.672363 977.998718,357.915894 
	C977.967957,327.659698 977.932617,297.403473 977.897217,267.147278 
	C977.893433,263.883331 978.112854,260.598328 977.822693,257.359467 
	C976.995667,248.130295 976.620972,238.791260 974.859985,229.730255 
	C971.674011,213.336334 968.298828,196.913071 963.645874,180.896194 
	C961.040527,171.927658 955.698120,163.756699 951.612610,155.215057 
	C945.080994,141.559433 935.648438,129.919464 925.382202,119.061523 
	C912.222351,105.143227 896.844360,93.960373 880.163269,84.464348 
	C871.835754,79.723717 863.385986,75.662170 853.909180,74.075394 
	C852.691284,73.871483 851.305237,74.671593 849.210327,74.989525 
z"/>
<path fill="#F4F4F4" opacity="1.000000" stroke="none" 
	d="
M992.456421,969.016602 
	C988.321289,971.717896 983.503296,973.384338 980.223328,976.613037 
	C975.723145,981.042847 972.389160,986.657349 968.258179,992.160217 
	C964.579163,981.398193 957.409302,972.884338 944.974304,969.244385 
	C956.949097,964.820190 964.487183,956.783447 968.582642,945.127563 
	C971.439209,949.761292 973.287842,954.661255 976.720886,957.862122 
	C981.325562,962.155396 987.155396,965.134705 992.456421,969.016602 
z"/>
<path fill="#F4F4F4" opacity="1.000000" stroke="none" 
	d="
M134.003662,96.006180 
	C136.711288,94.431816 139.441605,92.895027 142.122955,91.277092 
	C162.741714,78.835655 184.625046,70.148842 208.986969,69.014633 
	C219.603836,68.520340 230.234375,68.034126 240.858856,68.030754 
	C424.453461,67.972420 608.048157,68.046967 791.642639,67.907822 
	C811.192871,67.893005 830.457397,69.068047 849.933228,75.145966 
	C859.761902,79.325462 869.176086,82.777779 877.906799,87.495079 
	C894.110962,96.250374 908.041260,108.104973 920.210083,121.879219 
	C925.012268,127.314980 929.126587,133.407944 933.157043,139.465820 
	C941.495422,151.998627 947.441833,165.694321 952.020996,180.404327 
	C953.706604,190.542694 955.388367,200.280487 957.055786,210.444977 
	C957.362427,216.494736 957.962769,222.117706 957.963989,227.740829 
	C958.004333,416.594696 957.946472,605.448608 958.048767,794.302429 
	C958.058105,811.500061 956.395935,828.387451 952.026062,845.405762 
	C951.032043,848.577087 950.029236,851.346558 949.087341,854.136658 
	C942.102844,874.826721 930.669678,892.850525 915.756653,908.633606 
	C900.381226,924.906250 882.500488,937.690002 861.646118,946.197754 
	C847.086121,952.137634 831.992310,957.495361 816.455200,957.675232 
	C752.353455,958.417297 688.238281,957.929077 624.128540,958.085815 
	C566.324158,958.227112 508.520508,958.656433 450.716248,958.884399 
	C425.438538,958.984131 400.159546,959.006287 374.882172,958.869263 
	C344.797577,958.706238 314.714600,958.255737 284.630035,958.078430 
	C261.686615,957.943237 238.741608,958.097534 215.797714,958.011475 
	C201.685944,957.958496 188.060425,954.899292 174.830795,950.287842 
	C146.218185,940.314453 121.729454,924.143799 102.869453,900.228760 
	C90.899544,885.050537 80.431839,868.881531 74.992065,849.602600 
	C69.139496,829.239502 67.791229,808.847900 67.839348,788.102478 
	C68.103218,674.353455 67.973213,560.603455 67.958130,446.853790 
	C67.948006,370.577087 67.904076,294.300385 67.914619,217.568970 
	C68.959793,208.744751 69.965614,200.375214 70.998718,191.613861 
	C71.706940,188.664474 72.349533,186.095978 73.074722,183.551041 
	C80.370903,157.946198 92.504951,135.030075 111.471054,116.137177 
	C118.596153,109.039574 126.470757,102.694397 134.003662,96.006180 
M588.527771,482.043243 
	C583.177307,483.547791 585.033752,488.465668 584.435120,491.766052 
	C581.567261,507.576416 593.371704,522.614075 609.230103,521.968628 
	C612.863586,521.820740 616.482727,521.320740 619.976624,521.682556 
	C595.045776,570.208679 540.844788,596.312195 487.915924,584.864807 
	C433.546417,573.105835 395.624390,526.615051 394.263000,473.987762 
	C395.275726,472.829529 396.736420,471.833130 397.223450,470.485016 
	C399.305664,464.721069 400.931396,458.791595 403.033569,453.035645 
	C408.364227,438.439911 415.500336,424.900177 426.121735,413.320740 
	C436.479889,402.028320 449.097565,393.916138 462.168457,386.245422 
	C465.866241,384.075378 469.611359,380.869659 471.617981,377.200104 
	C474.509064,371.913177 476.372742,365.881134 477.610107,359.945129 
	C478.299438,356.638519 480.245697,351.745667 474.293976,349.035248 
	C474.293976,336.914215 474.293976,324.793152 474.293976,312.292236 
	C472.316071,312.746429 471.028229,312.957611 469.792572,313.338074 
	C424.850189,327.175201 391.251526,354.721497 369.750092,396.636932 
	C358.122223,419.304596 353.346649,443.670441 352.258453,469.165527 
	C351.514862,470.556274 350.400452,471.868286 350.085754,473.350098 
	C347.328735,486.332886 348.133209,499.285492 349.862213,512.375793 
	C352.653412,533.508240 358.206177,553.793152 367.989990,572.669067 
	C377.855316,591.702332 390.968781,608.360657 407.625946,622.095276 
	C417.511047,630.245972 427.474243,638.291138 439.250702,643.573975 
	C456.151947,651.155762 473.725922,656.398438 492.274689,658.085205 
	C511.555786,659.838562 530.677063,659.689026 549.705872,655.314941 
	C573.093750,649.938904 594.320923,640.176575 613.064331,625.222107 
	C619.410767,620.158569 625.796204,614.952209 631.209534,608.950378 
	C642.905762,595.982727 652.894836,581.705505 660.610962,565.964233 
	C665.510193,555.969543 670.131287,545.858093 671.028137,534.512695 
	C671.498352,528.564758 674.800171,524.847351 680.567200,524.138672 
	C685.496887,523.532837 690.522156,523.643799 695.426331,522.910278 
	C699.791077,522.257446 704.345581,521.524231 708.292542,519.695923 
	C717.696594,515.339722 725.650574,499.943634 723.552429,489.895630 
	C722.874146,486.647308 722.071472,481.937805 716.858704,481.150757 
	C722.610413,466.243011 712.399963,451.534607 695.784119,452.598267 
	C686.519836,453.191345 677.177185,452.560059 668.009033,451.634003 
	C671.302734,446.308777 669.886963,440.691376 669.029907,434.250519 
	C668.776733,432.613434 668.667908,430.938446 668.249512,429.344727 
	C655.485046,380.721741 626.398560,345.312225 581.430725,323.114655 
	C572.286133,318.600616 562.362854,315.664185 551.613647,311.546631 
	C551.613647,325.061951 551.613647,337.013275 550.941467,349.127472 
	C550.078796,351.947510 548.317139,354.849457 548.564880,357.568359 
	C548.933838,361.617889 551.089844,365.471893 551.820007,369.528839 
	C552.950623,375.810760 555.972290,380.686249 561.244995,384.107391 
	C567.772339,388.342499 574.943054,391.761719 580.884216,396.682465 
	C589.264465,403.623444 596.919739,411.471100 604.615112,419.199860 
	C613.941467,428.566681 619.255737,440.395081 623.270752,452.617554 
	C617.815491,452.669708 612.357605,452.632690 606.905396,452.791107 
	C592.025146,453.223389 582.962769,468.275604 588.527771,482.043243 
M533.157654,399.043488 
	C533.147705,358.106537 533.149719,317.169525 533.090637,276.232666 
	C533.087769,274.269318 532.797485,272.227722 532.211487,270.357178 
	C529.350159,261.223572 519.685181,254.952530 510.612579,256.189880 
	C500.078125,257.626617 492.794342,265.602234 492.783234,276.222198 
	C492.740051,317.491913 492.816467,358.761749 492.265533,400.378174 
	C491.235901,402.194000 489.207642,404.096710 489.356720,405.809967 
	C489.883728,411.866516 490.539612,418.045044 492.293304,423.829712 
	C494.778625,432.027740 500.139923,438.415039 509.000366,439.807526 
	C518.296082,441.268463 527.222229,439.050537 531.273621,429.705688 
	C534.300232,422.724640 535.537109,414.859039 536.718445,407.254822 
	C537.058655,405.065033 534.441895,402.415863 533.157654,399.043488 
M492.378998,807.019836 
	C495.700500,805.105408 499.022034,803.190918 502.607697,801.124207 
	C502.607697,803.409058 502.680969,805.555420 502.592743,807.695068 
	C502.398468,812.407104 500.573059,816.167542 495.843964,817.766968 
	C490.718628,819.500366 485.049622,820.118591 481.368317,815.783020 
	C477.833405,811.619629 474.329773,812.914978 470.066803,813.259583 
	C471.519196,818.211365 474.100159,822.080505 478.638092,823.327271 
	C483.670898,824.710083 489.095642,825.797302 494.236298,825.429321 
	C506.244781,824.569702 511.735474,818.233337 511.878448,806.161804 
	C512.028381,793.500366 511.934540,780.835999 511.946686,768.172913 
	C511.948364,766.418762 511.946899,764.664551 511.946899,762.916138 
	C508.514374,762.916138 505.780914,762.916138 502.962524,762.916138 
	C502.776825,765.215515 502.620087,767.156006 502.421295,769.617004 
	C501.556824,768.883789 501.043274,768.540894 500.643768,768.095764 
	C491.851349,758.299011 477.287048,760.130371 471.172943,771.959595 
	C468.004547,778.089600 467.528870,784.702698 468.869263,791.435669 
	C471.134521,802.815002 479.975616,808.928955 492.378998,807.019836 
M554.553040,807.110107 
	C565.687256,800.462219 569.682495,785.073364 563.426697,772.930542 
	C556.376404,759.245605 535.487000,757.736572 526.519409,770.264404 
	C520.416321,778.790527 520.485046,793.059265 526.669006,801.344727 
	C532.411011,809.037903 542.722046,811.341003 554.553040,807.110107 
M422.613525,768.131836 
	C415.485809,776.666077 414.960541,786.333191 418.391937,796.312256 
	C420.928406,803.688904 426.633240,807.802612 434.326111,809.019470 
	C450.605316,811.594421 461.744751,800.488342 460.399353,782.979980 
	C459.729370,774.261108 456.295593,766.896179 447.795135,763.611328 
	C439.072571,760.240662 430.467926,760.903687 422.613525,768.131836 
M579.167725,803.252136 
	C586.050537,811.022949 592.270203,811.030701 606.283264,803.152588 
	C606.596863,804.899109 606.894287,806.555359 607.135925,807.901062 
	C610.272095,807.901062 612.997253,807.901062 615.330811,807.901062 
	C615.330811,792.611511 615.330811,777.734863 615.330811,762.945557 
	C612.066345,762.945557 609.325989,762.945557 606.392273,762.945557 
	C606.392273,765.165710 606.405151,766.987244 606.389954,768.808472 
	C606.330200,775.960693 606.493530,783.124695 606.129883,790.261719 
	C605.778809,797.152161 601.638184,800.968201 595.391663,800.869995 
	C589.164978,800.772156 585.949097,797.292969 585.613892,790.134705 
	C585.481689,787.312317 585.556702,784.479675 585.553894,781.651733 
	C585.547668,775.398193 585.551941,769.144714 585.551941,762.861816 
	C582.112244,762.861816 579.362488,762.861816 576.669495,762.861816 
	C576.669495,774.143005 576.553772,785.088013 576.766296,796.026672 
	C576.809204,798.233582 578.095276,800.416382 579.167725,803.252136 
M402.392212,799.991150 
	C395.137024,799.991150 387.881836,799.991150 380.173645,799.991150 
	C380.173645,781.905762 380.173645,764.490784 380.173645,747.104980 
	C376.807312,747.104980 373.932404,747.104980 371.076050,747.104980 
	C371.076050,767.763000 371.076050,788.035950 371.076050,808.235474 
	C384.202789,808.235474 397.075928,808.235474 409.971619,808.235474 
	C409.971619,805.339478 409.971619,802.878784 409.971619,799.990295 
	C407.607513,799.990295 405.478699,799.990295 402.392212,799.991150 
M631.005432,791.445740 
	C631.016479,792.942139 631.011353,794.438782 631.041016,795.934814 
	C631.257935,806.867126 639.392944,811.927368 650.076965,807.517700 
	C649.792053,805.335632 649.498291,803.085449 649.178589,800.636780 
	C645.216370,800.798340 641.057800,800.821716 640.824402,796.147156 
	C640.404602,787.737244 640.705811,779.291321 640.705811,770.600708 
	C643.795959,770.399902 646.553955,770.220642 649.394409,770.036072 
	C649.394409,767.577393 649.394409,765.352112 649.394409,762.765381 
	C646.470947,762.765381 643.856689,762.765381 640.574585,762.765381 
	C640.574585,758.708923 640.574585,755.000305 640.574585,751.364319 
	C637.006775,751.364319 634.120178,751.364319 630.748047,751.364319 
	C630.748047,755.288696 630.748047,758.869629 630.748047,762.564392 
	C628.492554,762.703369 626.725464,762.812256 624.844177,762.928223 
	C624.844177,765.454834 624.844177,767.697937 624.844177,770.060242 
	C626.977966,770.267822 628.866577,770.451477 631.001343,770.659119 
	C631.001343,777.516052 631.001343,783.988892 631.005432,791.445740 
z"/>
<path fill="#D9D9DA" opacity="1.000000" stroke="none" 
	d="
M133.944458,95.690079 
	C126.470757,102.694397 118.596153,109.039574 111.471054,116.137177 
	C92.504951,135.030075 80.370903,157.946198 73.074722,183.551041 
	C72.349533,186.095978 71.706940,188.664474 70.625198,191.626556 
	C69.429321,192.727783 68.150970,193.289597 67.913109,194.141830 
	C65.192413,203.889496 61.465961,213.543457 60.287388,223.492477 
	C58.320694,240.094330 57.651554,256.880615 57.099865,273.611176 
	C56.485798,292.233185 56.465309,310.879639 56.461395,329.515503 
	C56.457645,347.371948 56.878815,365.228027 56.979523,383.085022 
	C57.075886,400.171906 57.000248,417.259796 57.000160,434.347229 
	C57.000076,450.267303 57.125084,466.188721 56.959084,482.107056 
	C56.832607,494.235779 56.165604,506.359344 56.073586,518.487732 
	C56.023323,525.112244 56.993301,531.744568 56.940090,538.368835 
	C56.766987,559.917908 56.282139,581.464294 56.023785,603.012939 
	C55.895748,613.692261 55.875992,624.376404 56.041691,635.054626 
	C56.162678,642.851807 56.932861,650.642334 56.954464,658.437073 
	C57.056316,695.187744 56.909580,731.939270 57.045326,768.689758 
	C57.097878,782.916870 57.679867,797.141724 57.989479,811.368225 
	C58.503670,834.994690 62.870377,857.767273 71.960274,879.701111 
	C79.140862,897.027771 88.101311,913.140259 100.657158,927.143005 
	C115.368393,943.549622 132.208420,957.384888 152.542450,966.011475 
	C164.674774,971.158508 177.594818,974.541077 190.308411,978.204346 
	C209.572021,983.754944 229.469818,984.574524 249.345688,984.941650 
	C265.045197,985.231567 280.754303,985.000000 296.459167,985.000000 
	C309.879852,985.000000 323.301849,985.113586 336.720673,984.955933 
	C344.350769,984.866394 351.976715,984.044495 359.602600,984.072327 
	C369.373627,984.107971 379.144592,984.990479 388.912323,984.934937 
	C411.705170,984.805420 434.496277,984.053223 457.287659,984.072754 
	C484.171143,984.095825 511.053314,984.783020 537.937561,984.965454 
	C562.099609,985.129456 586.263916,984.929016 610.426453,985.045349 
	C617.221924,985.078064 624.016968,985.971741 630.808228,985.922852 
	C642.858704,985.836060 654.906128,985.072205 666.954895,985.069031 
	C680.367920,985.065430 693.781860,985.869202 707.193970,985.829590 
	C728.654175,985.766235 750.112549,985.232239 771.572876,985.021423 
	C787.671936,984.863281 803.755676,985.292419 819.714111,982.097107 
	C834.339539,979.168762 849.128601,977.294250 863.023132,971.226074 
	C882.222839,962.841003 899.712952,951.985535 914.927673,937.557129 
	C928.215942,924.955688 937.891724,909.614319 947.359009,894.165466 
	C955.225159,881.329407 961.827026,867.636658 964.534424,852.908081 
	C967.518494,836.674500 968.801270,820.064026 969.843323,803.555786 
	C970.869080,787.306763 970.910828,770.980713 970.953796,754.687317 
	C971.082275,705.935974 971.112671,657.183655 970.975281,608.432312 
	C970.729614,521.215820 970.330566,433.999756 970.004211,346.783478 
	C969.972412,338.284851 970.048706,329.785553 969.971008,321.287537 
	C969.946960,318.658783 969.376221,316.030853 969.405884,313.406525 
	C969.500977,305.000031 970.103760,296.586029 969.875488,288.192200 
	C969.532959,275.595703 968.818237,263.002289 967.944275,250.429642 
	C967.313477,241.355301 966.849915,232.181412 965.088684,223.294312 
	C962.482849,210.146210 958.873108,197.191818 955.459534,184.215790 
	C955.039734,182.620346 953.199158,181.398666 952.017029,180.003769 
	C947.441833,165.694321 941.495422,151.998627 933.157043,139.465820 
	C929.126587,133.407944 925.012268,127.314980 920.210083,121.879219 
	C908.041260,108.104973 894.110962,96.250374 877.906799,87.495079 
	C869.176086,82.777779 859.761902,79.325462 850.326599,75.154495 
	C851.305237,74.671593 852.691284,73.871483 853.909180,74.075394 
	C863.385986,75.662170 871.835754,79.723717 880.163269,84.464348 
	C896.844360,93.960373 912.222351,105.143227 925.382202,119.061523 
	C935.648438,129.919464 945.080994,141.559433 951.612610,155.215057 
	C955.698120,163.756699 961.040527,171.927658 963.645874,180.896194 
	C968.298828,196.913071 971.674011,213.336334 974.859985,229.730255 
	C976.620972,238.791260 976.995667,248.130295 977.822693,257.359467 
	C978.112854,260.598328 977.893433,263.883331 977.897217,267.147278 
	C977.932617,297.403473 977.967957,327.659698 977.998718,357.915894 
	C978.006653,365.672363 977.965088,373.429016 978.002686,381.185303 
	C978.326965,447.980042 978.722473,514.774475 978.944702,581.569519 
	C978.985352,593.786011 978.160156,606.003601 978.075073,618.223022 
	C978.026611,625.182068 978.863220,632.143250 978.954041,639.108032 
	C979.110962,651.139587 979.125244,663.176392 978.959167,675.207642 
	C978.812378,685.838562 978.101379,696.464355 978.080444,707.093323 
	C978.062500,716.220947 978.991760,725.351807 978.936279,734.477783 
	C978.775513,760.940430 978.642395,787.409973 977.908752,813.860474 
	C977.170410,840.480225 972.147827,866.279846 960.265015,890.367554 
	C952.307495,906.498230 942.178528,921.287659 930.471741,934.883423 
	C921.372986,945.450439 911.377258,955.228882 899.456238,962.711914 
	C878.559082,975.829529 856.018433,984.648682 831.670227,989.061401 
	C812.655029,992.507629 793.533020,993.997314 774.252563,993.997437 
	C710.752930,993.997742 647.253296,993.997498 583.753662,993.997498 
	C567.161499,993.997498 550.568604,994.091736 533.977600,993.953979 
	C526.738831,993.893860 519.503235,993.088684 512.267517,993.108215 
	C503.549713,993.131775 494.831879,993.963013 486.116638,993.920471 
	C473.368927,993.858215 460.622437,993.026306 447.877319,993.070190 
	C427.914795,993.138916 407.954529,993.858337 387.992004,993.927368 
	C375.388641,993.970947 362.781464,993.006958 350.178497,993.062317 
	C316.049500,993.212158 281.916687,994.150940 247.795807,993.790466 
	C230.997894,993.612915 214.121231,991.973206 197.475235,989.617188 
	C187.234818,988.167786 177.395050,983.996887 167.317978,981.259277 
	C151.089294,976.850647 136.083252,969.526306 122.676071,959.747559 
	C112.455780,952.293335 102.904984,943.403687 94.809547,933.691284 
	C85.738762,922.808777 78.199951,910.549805 70.805832,898.396179 
	C62.704376,885.079956 58.398537,870.136597 55.102291,854.999939 
	C50.556229,834.123901 49.816811,812.946899 49.866959,791.611572 
	C49.973419,746.317810 49.378273,701.021851 48.965656,655.727783 
	C48.880413,646.370789 48.071831,637.018127 48.065105,627.663086 
	C48.053913,612.097961 48.570660,596.532654 48.584278,580.967163 
	C48.595852,567.733459 48.026089,554.498779 48.062244,541.265503 
	C48.089924,531.136292 48.885933,521.009338 48.920113,510.880035 
	C48.946980,502.919586 48.012081,494.955139 48.056595,486.995575 
	C48.267944,449.200073 48.764851,411.406036 48.942596,373.610474 
	C48.995491,362.363922 48.020306,351.112427 48.077984,339.866058 
	C48.201729,315.736938 48.417633,291.601562 49.136429,267.484833 
	C49.550777,253.582794 50.364895,239.624390 52.210052,225.853622 
	C53.853806,213.585968 56.642403,201.401627 59.854710,189.429794 
	C65.379509,168.839645 74.906273,149.936798 88.102440,133.295502 
	C96.693550,122.461487 106.696533,112.655678 116.770317,103.133278 
	C120.859932,99.267509 126.799881,97.344719 131.956696,94.650368 
	C132.362686,94.438240 133.231506,95.111961 133.944458,95.690079 
z"/>
<path fill="#1E8CDB" opacity="1.000000" stroke="none" 
	d="
M393.448639,474.061432 
	C395.624390,526.615051 433.546417,573.105835 487.915924,584.864807 
	C540.844788,596.312195 595.045776,570.208679 620.298340,521.103882 
	C622.121033,517.029419 623.622009,513.533691 625.462891,510.034607 
	C627.146790,509.913025 628.490723,509.794830 630.232910,509.785278 
	C641.087097,509.934692 651.543518,509.932007 661.998352,510.059509 
	C663.716492,510.080444 665.427673,510.673309 667.008057,511.356079 
	C664.768982,517.755066 662.663879,523.799805 660.331055,530.092285 
	C653.186584,542.116455 646.269836,553.892822 639.095886,565.842224 
	C632.635620,572.515625 626.779907,579.394470 620.175049,585.457153 
	C563.282837,637.680176 475.076111,640.818237 414.395142,592.982788 
	C413.144318,591.996704 411.553192,591.442200 409.968048,590.395752 
	C409.116852,589.192566 408.556396,588.116882 407.699341,587.391907 
	C395.282959,576.888916 385.350861,564.239136 376.032410,550.636597 
	C373.049133,545.480713 370.137451,540.679138 367.201904,535.496826 
	C365.920563,531.874268 364.663055,528.632568 363.425995,525.020386 
	C356.778625,506.699677 353.661102,488.082306 352.991302,469.005035 
	C353.346649,443.670441 358.122223,419.304596 369.750092,396.636932 
	C391.251526,354.721497 424.850189,327.175201 469.792572,313.338074 
	C471.028229,312.957611 472.316071,312.746429 474.293976,312.292236 
	C474.293976,324.793152 474.293976,336.914215 474.273438,349.884613 
	C474.167480,351.822296 474.082092,352.910645 473.641663,354.078125 
	C470.479675,355.315094 467.672760,356.472900 464.508911,357.730469 
	C455.538422,363.085968 446.310181,367.558746 438.428864,373.746979 
	C416.425659,391.023346 401.978699,413.385864 396.022705,441.381866 
	C395.084869,447.845825 394.290161,453.931976 393.380066,460.465454 
	C393.325989,465.295654 393.387299,469.678558 393.448639,474.061432 
z"/>
<path fill="#D1D1D2" opacity="1.000000" stroke="none" 
	d="
M952.045471,845.013489 
	C956.395935,828.387451 958.058105,811.500061 958.048767,794.302429 
	C957.946472,605.448608 958.004333,416.594696 957.963989,227.740829 
	C957.962769,222.117706 957.362427,216.494736 957.419861,210.501648 
	C958.534851,211.290176 959.714355,212.370972 959.933594,213.620300 
	C961.075256,220.124832 962.448669,226.642059 962.865662,233.210449 
	C964.127258,253.079071 965.384766,272.963226 965.888184,292.860443 
	C966.396179,312.939423 965.871521,333.042297 966.039429,353.132721 
	C966.181152,370.095673 966.886230,387.054840 966.954651,404.017242 
	C967.101990,440.530945 966.900452,477.045990 967.045288,513.559692 
	C967.110291,529.946167 967.844849,546.329895 967.927368,562.716614 
	C967.975281,572.226807 967.015503,581.742249 967.067566,591.252319 
	C967.167847,609.548218 967.726257,627.841125 967.973267,646.136902 
	C968.108887,656.178040 968.011719,666.222595 967.993469,676.265564 
	C967.968384,690.021179 968.017212,703.778076 967.846191,717.532043 
	C967.721619,727.550476 967.075745,737.564819 967.067139,747.581360 
	C967.059875,755.964355 968.155762,764.366699 967.850586,772.727173 
	C967.221741,789.957764 966.417908,807.205994 964.842651,824.369507 
	C963.802185,835.706177 962.301880,847.199829 959.151917,858.086365 
	C956.137451,868.504639 951.412048,878.600403 946.231079,888.185181 
	C933.391663,911.937927 917.068787,932.697937 894.925964,948.956726 
	C869.428101,967.679016 840.531982,976.192749 809.903625,979.780090 
	C796.364563,981.365906 782.558716,980.726196 768.871887,980.985291 
	C748.291504,981.374878 727.710327,981.777466 707.127502,981.966125 
	C689.420044,982.128418 671.708740,982.125793 654.001282,981.966370 
	C632.205994,981.770142 610.413513,981.286133 588.618591,981.025635 
	C578.111145,980.900024 567.600952,981.000610 557.092041,981.000183 
	C539.019775,980.999512 520.947449,981.000000 502.875153,981.000000 
	C469.452667,981.000000 436.030212,981.000000 402.607727,981.000000 
	C367.399139,981.000000 332.189972,981.121216 296.982117,980.957581 
	C273.353333,980.847778 249.698181,980.916077 226.109848,979.771118 
	C213.115875,979.140442 200.067993,976.918030 187.342758,974.077026 
	C167.573257,969.663269 149.320267,961.470154 132.387100,950.062744 
	C109.773216,934.828186 92.538223,915.038269 80.522224,890.788208 
	C73.066940,875.742371 66.875160,860.114685 64.840416,843.200317 
	C63.239799,829.894836 61.067749,816.629272 60.166561,803.277283 
	C59.376507,791.571899 60.000710,779.771118 60.000538,768.012451 
	C60.000393,757.796509 60.000793,747.580627 60.000816,737.364685 
	C60.000896,698.990417 60.000919,660.616211 60.000973,622.241943 
	C60.000996,604.485901 60.001244,586.729919 60.001007,568.973877 
	C60.000763,550.706726 59.875004,532.438599 60.030010,514.172729 
	C60.241837,489.210602 60.934624,464.250153 60.927742,439.289124 
	C60.920460,412.874390 59.979797,386.458344 60.086323,360.045471 
	C60.237263,322.618561 58.607426,285.153198 61.988354,247.776779 
	C62.758396,239.263901 63.174458,230.714310 64.173866,222.231171 
	C64.353722,220.704514 66.588989,219.419998 67.875275,218.023682 
	C67.904076,294.300385 67.948006,370.577087 67.958130,446.853790 
	C67.973213,560.603455 68.103218,674.353455 67.839348,788.102478 
	C67.791229,808.847900 69.139496,829.239502 74.646057,849.677979 
	C73.987274,850.973572 73.194595,851.972412 73.425041,852.588562 
	C77.943832,864.670471 81.736275,877.128662 87.457069,888.624146 
	C92.212814,898.180481 98.941307,906.834656 105.362793,915.466797 
	C121.029480,936.526550 142.649109,949.845337 166.325134,959.734192 
	C180.384048,965.606262 195.347397,969.108887 210.720474,970.156494 
	C227.246231,971.282593 243.753052,972.996765 260.296265,973.469299 
	C276.924011,973.944153 293.587524,972.968201 310.233307,973.049622 
	C344.849701,973.218811 379.464264,973.750427 414.080627,973.942444 
	C422.997131,973.991943 431.918427,973.036194 440.835938,973.063354 
	C458.127899,973.115906 475.418243,973.689697 492.710327,973.751038 
	C503.186279,973.788208 513.665466,973.011353 524.140930,973.064453 
	C537.598938,973.132629 551.053284,973.856323 564.511536,973.942261 
	C576.082947,974.016174 587.657654,973.419617 599.230591,973.431641 
	C612.876709,973.445801 626.521912,973.895630 640.168579,973.975098 
	C657.762329,974.077515 675.358215,974.125000 692.951172,973.969421 
	C716.738403,973.759155 740.523438,973.299927 764.310242,973.017151 
	C773.228394,972.911133 782.185059,973.507324 791.059082,972.872925 
	C802.431458,972.059814 813.841125,970.898193 825.051758,968.873718 
	C848.634033,964.615295 871.248718,957.531006 890.389221,942.292664 
	C898.554077,935.792542 907.319275,929.667480 914.071960,921.866089 
	C923.041077,911.503906 930.482239,899.787842 938.260986,888.434998 
	C946.531616,876.364258 952.293152,863.204102 953.618591,848.436096 
	C953.716003,847.351013 952.598267,846.156921 952.045471,845.013489 
z"/>
<path fill="#CBCCCD" opacity="1.000000" stroke="none" 
	d="
M952.026062,845.405762 
	C952.598267,846.156921 953.716003,847.351013 953.618591,848.436096 
	C952.293152,863.204102 946.531616,876.364258 938.260986,888.434998 
	C930.482239,899.787842 923.041077,911.503906 914.071960,921.866089 
	C907.319275,929.667480 898.554077,935.792542 890.389221,942.292664 
	C871.248718,957.531006 848.634033,964.615295 825.051758,968.873718 
	C813.841125,970.898193 802.431458,972.059814 791.059082,972.872925 
	C782.185059,973.507324 773.228394,972.911133 764.310242,973.017151 
	C740.523438,973.299927 716.738403,973.759155 692.951172,973.969421 
	C675.358215,974.125000 657.762329,974.077515 640.168579,973.975098 
	C626.521912,973.895630 612.876709,973.445801 599.230591,973.431641 
	C587.657654,973.419617 576.082947,974.016174 564.511536,973.942261 
	C551.053284,973.856323 537.598938,973.132629 524.140930,973.064453 
	C513.665466,973.011353 503.186279,973.788208 492.710327,973.751038 
	C475.418243,973.689697 458.127899,973.115906 440.835938,973.063354 
	C431.918427,973.036194 422.997131,973.991943 414.080627,973.942444 
	C379.464264,973.750427 344.849701,973.218811 310.233307,973.049622 
	C293.587524,972.968201 276.924011,973.944153 260.296265,973.469299 
	C243.753052,972.996765 227.246231,971.282593 210.720474,970.156494 
	C195.347397,969.108887 180.384048,965.606262 166.325134,959.734192 
	C142.649109,949.845337 121.029480,936.526550 105.362793,915.466797 
	C98.941307,906.834656 92.212814,898.180481 87.457069,888.624146 
	C81.736275,877.128662 77.943832,864.670471 73.425041,852.588562 
	C73.194595,851.972412 73.987274,850.973572 74.649582,850.077515 
	C80.431839,868.881531 90.899544,885.050537 102.869453,900.228760 
	C121.729454,924.143799 146.218185,940.314453 174.830795,950.287842 
	C188.060425,954.899292 201.685944,957.958496 215.797714,958.011475 
	C238.741608,958.097534 261.686615,957.943237 284.630035,958.078430 
	C314.714600,958.255737 344.797577,958.706238 374.882172,958.869263 
	C400.159546,959.006287 425.438538,958.984131 450.716248,958.884399 
	C508.520508,958.656433 566.324158,958.227112 624.128540,958.085815 
	C688.238281,957.929077 752.353455,958.417297 816.455200,957.675232 
	C831.992310,957.495361 847.086121,952.137634 861.646118,946.197754 
	C882.500488,937.690002 900.381226,924.906250 915.756653,908.633606 
	C930.669678,892.850525 942.102844,874.826721 949.087341,854.136658 
	C950.029236,851.346558 951.032043,848.577087 952.026062,845.405762 
z"/>
<path fill="#D6D6D7" opacity="1.000000" stroke="none" 
	d="
M67.914619,217.568970 
	C66.588989,219.419998 64.353722,220.704514 64.173866,222.231171 
	C63.174458,230.714310 62.758396,239.263901 61.988354,247.776779 
	C58.607426,285.153198 60.237263,322.618561 60.086323,360.045471 
	C59.979797,386.458344 60.920460,412.874390 60.927742,439.289124 
	C60.934624,464.250153 60.241837,489.210602 60.030010,514.172729 
	C59.875004,532.438599 60.000763,550.706726 60.001007,568.973877 
	C60.001244,586.729919 60.000996,604.485901 60.000973,622.241943 
	C60.000919,660.616211 60.000896,698.990417 60.000816,737.364685 
	C60.000793,747.580627 60.000393,757.796509 60.000538,768.012451 
	C60.000710,779.771118 59.376507,791.571899 60.166561,803.277283 
	C61.067749,816.629272 63.239799,829.894836 64.840416,843.200317 
	C66.875160,860.114685 73.066940,875.742371 80.522224,890.788208 
	C92.538223,915.038269 109.773216,934.828186 132.387100,950.062744 
	C149.320267,961.470154 167.573257,969.663269 187.342758,974.077026 
	C200.067993,976.918030 213.115875,979.140442 226.109848,979.771118 
	C249.698181,980.916077 273.353333,980.847778 296.982117,980.957581 
	C332.189972,981.121216 367.399139,981.000000 402.607727,981.000000 
	C436.030212,981.000000 469.452667,981.000000 502.875153,981.000000 
	C520.947449,981.000000 539.019775,980.999512 557.092041,981.000183 
	C567.600952,981.000610 578.111145,980.900024 588.618591,981.025635 
	C610.413513,981.286133 632.205994,981.770142 654.001282,981.966370 
	C671.708740,982.125793 689.420044,982.128418 707.127502,981.966125 
	C727.710327,981.777466 748.291504,981.374878 768.871887,980.985291 
	C782.558716,980.726196 796.364563,981.365906 809.903625,979.780090 
	C840.531982,976.192749 869.428101,967.679016 894.925964,948.956726 
	C917.068787,932.697937 933.391663,911.937927 946.231079,888.185181 
	C951.412048,878.600403 956.137451,868.504639 959.151917,858.086365 
	C962.301880,847.199829 963.802185,835.706177 964.842651,824.369507 
	C966.417908,807.205994 967.221741,789.957764 967.850586,772.727173 
	C968.155762,764.366699 967.059875,755.964355 967.067139,747.581360 
	C967.075745,737.564819 967.721619,727.550476 967.846191,717.532043 
	C968.017212,703.778076 967.968384,690.021179 967.993469,676.265564 
	C968.011719,666.222595 968.108887,656.178040 967.973267,646.136902 
	C967.726257,627.841125 967.167847,609.548218 967.067566,591.252319 
	C967.015503,581.742249 967.975281,572.226807 967.927368,562.716614 
	C967.844849,546.329895 967.110291,529.946167 967.045288,513.559692 
	C966.900452,477.045990 967.101990,440.530945 966.954651,404.017242 
	C966.886230,387.054840 966.181152,370.095673 966.039429,353.132721 
	C965.871521,333.042297 966.396179,312.939423 965.888184,292.860443 
	C965.384766,272.963226 964.127258,253.079071 962.865662,233.210449 
	C962.448669,226.642059 961.075256,220.124832 959.933594,213.620300 
	C959.714355,212.370972 958.534851,211.290176 957.434204,210.074951 
	C955.388367,200.280487 953.706604,190.542694 952.020996,180.404327 
	C953.199158,181.398666 955.039734,182.620346 955.459534,184.215790 
	C958.873108,197.191818 962.482849,210.146210 965.088684,223.294312 
	C966.849915,232.181412 967.313477,241.355301 967.944275,250.429642 
	C968.818237,263.002289 969.532959,275.595703 969.875488,288.192200 
	C970.103760,296.586029 969.500977,305.000031 969.405884,313.406525 
	C969.376221,316.030853 969.946960,318.658783 969.971008,321.287537 
	C970.048706,329.785553 969.972412,338.284851 970.004211,346.783478 
	C970.330566,433.999756 970.729614,521.215820 970.975281,608.432312 
	C971.112671,657.183655 971.082275,705.935974 970.953796,754.687317 
	C970.910828,770.980713 970.869080,787.306763 969.843323,803.555786 
	C968.801270,820.064026 967.518494,836.674500 964.534424,852.908081 
	C961.827026,867.636658 955.225159,881.329407 947.359009,894.165466 
	C937.891724,909.614319 928.215942,924.955688 914.927673,937.557129 
	C899.712952,951.985535 882.222839,962.841003 863.023132,971.226074 
	C849.128601,977.294250 834.339539,979.168762 819.714111,982.097107 
	C803.755676,985.292419 787.671936,984.863281 771.572876,985.021423 
	C750.112549,985.232239 728.654175,985.766235 707.193970,985.829590 
	C693.781860,985.869202 680.367920,985.065430 666.954895,985.069031 
	C654.906128,985.072205 642.858704,985.836060 630.808228,985.922852 
	C624.016968,985.971741 617.221924,985.078064 610.426453,985.045349 
	C586.263916,984.929016 562.099609,985.129456 537.937561,984.965454 
	C511.053314,984.783020 484.171143,984.095825 457.287659,984.072754 
	C434.496277,984.053223 411.705170,984.805420 388.912323,984.934937 
	C379.144592,984.990479 369.373627,984.107971 359.602600,984.072327 
	C351.976715,984.044495 344.350769,984.866394 336.720673,984.955933 
	C323.301849,985.113586 309.879852,985.000000 296.459167,985.000000 
	C280.754303,985.000000 265.045197,985.231567 249.345688,984.941650 
	C229.469818,984.574524 209.572021,983.754944 190.308411,978.204346 
	C177.594818,974.541077 164.674774,971.158508 152.542450,966.011475 
	C132.208420,957.384888 115.368393,943.549622 100.657158,927.143005 
	C88.101311,913.140259 79.140862,897.027771 71.960274,879.701111 
	C62.870377,857.767273 58.503670,834.994690 57.989479,811.368225 
	C57.679867,797.141724 57.097878,782.916870 57.045326,768.689758 
	C56.909580,731.939270 57.056316,695.187744 56.954464,658.437073 
	C56.932861,650.642334 56.162678,642.851807 56.041691,635.054626 
	C55.875992,624.376404 55.895748,613.692261 56.023785,603.012939 
	C56.282139,581.464294 56.766987,559.917908 56.940090,538.368835 
	C56.993301,531.744568 56.023323,525.112244 56.073586,518.487732 
	C56.165604,506.359344 56.832607,494.235779 56.959084,482.107056 
	C57.125084,466.188721 57.000076,450.267303 57.000160,434.347229 
	C57.000248,417.259796 57.075886,400.171906 56.979523,383.085022 
	C56.878815,365.228027 56.457645,347.371948 56.461395,329.515503 
	C56.465309,310.879639 56.485798,292.233185 57.099865,273.611176 
	C57.651554,256.880615 58.320694,240.094330 60.287388,223.492477 
	C61.465961,213.543457 65.192413,203.889496 67.913109,194.141830 
	C68.150970,193.289597 69.429321,192.727783 70.597916,192.018372 
	C69.965614,200.375214 68.959793,208.744751 67.914619,217.568970 
z"/>
<path fill="#1E8CDB" opacity="1.000000" stroke="none" 
	d="
M492.848389,400.031555 
	C492.816467,358.761749 492.740051,317.491913 492.783234,276.222198 
	C492.794342,265.602234 500.078125,257.626617 510.612579,256.189880 
	C519.685181,254.952530 529.350159,261.223572 532.211487,270.357178 
	C532.797485,272.227722 533.087769,274.269318 533.090637,276.232666 
	C533.149719,317.169525 533.147705,358.106537 533.010010,399.835938 
	C530.496521,407.607910 526.397217,412.955109 519.036377,415.167725 
	C507.576324,418.612518 498.390259,413.290253 492.848389,400.031555 
z"/>
<path fill="#1E8CDB" opacity="1.000000" stroke="none" 
	d="
M551.613647,348.964600 
	C551.613647,337.013275 551.613647,325.061951 551.613647,311.546631 
	C562.362854,315.664185 572.286133,318.600616 581.430725,323.114655 
	C626.398560,345.312225 655.485046,380.721741 668.249512,429.344727 
	C668.667908,430.938446 668.776733,432.613434 668.580994,434.804443 
	C664.455505,435.498413 660.778870,435.638489 656.646912,435.627563 
	C648.550293,435.472809 640.899414,435.241272 633.271912,435.563110 
	C629.554321,435.720001 627.698486,434.542847 627.152710,430.933899 
	C626.956543,429.636200 626.443176,428.375977 625.990967,427.129028 
	C613.950745,393.927704 591.473694,370.587860 558.930054,356.300171 
	C555.258301,354.750061 551.017334,354.238098 551.613647,348.964600 
z"/>
<path fill="#E6E7E7" opacity="1.000000" stroke="none" 
	d="
M352.624878,469.085266 
	C353.661102,488.082306 356.778625,506.699677 363.218384,525.374756 
	C360.198364,529.809509 361.714050,533.806519 362.777252,537.419678 
	C367.252350,552.627747 373.955231,566.960938 382.656555,580.119141 
	C393.410248,596.381104 406.421967,610.767883 422.724487,621.815918 
	C428.348236,625.627136 433.824860,629.905640 439.958069,632.656860 
	C449.417389,636.900085 459.227112,640.553406 469.182678,643.442017 
	C478.028961,646.008728 487.241028,648.452698 496.353668,648.704346 
	C511.063782,649.110413 525.942749,648.612793 540.535645,646.783386 
	C560.449158,644.286987 579.131897,637.225952 596.010498,626.237976 
	C607.953552,618.463074 619.367188,609.865295 628.645935,598.835999 
	C633.967407,592.510498 639.981384,586.600159 644.306763,579.646423 
	C649.807373,570.803345 654.172424,561.211060 658.512329,551.706787 
	C660.693726,546.929443 662.151733,541.707397 663.086548,536.532776 
	C663.449951,534.521179 661.470825,532.086487 660.558716,529.844543 
	C662.663879,523.799805 664.768982,517.755066 667.384888,511.368286 
	C678.223206,515.348022 688.894287,514.612732 699.570862,512.991699 
	C701.423340,512.710510 703.378906,511.736267 704.849915,510.543304 
	C712.622192,504.239838 716.115417,496.213898 714.160767,485.850739 
	C715.100098,484.349030 715.926697,483.143890 716.753235,481.938782 
	C722.071472,481.937805 722.874146,486.647308 723.552429,489.895630 
	C725.650574,499.943634 717.696594,515.339722 708.292542,519.695923 
	C704.345581,521.524231 699.791077,522.257446 695.426331,522.910278 
	C690.522156,523.643799 685.496887,523.532837 680.567200,524.138672 
	C674.800171,524.847351 671.498352,528.564758 671.028137,534.512695 
	C670.131287,545.858093 665.510193,555.969543 660.610962,565.964233 
	C652.894836,581.705505 642.905762,595.982727 631.209534,608.950378 
	C625.796204,614.952209 619.410767,620.158569 613.064331,625.222107 
	C594.320923,640.176575 573.093750,649.938904 549.705872,655.314941 
	C530.677063,659.689026 511.555786,659.838562 492.274689,658.085205 
	C473.725922,656.398438 456.151947,651.155762 439.250702,643.573975 
	C427.474243,638.291138 417.511047,630.245972 407.625946,622.095276 
	C390.968781,608.360657 377.855316,591.702332 367.989990,572.669067 
	C358.206177,553.793152 352.653412,533.508240 349.862213,512.375793 
	C348.133209,499.285492 347.328735,486.332886 350.085754,473.350098 
	C350.400452,471.868286 351.514862,470.556274 352.624878,469.085266 
z"/>
<path fill="#1E8CDB" opacity="1.000000" stroke="none" 
	d="
M716.805969,481.544769 
	C715.926697,483.143890 715.100098,484.349030 713.868774,486.003662 
	C710.273376,488.525146 707.082764,490.597137 703.429810,492.682678 
	C700.809631,492.785645 698.651855,492.951202 696.493896,492.952942 
	C668.226501,492.975525 639.958618,493.063690 611.692322,492.890442 
	C607.128723,492.862518 602.572327,491.645538 597.807068,490.717865 
	C594.838623,487.613953 592.075745,484.770416 589.312866,481.926849 
	C582.962769,468.275604 592.025146,453.223389 606.905396,452.791107 
	C612.357605,452.632690 617.815491,452.669708 624.134705,452.624817 
	C628.971497,452.579468 632.944336,452.526855 637.201355,452.605164 
	C638.315002,452.678619 639.144531,452.621094 640.430359,452.675049 
	C646.269836,452.711334 651.652893,452.636169 657.466675,452.661163 
	C661.221558,452.667755 664.545654,452.574127 667.869812,452.480499 
	C677.177185,452.560059 686.519836,453.191345 695.784119,452.598267 
	C712.399963,451.534607 722.610413,466.243011 716.805969,481.544769 
z"/>
<path fill="#343C45" opacity="1.000000" stroke="none" 
	d="
M491.983276,807.104126 
	C479.975616,808.928955 471.134521,802.815002 468.869263,791.435669 
	C467.528870,784.702698 468.004547,778.089600 471.172943,771.959595 
	C477.287048,760.130371 491.851349,758.299011 500.643768,768.095764 
	C501.043274,768.540894 501.556824,768.883789 502.421295,769.617004 
	C502.620087,767.156006 502.776825,765.215515 502.962524,762.916138 
	C505.780914,762.916138 508.514374,762.916138 511.946899,762.916138 
	C511.946899,764.664551 511.948364,766.418762 511.946686,768.172913 
	C511.934540,780.835999 512.028381,793.500366 511.878448,806.161804 
	C511.735474,818.233337 506.244781,824.569702 494.236298,825.429321 
	C489.095642,825.797302 483.670898,824.710083 478.638092,823.327271 
	C474.100159,822.080505 471.519196,818.211365 470.066803,813.259583 
	C474.329773,812.914978 477.833405,811.619629 481.368317,815.783020 
	C485.049622,820.118591 490.718628,819.500366 495.843964,817.766968 
	C500.573059,816.167542 502.398468,812.407104 502.592743,807.695068 
	C502.680969,805.555420 502.607697,803.409058 502.607697,801.124207 
	C499.022034,803.190918 495.700500,805.105408 491.983276,807.104126 
M478.036316,787.157288 
	C478.643341,789.387634 478.886108,791.805908 479.922394,793.814758 
	C483.748383,801.231384 493.899750,802.233459 499.228638,795.877380 
	C503.926788,790.273621 503.765625,778.265320 498.489258,773.181519 
	C496.737213,771.493530 493.919434,770.299744 491.471741,770.055969 
	C482.866882,769.198914 478.061127,775.187988 478.036316,787.157288 
z"/>
<path fill="#343C45" opacity="1.000000" stroke="none" 
	d="
M554.208618,807.264526 
	C542.722046,811.341003 532.411011,809.037903 526.669006,801.344727 
	C520.485046,793.059265 520.416321,778.790527 526.519409,770.264404 
	C535.487000,757.736572 556.376404,759.245605 563.426697,772.930542 
	C569.682495,785.073364 565.687256,800.462219 554.208618,807.264526 
M552.550964,772.895691 
	C544.337158,766.421265 535.011841,769.221558 532.787659,779.359802 
	C531.833069,783.710938 532.190491,788.613159 533.081543,793.037415 
	C534.131958,798.252625 538.593689,801.233276 543.539612,801.412170 
	C548.582947,801.594543 552.954102,799.018311 554.777954,793.966309 
	C557.298767,786.983826 557.376648,779.998169 552.550964,772.895691 
z"/>
<path fill="#343C45" opacity="1.000000" stroke="none" 
	d="
M422.866577,767.876465 
	C430.467926,760.903687 439.072571,760.240662 447.795135,763.611328 
	C456.295593,766.896179 459.729370,774.261108 460.399353,782.979980 
	C461.744751,800.488342 450.605316,811.594421 434.326111,809.019470 
	C426.633240,807.802612 420.928406,803.688904 418.391937,796.312256 
	C414.960541,786.333191 415.485809,776.666077 422.866577,767.876465 
M450.720825,788.031433 
	C450.466675,784.896667 450.569305,781.681091 449.881897,778.644409 
	C448.571655,772.856201 444.842468,769.809998 439.502655,769.509766 
	C433.887054,769.194031 428.883331,771.799988 427.730591,777.463989 
	C426.646759,782.789551 426.761230,788.639465 427.715942,794.015869 
	C428.569550,798.822937 432.943451,801.218445 437.814728,801.520325 
	C442.770966,801.827454 446.518799,799.454651 448.711517,795.033142 
	C449.654724,793.131287 449.999847,790.932861 450.720825,788.031433 
z"/>
<path fill="#E0E0E1" opacity="1.000000" stroke="none" 
	d="
M492.556946,400.204865 
	C498.390259,413.290253 507.576324,418.612518 519.036377,415.167725 
	C526.397217,412.955109 530.496521,407.607910 533.021606,400.302856 
	C534.441895,402.415863 537.058655,405.065033 536.718445,407.254822 
	C535.537109,414.859039 534.300232,422.724640 531.273621,429.705688 
	C527.222229,439.050537 518.296082,441.268463 509.000366,439.807526 
	C500.139923,438.415039 494.778625,432.027740 492.293304,423.829712 
	C490.539612,418.045044 489.883728,411.866516 489.356720,405.809967 
	C489.207642,404.096710 491.235901,402.194000 492.556946,400.204865 
z"/>
<path fill="#343C45" opacity="1.000000" stroke="none" 
	d="
M578.987915,802.931213 
	C578.095276,800.416382 576.809204,798.233582 576.766296,796.026672 
	C576.553772,785.088013 576.669495,774.143005 576.669495,762.861816 
	C579.362488,762.861816 582.112244,762.861816 585.551941,762.861816 
	C585.551941,769.144714 585.547668,775.398193 585.553894,781.651733 
	C585.556702,784.479675 585.481689,787.312317 585.613892,790.134705 
	C585.949097,797.292969 589.164978,800.772156 595.391663,800.869995 
	C601.638184,800.968201 605.778809,797.152161 606.129883,790.261719 
	C606.493530,783.124695 606.330200,775.960693 606.389954,768.808472 
	C606.405151,766.987244 606.392273,765.165710 606.392273,762.945557 
	C609.325989,762.945557 612.066345,762.945557 615.330811,762.945557 
	C615.330811,777.734863 615.330811,792.611511 615.330811,807.901062 
	C612.997253,807.901062 610.272095,807.901062 607.135925,807.901062 
	C606.894287,806.555359 606.596863,804.899109 606.283264,803.152588 
	C592.270203,811.030701 586.050537,811.022949 578.987915,802.931213 
z"/>
<path fill="#343C45" opacity="1.000000" stroke="none" 
	d="
M402.871063,799.990723 
	C405.478699,799.990295 407.607513,799.990295 409.971619,799.990295 
	C409.971619,802.878784 409.971619,805.339478 409.971619,808.235474 
	C397.075928,808.235474 384.202789,808.235474 371.076050,808.235474 
	C371.076050,788.035950 371.076050,767.763000 371.076050,747.104980 
	C373.932404,747.104980 376.807312,747.104980 380.173645,747.104980 
	C380.173645,764.490784 380.173645,781.905762 380.173645,799.991150 
	C387.881836,799.991150 395.137024,799.991150 402.871063,799.990723 
z"/>
<path fill="#E6E7E7" opacity="1.000000" stroke="none" 
	d="
M636.917175,452.474213 
	C632.944336,452.526855 628.971497,452.579468 624.555420,452.536621 
	C619.255737,440.395081 613.941467,428.566681 604.615112,419.199860 
	C596.919739,411.471100 589.264465,403.623444 580.884216,396.682465 
	C574.943054,391.761719 567.772339,388.342499 561.244995,384.107391 
	C555.972290,380.686249 552.950623,375.810760 551.820007,369.528839 
	C551.089844,365.471893 548.933838,361.617889 548.564880,357.568359 
	C548.317139,354.849457 550.078796,351.947510 551.277588,349.046021 
	C551.017334,354.238098 555.258301,354.750061 558.834412,356.741821 
	C556.533997,365.894989 559.167419,374.266876 566.565918,379.232330 
	C573.288208,383.743927 580.966431,386.985870 587.176208,392.066986 
	C594.829041,398.328766 601.226685,406.098450 608.483765,412.877136 
	C615.704590,419.622009 620.595886,427.596863 623.961060,436.857483 
	C626.248657,443.152740 630.417969,448.352936 636.985046,451.362061 
	C636.945984,451.979828 636.931580,452.227020 636.917175,452.474213 
z"/>
<path fill="#343C45" opacity="1.000000" stroke="none" 
	d="
M631.003418,790.953735 
	C631.001343,783.988892 631.001343,777.516052 631.001343,770.659119 
	C628.866577,770.451477 626.977966,770.267822 624.844177,770.060242 
	C624.844177,767.697937 624.844177,765.454834 624.844177,762.928223 
	C626.725464,762.812256 628.492554,762.703369 630.748047,762.564392 
	C630.748047,758.869629 630.748047,755.288696 630.748047,751.364319 
	C634.120178,751.364319 637.006775,751.364319 640.574585,751.364319 
	C640.574585,755.000305 640.574585,758.708923 640.574585,762.765381 
	C643.856689,762.765381 646.470947,762.765381 649.394409,762.765381 
	C649.394409,765.352112 649.394409,767.577393 649.394409,770.036072 
	C646.553955,770.220642 643.795959,770.399902 640.705811,770.600708 
	C640.705811,779.291321 640.404602,787.737244 640.824402,796.147156 
	C641.057800,800.821716 645.216370,800.798340 649.178589,800.636780 
	C649.498291,803.085449 649.792053,805.335632 650.076965,807.517700 
	C639.392944,811.927368 631.257935,806.867126 631.041016,795.934814 
	C631.011353,794.438782 631.016479,792.942139 631.003418,790.953735 
z"/>
<path fill="#E6E7E7" opacity="1.000000" stroke="none" 
	d="
M588.920288,481.985046 
	C592.075745,484.770416 594.838623,487.613953 597.651855,491.060547 
	C598.227234,494.035767 598.067932,496.919312 599.393616,498.693237 
	C605.758789,507.210754 615.777283,507.962463 625.122986,510.037964 
	C623.622009,513.533691 622.121033,517.029419 620.364258,520.754028 
	C616.482727,521.320740 612.863586,521.820740 609.230103,521.968628 
	C593.371704,522.614075 581.567261,507.576416 584.435120,491.766052 
	C585.033752,488.465668 583.177307,483.547791 588.920288,481.985046 
z"/>
<path fill="#E6E7E7" opacity="1.000000" stroke="none" 
	d="
M473.996704,353.998962 
	C474.082092,352.910645 474.167480,351.822296 474.366211,350.340363 
	C480.245697,351.745667 478.299438,356.638519 477.610107,359.945129 
	C476.372742,365.881134 474.509064,371.913177 471.617981,377.200104 
	C469.611359,380.869659 465.866241,384.075378 462.168457,386.245422 
	C449.097565,393.916138 436.479889,402.028320 426.121735,413.320740 
	C415.500336,424.900177 408.364227,438.439911 403.033569,453.035645 
	C400.931396,458.791595 399.305664,464.721069 397.223450,470.485016 
	C396.736420,471.833130 395.275726,472.829529 393.855835,474.024597 
	C393.387299,469.678558 393.325989,465.295654 393.689270,460.386475 
	C395.424286,458.206360 397.119720,456.729797 397.977295,454.867432 
	C401.378357,447.481201 403.924988,439.643463 407.870911,432.577667 
	C417.551422,415.243073 430.246643,400.552155 447.756470,390.526611 
	C452.047089,388.069977 456.289215,385.524933 460.500702,382.934509 
	C471.344269,376.264740 472.918732,365.240662 473.996704,353.998962 
z"/>
<path fill="#E0E0E1" opacity="1.000000" stroke="none" 
	d="
M667.939453,452.057251 
	C664.545654,452.574127 661.221558,452.667755 657.534546,452.334259 
	C657.845703,450.787567 658.628906,449.718567 659.175293,448.539856 
	C662.114502,442.198700 661.478577,438.429932 657.102295,435.778534 
	C660.778870,435.638489 664.455505,435.498413 668.583130,435.233643 
	C669.886963,440.691376 671.302734,446.308777 667.939453,452.057251 
z"/>
<path fill="#E0E0E1" opacity="1.000000" stroke="none" 
	d="
M660.331055,530.092285 
	C661.470825,532.086487 663.449951,534.521179 663.086548,536.532776 
	C662.151733,541.707397 660.693726,546.929443 658.512329,551.706787 
	C654.172424,561.211060 649.807373,570.803345 644.306763,579.646423 
	C639.981384,586.600159 633.967407,592.510498 628.645935,598.835999 
	C619.367188,609.865295 607.953552,618.463074 596.010498,626.237976 
	C579.131897,637.225952 560.449158,644.286987 540.535645,646.783386 
	C525.942749,648.612793 511.063782,649.110413 496.353668,648.704346 
	C487.241028,648.452698 478.028961,646.008728 469.182678,643.442017 
	C459.227112,640.553406 449.417389,636.900085 439.958069,632.656860 
	C433.824860,629.905640 428.348236,625.627136 422.724487,621.815918 
	C406.421967,610.767883 393.410248,596.381104 382.656555,580.119141 
	C373.955231,566.960938 367.252350,552.627747 362.777252,537.419678 
	C361.714050,533.806519 360.198364,529.809509 363.197937,525.745178 
	C364.663055,528.632568 365.920563,531.874268 366.910645,535.747192 
	C365.442261,543.029663 370.301147,550.534424 376.103973,550.990906 
	C385.350861,564.239136 395.282959,576.888916 407.699341,587.391907 
	C408.556396,588.116882 409.116852,589.192566 409.935425,590.843872 
	C409.096008,597.023926 411.638702,601.151855 415.721893,604.022766 
	C424.374329,610.106140 433.213440,615.947021 442.211884,621.505493 
	C446.537842,624.177673 451.496002,625.802551 455.998108,628.218140 
	C465.275543,633.195679 475.662567,633.719727 485.625031,635.959778 
	C488.349884,636.572449 491.016663,637.735901 493.759247,637.922119 
	C501.882904,638.473694 510.030792,638.895874 518.169861,638.907776 
	C523.044067,638.914856 528.013550,638.503296 532.774353,637.496216 
	C541.978271,635.549316 551.117249,633.236816 560.186157,630.725525 
	C570.040161,627.997009 580.166138,625.928894 588.177673,618.635498 
	C591.437988,615.667419 595.427063,613.418518 599.298828,611.219971 
	C607.892273,606.340393 615.906067,600.946106 620.800049,591.921875 
	C621.624329,590.401978 623.470398,589.466370 624.713257,588.138062 
	C629.678650,582.831238 634.662720,577.538574 639.488342,572.106018 
	C641.261658,570.109680 642.113342,567.753845 639.353088,565.669250 
	C646.269836,553.892822 653.186584,542.116455 660.331055,530.092285 
z"/>
<path fill="#D9D9DA" opacity="1.000000" stroke="none" 
	d="
M639.095886,565.842224 
	C642.113342,567.753845 641.261658,570.109680 639.488342,572.106018 
	C634.662720,577.538574 629.678650,582.831238 624.713257,588.138062 
	C623.470398,589.466370 621.624329,590.401978 620.800049,591.921875 
	C615.906067,600.946106 607.892273,606.340393 599.298828,611.219971 
	C595.427063,613.418518 591.437988,615.667419 588.177673,618.635498 
	C580.166138,625.928894 570.040161,627.997009 560.186157,630.725525 
	C551.117249,633.236816 541.978271,635.549316 532.774353,637.496216 
	C528.013550,638.503296 523.044067,638.914856 518.169861,638.907776 
	C510.030792,638.895874 501.882904,638.473694 493.759247,637.922119 
	C491.016663,637.735901 488.349884,636.572449 485.625031,635.959778 
	C475.662567,633.719727 465.275543,633.195679 455.998108,628.218140 
	C451.496002,625.802551 446.537842,624.177673 442.211884,621.505493 
	C433.213440,615.947021 424.374329,610.106140 415.721893,604.022766 
	C411.638702,601.151855 409.096008,597.023926 410.088196,591.134460 
	C411.553192,591.442200 413.144318,591.996704 414.395142,592.982788 
	C475.076111,640.818237 563.282837,637.680176 620.175049,585.457153 
	C626.779907,579.394470 632.635620,572.515625 639.095886,565.842224 
z"/>
<path fill="#D6D6D7" opacity="1.000000" stroke="none" 
	d="
M625.462891,510.034607 
	C615.777283,507.962463 605.758789,507.210754 599.393616,498.693237 
	C598.067932,496.919312 598.227234,494.035767 597.857422,491.320892 
	C602.572327,491.645538 607.128723,492.862518 611.692322,492.890442 
	C639.958618,493.063690 668.226501,492.975525 696.493896,492.952942 
	C698.651855,492.951202 700.809631,492.785645 703.458618,493.114807 
	C703.701111,501.396484 699.792480,505.852112 692.060791,505.899109 
	C683.286743,505.952484 674.510864,505.178436 665.730896,504.964600 
	C659.993896,504.824890 654.244690,504.938477 648.507446,505.131958 
	C643.960144,505.285339 639.369934,505.426331 634.906494,506.197021 
	C633.070374,506.514038 631.516785,508.467529 629.834717,509.676636 
	C628.490723,509.794830 627.146790,509.913025 625.462891,510.034607 
z"/>
<path fill="#D9D9DA" opacity="1.000000" stroke="none" 
	d="
M396.165833,441.004028 
	C401.978699,413.385864 416.425659,391.023346 438.428864,373.746979 
	C446.310181,367.558746 455.538422,363.085968 464.573853,358.115845 
	C467.398102,362.743408 466.855255,366.923492 463.273468,370.107635 
	C457.882050,374.900635 452.169434,379.346985 446.441193,383.742340 
	C440.685272,388.158905 434.326569,391.874756 428.988708,396.729614 
	C422.411072,402.712067 416.343781,409.323090 410.571899,416.101807 
	C406.291901,421.128510 403.078583,426.838593 401.754303,433.656128 
	C401.228119,436.365051 398.106049,438.569763 396.165833,441.004028 
z"/>
<path fill="#E0E0E1" opacity="1.000000" stroke="none" 
	d="
M396.022705,441.381866 
	C398.106049,438.569763 401.228119,436.365051 401.754303,433.656128 
	C403.078583,426.838593 406.291901,421.128510 410.571899,416.101807 
	C416.343781,409.323090 422.411072,402.712067 428.988708,396.729614 
	C434.326569,391.874756 440.685272,388.158905 446.441193,383.742340 
	C452.169434,379.346985 457.882050,374.900635 463.273468,370.107635 
	C466.855255,366.923492 467.398102,362.743408 464.930817,358.016052 
	C467.672760,356.472900 470.479675,355.315094 473.641663,354.078125 
	C472.918732,365.240662 471.344269,376.264740 460.500702,382.934509 
	C456.289215,385.524933 452.047089,388.069977 447.756470,390.526611 
	C430.246643,400.552155 417.551422,415.243073 407.870911,432.577667 
	C403.924988,439.643463 401.378357,447.481201 397.977295,454.867432 
	C397.119720,456.729797 395.424286,458.206360 393.804688,459.939148 
	C394.290161,453.931976 395.084869,447.845825 396.022705,441.381866 
z"/>
<path fill="#E0E0E1" opacity="1.000000" stroke="none" 
	d="
M630.232910,509.785278 
	C631.516785,508.467529 633.070374,506.514038 634.906494,506.197021 
	C639.369934,505.426331 643.960144,505.285339 648.507446,505.131958 
	C654.244690,504.938477 659.993896,504.824890 665.730896,504.964600 
	C674.510864,505.178436 683.286743,505.952484 692.060791,505.899109 
	C699.792480,505.852112 703.701111,501.396484 703.920898,493.101257 
	C707.082764,490.597137 710.273376,488.525146 713.755981,486.300232 
	C716.115417,496.213898 712.622192,504.239838 704.849915,510.543304 
	C703.378906,511.736267 701.423340,512.710510 699.570862,512.991699 
	C688.894287,514.612732 678.223206,515.348022 667.518799,511.014038 
	C665.427673,510.673309 663.716492,510.080444 661.998352,510.059509 
	C651.543518,509.932007 641.087097,509.934692 630.232910,509.785278 
z"/>
<path fill="#D9D9DA" opacity="1.000000" stroke="none" 
	d="
M376.032410,550.636597 
	C370.301147,550.534424 365.442261,543.029663 366.934540,536.128052 
	C370.137451,540.679138 373.049133,545.480713 376.032410,550.636597 
z"/>
<path fill="#D9D9DA" opacity="1.000000" stroke="none" 
	d="
M656.646912,435.627563 
	C661.478577,438.429932 662.114502,442.198700 659.175293,448.539856 
	C658.628906,449.718567 657.845703,450.787567 657.103882,452.234070 
	C651.652893,452.636169 646.269836,452.711334 640.333557,452.381836 
	C638.856873,451.648590 637.933289,451.320068 637.009766,450.991516 
	C630.417969,448.352936 626.248657,443.152740 623.961060,436.857483 
	C620.595886,427.596863 615.704590,419.622009 608.483765,412.877136 
	C601.226685,406.098450 594.829041,398.328766 587.176208,392.066986 
	C580.966431,386.985870 573.288208,383.743927 566.565918,379.232330 
	C559.167419,374.266876 556.533997,365.894989 559.121887,356.936707 
	C591.473694,370.587860 613.950745,393.927704 625.990967,427.129028 
	C626.443176,428.375977 626.956543,429.636200 627.152710,430.933899 
	C627.698486,434.542847 629.554321,435.720001 633.271912,435.563110 
	C640.899414,435.241272 648.550293,435.472809 656.646912,435.627563 
z"/>
<path fill="#E0E0E1" opacity="1.000000" stroke="none" 
	d="
M636.985046,451.362061 
	C637.933289,451.320068 638.856873,451.648590 639.877197,452.270355 
	C639.144531,452.621094 638.315002,452.678619 637.201355,452.605164 
	C636.931580,452.227020 636.945984,451.979828 636.985046,451.362061 
z"/>
<path fill="#F4F4F4" opacity="1.000000" stroke="none" 
	d="
M478.002991,786.726074 
	C478.061127,775.187988 482.866882,769.198914 491.471741,770.055969 
	C493.919434,770.299744 496.737213,771.493530 498.489258,773.181519 
	C503.765625,778.265320 503.926788,790.273621 499.228638,795.877380 
	C493.899750,802.233459 483.748383,801.231384 479.922394,793.814758 
	C478.886108,791.805908 478.643341,789.387634 478.002991,786.726074 
z"/>
<path fill="#F4F4F4" opacity="1.000000" stroke="none" 
	d="
M552.798828,773.194336 
	C557.376648,779.998169 557.298767,786.983826 554.777954,793.966309 
	C552.954102,799.018311 548.582947,801.594543 543.539612,801.412170 
	C538.593689,801.233276 534.131958,798.252625 533.081543,793.037415 
	C532.190491,788.613159 531.833069,783.710938 532.787659,779.359802 
	C535.011841,769.221558 544.337158,766.421265 552.798828,773.194336 
z"/>
<path fill="#F4F4F4" opacity="1.000000" stroke="none" 
	d="
M450.668762,788.450317 
	C449.999847,790.932861 449.654724,793.131287 448.711517,795.033142 
	C446.518799,799.454651 442.770966,801.827454 437.814728,801.520325 
	C432.943451,801.218445 428.569550,798.822937 427.715942,794.015869 
	C426.761230,788.639465 426.646759,782.789551 427.730591,777.463989 
	C428.883331,771.799988 433.887054,769.194031 439.502655,769.509766 
	C444.842468,769.809998 448.571655,772.856201 449.881897,778.644409 
	C450.569305,781.681091 450.466675,784.896667 450.668762,788.450317 
z"/>
</svg>