<svg version="1.1" id="Layer_1" xmlns="http://www.w3.org/2000/svg" xmlns:xlink="http://www.w3.org/1999/xlink" x="0px" y="0px"
	 width="100%" viewBox="0 0 1024 1024" enable-background="new 0 0 1024 1024" xml:space="preserve">
<path fill="#F6F6F6" opacity="1.000000" stroke="none" 
	d="
M1.000000,934.000000 
	C1.000000,652.970642 1.000000,371.941284 1.380781,90.368011 
	C2.170175,88.995209 2.866766,88.192619 2.945282,87.333527 
	C4.904740,65.893852 14.737696,48.095955 28.993532,32.644871 
	C42.765739,17.717968 60.122524,8.667100 79.770561,3.813232 
	C81.631783,3.353437 83.262352,1.959989 85.000000,1.000000 
	C369.696045,1.000000 654.392090,1.000000 939.627625,1.374503 
	C940.498291,2.099960 940.765259,2.631936 941.170044,2.775469 
	C951.710571,6.513682 962.984985,8.890482 972.679382,14.170571 
	C999.001282,28.506916 1015.914673,50.534817 1022.124084,80.285645 
	C1022.545044,82.302650 1024.016846,84.100327 1025.000000,86.000008 
	C1025.000000,370.029388 1025.000000,654.058777 1024.634033,938.620544 
	C1023.513428,941.250610 1022.687622,943.325806 1022.017456,945.450134 
	C1019.932129,952.061035 1018.740967,959.102051 1015.715149,965.243164 
	C1000.964844,995.179565 977.645874,1014.758972 944.739014,1022.311584 
	C943.042969,1022.700806 941.574402,1024.081055 940.000000,1025.000000 
	C655.970642,1025.000000 371.941284,1025.000000 87.372787,1024.627197 
	C86.176384,1023.846741 85.562965,1023.194153 84.855377,1023.067566 
	C66.077858,1019.706177 49.504292,1011.523254 35.504257,998.816772 
	C17.105104,982.117554 5.235949,961.671021 2.904236,936.388916 
	C2.826061,935.541260 1.659328,934.794067 1.000000,934.000000 
M440.102142,320.639313 
	C440.735443,321.088379 441.368744,321.537476 442.000549,322.742859 
	C442.006012,323.499115 442.011475,324.255371 441.479858,325.477356 
	C443.736145,332.052795 445.968323,338.636841 448.305389,345.183411 
	C448.453491,345.598175 449.417847,345.721527 450.005219,346.655396 
	C450.011566,347.105286 450.017914,347.555206 450.095581,348.734558 
	C450.365570,349.517883 450.464386,350.427246 450.933289,351.064117 
	C454.053436,355.302155 454.067261,361.729187 460.073425,364.668518 
	C460.723328,366.113983 461.373260,367.559448 462.092010,369.727081 
	C464.384338,376.380371 466.676697,383.033691 468.534485,390.242371 
	C465.689026,391.825653 462.843536,393.408936 459.891510,394.320587 
	C458.724426,393.176666 457.331055,392.185150 456.437134,390.857330 
	C454.542297,388.042877 452.308167,385.242249 451.313690,382.088867 
	C449.975616,377.845947 450.848480,372.576904 448.705170,368.980103 
	C442.884369,359.211853 441.190094,348.225250 438.107605,337.690063 
	C435.104889,327.427277 433.319672,316.811829 430.853394,306.385925 
	C430.236511,303.778290 429.272705,301.013214 425.467926,302.602203 
	C424.007874,303.212006 422.516785,303.747589 421.039825,304.316986 
	C421.039825,302.713226 421.039825,301.109467 421.039825,298.748901 
	C419.796204,299.462433 418.729126,300.193085 417.567932,300.713837 
	C415.709930,301.547089 413.422150,303.306458 411.961304,302.802795 
	C406.661621,300.975525 401.820526,301.070892 396.993317,303.930359 
	C396.496124,304.224915 395.685699,303.990631 394.580322,303.467560 
	C391.390991,295.782379 385.199585,291.535431 377.626129,289.158020 
	C364.501099,285.037933 351.077759,284.957886 337.631439,287.095245 
	C316.527527,290.449738 301.628815,304.297150 298.515198,325.442169 
	C296.966309,335.960999 298.397919,346.919922 298.501160,357.679565 
	C298.516907,359.323181 299.365997,361.828918 298.600067,362.472412 
	C292.407410,367.675262 294.111938,374.493042 293.455933,381.027161 
	C292.345673,381.806335 290.469177,382.408752 290.242462,383.391693 
	C287.693420,394.443481 288.627930,405.315857 294.002045,415.312347 
	C299.653687,425.825043 305.873596,436.049377 312.264252,446.134186 
	C313.655884,448.330261 316.825989,449.399353 319.055084,451.681671 
	C315.401215,454.702423 312.108002,458.385315 308.021240,460.611328 
	C298.383514,465.860931 288.237915,470.171417 278.535980,475.311493 
	C264.883911,482.544281 254.737839,493.300934 247.897552,507.207825 
	C240.001434,523.261353 236.119049,540.390442 233.219223,558.140625 
	C232.832062,558.439331 232.258301,558.655640 232.084702,559.048706 
	C225.373138,574.245972 230.841354,592.580139 247.381393,597.890503 
	C254.293182,600.109558 261.367279,602.212585 268.528290,603.184814 
	C283.424530,605.207214 298.422485,606.496277 313.391418,607.955627 
	C316.858429,608.293640 320.378326,608.054932 323.871063,608.169128 
	C335.063965,608.534790 346.253784,609.163330 357.448273,609.253052 
	C364.720154,609.311401 372.003082,608.684753 379.272247,608.226074 
	C388.810669,607.624207 398.363831,607.109741 407.864563,606.116760 
	C413.064514,605.573242 418.169617,604.121826 423.045471,603.739563 
	C422.011993,605.627014 420.993469,607.522827 419.942810,609.400574 
	C410.281860,626.666687 404.746765,645.099182 403.449066,665.052917 
	C402.299988,667.220154 400.254944,669.342651 400.144287,671.561646 
	C399.296326,688.563110 406.703430,697.309570 424.334900,702.119263 
	C445.283203,707.833801 466.833557,708.871277 488.216156,709.670349 
	C510.039764,710.485962 531.988037,709.122620 553.830933,707.845581 
	C567.643188,707.037964 581.405945,704.925049 595.103210,702.825623 
	C601.066711,701.911560 607.258179,700.428101 612.561401,697.685852 
	C623.973572,691.784485 626.327759,679.997253 625.776001,668.707336 
	C625.712708,667.410767 623.417664,666.223145 622.109985,664.077393 
	C621.912292,661.092285 621.969482,658.064331 621.475464,655.129089 
	C618.275635,636.118591 612.770874,617.950195 602.424500,601.975098 
	C604.537354,602.337280 606.673218,602.599609 608.758545,603.081116 
	C614.309509,604.362732 619.781982,606.527710 625.387085,606.930603 
	C642.738037,608.177979 660.133362,609.343872 677.516907,609.428772 
	C690.896057,609.494141 704.329407,608.314819 717.655945,606.905823 
	C735.891663,604.977600 754.225037,603.206970 772.188721,599.692932 
	C789.006409,596.403198 797.571289,586.352966 795.828369,568.480042 
	C795.639404,566.542480 793.300537,564.814514 791.910645,562.081543 
	C791.699707,546.409607 787.435181,531.620544 782.154541,517.042542 
	C774.972900,497.216583 762.176270,482.398926 743.154236,473.089630 
	C735.694641,469.438934 728.138672,465.966522 720.826050,462.041321 
	C716.652039,459.800812 712.879822,456.811737 709.047729,453.468079 
	C711.351440,450.660431 714.118164,448.113525 715.873352,444.996918 
	C721.486877,435.029053 727.007019,424.987213 732.017334,414.707855 
	C735.859924,406.824249 738.744263,398.551788 737.055237,389.406982 
	C736.253479,385.065460 735.643677,380.647156 735.457581,376.242065 
	C735.102295,367.832428 735.418518,359.383270 734.758362,351.005524 
	C734.591614,348.890076 731.790710,346.982178 730.094116,344.051270 
	C730.058350,339.721619 730.329224,335.363037 729.924133,331.068237 
	C729.028320,321.571075 725.876038,313.234772 716.980347,308.124329 
	C715.822754,307.459351 714.805786,306.039642 714.349609,304.748383 
	C711.765381,297.433289 706.433350,292.950958 699.532104,290.128204 
	C673.956726,279.667267 643.668030,286.458618 625.195740,306.705933 
	C624.994019,306.926971 624.605774,306.977753 623.431580,307.049530 
	C616.859741,305.839203 613.719055,310.706146 610.144836,315.128418 
	C609.247253,314.314575 608.694580,313.749817 608.078918,313.265289 
	C602.950745,309.229553 596.203125,309.547882 594.558167,314.064911 
	C592.524231,319.650208 591.204956,325.515778 588.916992,330.984131 
	C584.793091,340.840698 580.250977,350.525696 575.739563,360.215332 
	C573.336914,365.375763 570.500732,370.334869 568.115967,375.502869 
	C566.752625,378.457336 567.575684,381.060059 569.926086,383.551849 
	C573.182861,387.004456 574.708618,393.845306 569.234314,397.047607 
	C562.082520,393.334717 554.217407,390.462921 552.109192,381.914093 
	C554.310608,380.395172 557.331604,379.364655 558.576477,377.275726 
	C565.134460,366.271698 571.271118,355.015472 577.501099,343.817413 
	C582.720215,334.436493 586.645203,324.677856 586.002380,313.630127 
	C585.314331,301.806061 584.775574,289.971924 583.940125,278.158539 
	C583.626648,273.725677 582.897278,269.281555 581.844666,264.967651 
	C581.546936,263.747467 579.437500,262.969299 578.034058,261.060730 
	C578.019348,257.067017 578.210449,253.059860 577.951050,249.082108 
	C577.202454,237.607101 574.022583,227.457489 562.570374,221.964050 
	C561.550720,221.474945 560.606934,220.153397 560.267090,219.025848 
	C557.033447,208.297089 549.119263,202.781403 538.932495,200.074814 
	C524.580444,196.261505 509.960052,195.697296 495.388824,198.345306 
	C470.259979,202.911957 455.467560,217.238480 450.497681,241.638290 
	C449.343811,247.303253 449.278992,253.190048 447.986542,259.001343 
	C446.874176,260.223083 445.006622,261.316040 444.772705,262.687592 
	C443.314545,271.237701 441.923492,279.826019 441.225281,288.459503 
	C441.057983,290.528198 443.598846,292.815918 445.004639,295.748291 
	C444.951477,296.496429 444.898346,297.244537 444.143494,298.097046 
	C440.273071,300.500641 439.607483,303.917206 440.996552,308.730194 
	C440.672180,310.158142 440.347778,311.586121 439.487366,313.472290 
	C439.666290,314.977386 439.845215,316.482452 440.015533,318.659943 
	C440.018372,319.108215 440.021210,319.556488 440.102142,320.639313 
M361.886047,787.867798 
	C364.497101,789.507507 368.571747,790.596130 369.436707,792.893372 
	C371.757660,799.057495 375.968262,797.392151 380.570770,797.166992 
	C379.708160,790.471802 376.730469,785.530151 371.081543,782.507874 
	C362.922913,778.142883 354.405060,778.150452 345.985687,781.611206 
	C338.880219,784.531860 334.907562,791.002319 335.272400,798.122131 
	C335.620270,804.911072 339.695862,809.851501 347.226349,812.485840 
	C349.103516,813.142578 351.057220,813.579346 352.972809,814.127625 
	C357.601349,815.452698 362.391876,816.387512 366.813568,818.214478 
	C372.128082,820.410339 373.236786,826.359436 369.622375,830.600464 
	C364.318176,836.824280 348.281525,836.440186 344.650085,829.218323 
	C341.930206,823.809204 338.658264,823.656738 334.039764,824.721375 
	C333.998962,830.755737 336.683075,836.031372 342.221375,839.069031 
	C352.117188,844.496704 362.404022,844.600647 372.344177,839.350342 
	C378.361267,836.172180 381.442871,830.706299 381.167755,823.679504 
	C380.890961,816.610229 376.834900,812.400635 370.576904,809.983276 
	C367.946533,808.967163 365.241577,808.124634 362.530792,807.340576 
	C358.535736,806.185181 354.445312,805.331482 350.507965,804.013428 
	C347.124695,802.880737 344.712433,800.581177 344.884521,796.653015 
	C345.054413,792.773926 347.035004,789.776428 350.753754,788.820984 
	C354.049469,787.974243 357.588074,788.072693 361.886047,787.867798 
M486.570007,796.080872 
	C477.732300,798.375000 473.266144,804.589905 471.908234,813.148743 
	C470.387115,822.736389 471.219269,831.918762 479.245697,838.762573 
	C481.062317,840.311584 483.578430,841.263855 485.931732,841.919006 
	C493.802887,844.110229 500.167725,841.329834 505.712860,834.316467 
	C505.895844,837.449768 506.014740,839.486023 506.129944,841.458740 
	C509.231140,841.458740 511.943481,841.458740 514.513184,841.458740 
	C514.513184,820.472778 514.513184,799.889709 514.513184,779.312256 
	C511.511566,779.312256 508.917542,779.312256 505.778748,779.312256 
	C505.778748,787.443970 505.778748,795.304871 505.778748,803.165833 
	C500.743683,797.073242 494.693665,794.902954 486.570007,796.080872 
M537.266541,797.656860 
	C526.028259,804.127625 521.978577,816.840881 526.744324,829.652588 
	C532.656006,845.544617 553.187134,845.478333 561.345276,837.532532 
	C563.568481,835.367249 564.957397,832.345337 567.240540,828.957825 
	C561.816895,828.697144 558.220398,828.240906 554.812683,832.062683 
	C551.333435,835.964844 546.109192,835.975159 541.340393,833.870178 
	C536.401489,831.690063 534.631592,827.433289 534.216125,821.890564 
	C539.966309,821.890564 545.270935,821.890503 550.575562,821.890503 
	C555.997681,821.890503 561.419800,821.890564 566.771362,821.890564 
	C567.967712,802.118347 555.386169,791.720276 537.266541,797.656860 
M422.308838,797.136292 
	C422.251312,807.284119 421.846130,817.445251 422.232147,827.576172 
	C422.634583,838.138672 430.408203,844.407288 440.389404,842.166809 
	C444.501862,841.243652 448.204132,838.493286 452.295746,836.473938 
	C452.455872,837.814209 452.678864,839.680481 452.922485,841.719360 
	C455.657928,841.719360 458.271088,841.719360 461.129089,841.719360 
	C461.129089,826.657043 461.129089,811.741760 461.129089,796.657227 
	C458.064514,796.657227 455.320709,796.657227 452.326111,796.657227 
	C452.230774,798.051575 452.092316,799.174255 452.087189,800.297607 
	C452.052368,807.956848 452.175201,815.619446 451.990906,823.274780 
	C451.827423,830.066711 447.405548,834.496216 441.151459,834.553955 
	C434.865723,834.611938 431.466797,830.776550 431.294952,823.407898 
	C431.252258,821.576965 431.248383,819.744873 431.247040,817.913269 
	C431.241882,810.824402 431.244904,803.735535 431.244904,796.594299 
	C427.956421,796.594299 425.481537,796.594299 422.308838,797.136292 
M616.072815,833.972473 
	C616.045410,826.306641 616.222656,818.633362 615.940674,810.976868 
	C615.559814,800.635681 608.688171,794.442017 598.475830,795.989990 
	C594.086609,796.655273 590.037903,799.567749 585.805420,801.472412 
	C585.645874,800.513367 585.308716,798.486572 584.996216,796.608032 
	C582.177063,796.608032 579.734192,796.608032 577.203857,796.608032 
	C577.203857,811.786560 577.203857,826.673706 577.203857,841.449585 
	C580.287537,841.449585 582.998657,841.449585 585.921387,841.449585 
	C585.921387,832.542053 585.831604,824.050842 585.952209,815.562683 
	C586.035889,809.676941 588.803528,805.510803 593.175293,804.101807 
	C600.705139,801.674988 606.737915,805.732361 606.931274,813.719055 
	C607.155579,822.987000 606.983582,832.264526 606.983582,841.612549 
	C610.386475,841.612549 613.114014,841.612549 616.084290,841.612549 
	C616.084290,839.164673 616.084290,837.014587 616.072815,833.972473 
M678.025635,815.744934 
	C675.316528,814.940002 672.486389,814.406616 669.926697,813.266235 
	C666.131897,811.575500 665.680725,807.337463 668.776611,804.793884 
	C672.228455,801.957886 680.403625,802.036255 682.476746,805.811768 
	C685.217529,810.803040 688.854126,808.904419 692.511963,808.970520 
	C692.483276,800.224365 683.360413,794.954346 673.343140,795.820801 
	C664.378296,796.596252 658.222351,801.245300 657.478455,808.246155 
	C656.735779,815.236389 660.748230,819.474792 670.416870,821.993164 
	C674.114990,822.956543 677.930908,823.671631 681.434814,825.123169 
	C685.438416,826.781799 685.747192,830.868530 682.434631,833.427307 
	C678.615784,836.377075 669.379150,836.119263 666.739563,832.169006 
	C663.741394,827.682068 660.253540,829.116333 656.393921,829.510925 
	C656.459167,830.300354 656.405273,830.808228 656.551941,831.249390 
	C658.810608,838.042297 663.844055,841.333618 670.666626,842.206909 
	C678.202271,843.171448 685.527405,842.705017 690.846313,836.429626 
	C696.172974,830.145203 693.988342,821.583557 686.426025,818.252197 
	C684.013794,817.189514 681.355225,816.685852 678.025635,815.744934 
M646.222473,803.768982 
	C651.597961,802.763550 648.055542,799.105591 648.956848,796.137085 
	C645.782715,796.137085 643.200989,796.137085 640.145264,796.137085 
	C640.145264,792.263794 640.145264,788.832581 640.145264,785.187134 
	C636.788696,785.187134 633.916382,785.187134 630.644653,785.187134 
	C630.644653,788.943054 630.644653,792.374084 630.644653,796.021973 
	C628.228210,796.298096 626.184265,796.531738 624.228516,796.755249 
	C624.228516,799.188171 624.228516,801.270935 624.228516,803.498657 
	C626.448181,803.714966 628.379395,803.903198 630.868286,804.145813 
	C630.868286,813.114929 630.809082,821.892395 630.891052,830.668579 
	C630.938232,835.715942 632.601807,840.110291 638.013123,841.336487 
	C641.599670,842.149231 645.425049,841.908203 649.629944,842.169067 
	C649.306335,838.982544 649.078430,836.738037 648.804688,834.042908 
	C644.573120,834.719666 640.437622,834.391907 640.178223,829.566589 
	C639.726196,821.157593 640.052429,812.706787 640.052429,803.979919 
	C642.051941,803.890259 643.676270,803.817383 646.222473,803.768982 
M390.127472,796.409424 
	C384.971741,797.576355 388.924133,801.114014 387.824310,803.597656 
	C390.186066,803.809814 392.099274,803.981689 394.508209,804.198059 
	C394.508209,806.295288 394.494354,808.087952 394.510620,809.880371 
	C394.577057,817.193787 394.429810,824.518127 394.791168,831.817139 
	C395.115051,838.360474 398.404358,841.521912 404.777130,842.028198 
	C407.358826,842.233215 409.970428,842.062012 413.041840,842.062012 
	C412.747467,839.102173 412.524078,836.855713 412.300659,834.609253 
	C411.864777,835.002441 411.428894,835.395569 410.993011,835.788696 
	C408.593170,833.879639 404.320190,832.145691 404.122437,830.030640 
	C403.327484,821.529236 403.793518,812.909851 403.793518,804.067139 
	C406.857666,803.904602 409.598511,803.759155 412.327911,803.614380 
	C412.327911,801.084290 412.327911,798.875366 412.327911,796.560425 
	C409.358887,796.391418 406.780792,796.244629 403.655273,796.066650 
	C403.655273,792.297058 403.655273,788.891663 403.655273,785.390991 
	C400.340088,785.390991 397.608765,785.390991 394.464630,785.390991 
	C394.464630,788.135193 394.343292,790.608765 394.497559,793.064941 
	C394.663391,795.705139 393.551270,796.739258 390.127472,796.409424 
z"/>
<path fill="#FEFEFE" opacity="1.000000" stroke="none" 
	d="
M1.000000,934.468628 
	C1.659328,934.794067 2.826061,935.541260 2.904236,936.388916 
	C5.235949,961.671021 17.105104,982.117554 35.504257,998.816772 
	C49.504292,1011.523254 66.077858,1019.706177 84.855377,1023.067566 
	C85.562965,1023.194153 86.176384,1023.846741 86.916840,1024.627197 
	C58.404358,1025.000000 29.808718,1025.000000 1.000000,1025.000000 
	C1.000000,994.979431 1.000000,964.958374 1.000000,934.468628 
z"/>
<path fill="#FEFEFE" opacity="1.000000" stroke="none" 
	d="
M940.468628,1025.000000 
	C941.574402,1024.081055 943.042969,1022.700806 944.739014,1022.311584 
	C977.645874,1014.758972 1000.964844,995.179565 1015.715149,965.243164 
	C1018.740967,959.102051 1019.932129,952.061035 1022.017456,945.450134 
	C1022.687622,943.325806 1023.513428,941.250610 1024.634033,939.076477 
	C1025.000000,967.593140 1025.000000,996.186279 1025.000000,1025.000000 
	C996.979492,1025.000000 968.958374,1025.000000 940.468628,1025.000000 
z"/>
<path fill="#FEFEFE" opacity="1.000000" stroke="none" 
	d="
M84.531342,1.000000 
	C83.262352,1.959989 81.631783,3.353437 79.770561,3.813232 
	C60.122524,8.667100 42.765739,17.717968 28.993532,32.644871 
	C14.737696,48.095955 4.904740,65.893852 2.945282,87.333527 
	C2.866766,88.192619 2.170175,88.995209 1.380781,89.912064 
	C1.000000,60.408543 1.000000,30.817087 1.000000,1.000000 
	C28.687153,1.000000 56.374916,1.000000 84.531342,1.000000 
z"/>
<path fill="#FEFEFE" opacity="1.000000" stroke="none" 
	d="
M1025.000000,85.531349 
	C1024.016846,84.100327 1022.545044,82.302650 1022.124084,80.285645 
	C1015.914673,50.534817 999.001282,28.506916 972.679382,14.170571 
	C962.984985,8.890482 951.710571,6.513682 941.170044,2.775469 
	C940.765259,2.631936 940.498291,2.099960 940.083557,1.374503 
	C968.260193,1.000000 996.520447,1.000000 1025.000000,1.000000 
	C1025.000000,29.020514 1025.000000,57.041599 1025.000000,85.531349 
z"/>
<path fill="#0186D1" opacity="1.000000" stroke="none" 
	d="
M404.221252,664.950134 
	C404.746765,645.099182 410.281860,626.666687 419.942810,609.400574 
	C420.993469,607.522827 422.011993,605.627014 423.470490,603.263489 
	C432.681427,592.259399 443.986298,585.121033 456.352386,578.891541 
	C464.542633,574.865234 472.377228,570.879639 480.211853,566.893982 
	C480.014099,566.352722 479.816345,565.811401 479.618591,565.270081 
	C461.200806,564.273987 443.376099,561.220581 427.440186,550.435425 
	C422.065460,545.320679 421.960419,543.492249 426.461884,538.867737 
	C441.029541,523.901550 448.990021,505.704803 451.943451,485.294708 
	C454.246979,469.375885 455.221375,453.186951 464.296753,438.807129 
	C472.283875,427.737762 482.534424,420.534271 495.558746,417.482971 
	C512.672913,413.473480 529.193420,414.886627 545.069336,423.493591 
	C555.585388,430.236053 562.960449,439.216827 567.842163,450.714417 
	C569.579895,459.673706 571.265503,468.258820 573.026184,476.828552 
	C574.988953,486.382324 576.073242,496.257172 579.298584,505.369751 
	C582.275879,513.781372 587.581787,521.368835 591.964539,529.632751 
	C594.960510,533.273987 597.802002,536.648926 600.763367,539.915161 
	C603.320068,542.735046 603.423157,545.343994 600.557861,547.992188 
	C599.610779,548.867493 598.803772,549.894470 597.618408,551.001465 
	C581.936951,561.556824 564.316345,564.254883 546.271301,565.501465 
	C546.111145,566.094666 545.950989,566.687866 545.790771,567.281067 
	C553.473633,570.987854 561.156433,574.694702 569.085938,578.629639 
	C581.386902,584.707825 592.842834,591.391785 601.516724,601.952637 
	C612.770874,617.950195 618.275635,636.118591 621.475464,655.129089 
	C621.969482,658.064331 621.912292,661.092285 621.970703,664.837097 
	C620.523376,667.662476 619.215332,669.728149 617.520508,671.839172 
	C599.510254,677.718994 581.304504,680.469849 562.891174,682.113770 
	C532.683838,684.810608 502.442871,685.040039 472.205902,682.888611 
	C451.126251,681.388794 430.180328,678.859863 409.703827,671.975525 
	C407.700073,669.488586 405.960663,667.219360 404.221252,664.950134 
M535.695129,461.731812 
	C534.141663,459.180939 532.671875,456.573730 531.006348,454.098267 
	C529.831665,452.352295 528.391113,450.785187 527.069275,449.138214 
	C525.487915,450.605225 523.461060,451.805389 522.396851,453.582184 
	C514.941650,466.029144 503.993347,473.639191 489.995605,476.565613 
	C483.574127,477.908112 476.874847,477.921967 470.175842,478.550110 
	C470.175842,481.363770 470.175842,484.116913 470.175842,487.199005 
	C492.302216,488.008942 511.520905,482.443604 525.758484,464.701141 
	C539.827332,479.378204 547.149963,483.797913 556.331177,483.301178 
	C557.859192,478.794098 557.086670,476.220490 552.026306,473.848816 
	C546.198853,471.117615 541.369568,466.256958 535.695129,461.731812 
z"/>
<path fill="#0286D1" opacity="1.000000" stroke="none" 
	d="
M551.258728,381.805054 
	C554.217407,390.462921 562.082520,393.334717 569.814087,397.346985 
	C579.222168,401.923920 588.050537,406.201477 597.113647,410.695801 
	C604.096375,415.670990 610.844360,420.429321 617.754639,425.490204 
	C622.734741,432.336914 628.397644,438.426819 632.207153,445.513031 
	C642.410645,464.493011 647.803711,485.085236 649.635925,506.503601 
	C649.950195,510.177460 647.884827,514.054810 646.585876,517.963928 
	C638.459656,520.790100 630.788757,523.943542 622.845520,526.089294 
	C609.543335,529.682800 609.470276,529.412354 601.264038,518.515991 
	C597.435425,509.446625 593.721619,500.721252 590.014343,491.595490 
	C589.538757,489.105042 589.056580,487.015045 588.615845,484.653412 
	C588.484009,484.070251 588.310791,483.758728 588.230225,483.061096 
	C588.106812,481.103943 587.890747,479.532867 587.721375,477.730865 
	C587.768066,477.499908 587.596313,477.061066 587.662903,476.748840 
	C587.524292,475.623260 587.319031,474.809906 587.155273,473.559387 
	C586.637085,469.380280 586.077393,465.638245 585.506592,461.508972 
	C585.011292,459.413818 584.527222,457.705994 584.062134,455.601074 
	C582.410583,450.796814 580.739929,446.389587 579.038208,441.621582 
	C577.937134,439.194183 576.994629,437.048981 575.777710,435.072815 
	C560.025452,409.492828 530.017273,396.121735 500.126312,401.514832 
	C472.338837,406.528412 453.563721,422.308563 443.929443,449.338654 
	C442.472992,454.809784 440.595245,459.898010 440.051605,465.125000 
	C438.147583,483.430939 435.236755,501.389648 425.518646,517.822266 
	C424.303162,519.386230 423.389191,520.762329 422.429169,522.105530 
	C417.182892,529.446106 417.140472,529.595154 408.287933,527.350525 
	C398.102356,524.768005 387.483459,523.291565 378.559753,516.341614 
	C377.664856,512.457703 376.365112,508.928223 376.364716,505.398560 
	C376.364227,500.953003 377.185272,496.459045 378.067810,492.069550 
	C383.378143,465.656403 391.227905,440.438416 412.469025,421.396667 
	C417.557953,417.893372 422.325287,414.549774 427.444427,411.126556 
	C432.682037,408.438843 437.567841,405.830780 442.803345,403.183289 
	C448.768066,400.426697 454.383057,397.709442 459.998047,394.992188 
	C462.843536,393.408936 465.689026,391.825653 469.047119,389.842712 
	C471.271545,386.626160 472.983337,383.809326 474.867371,380.633301 
	C475.610962,377.190613 476.182343,374.107086 476.865601,370.577942 
	C477.972046,364.058502 476.229523,359.243469 472.053375,354.407776 
	C467.806854,349.490601 464.302521,343.578278 461.873260,337.538574 
	C459.047241,330.512360 454.971680,324.579865 450.119263,318.580322 
	C448.573883,313.811920 447.087738,309.411530 445.644348,304.623932 
	C445.406433,302.155365 445.125793,300.074036 444.845184,297.992676 
	C444.898346,297.244537 444.951477,296.496429 445.091400,295.033691 
	C446.793884,291.177612 448.490845,288.073944 449.980621,284.873840 
	C450.490692,283.778229 450.758057,282.419495 450.664825,281.217621 
	C450.089081,273.797516 449.378693,266.387878 448.713074,258.974762 
	C449.278992,253.190048 449.343811,247.303253 450.497681,241.638290 
	C455.467560,217.238480 470.259979,202.911957 495.388824,198.345306 
	C509.960052,195.697296 524.580444,196.261505 538.932495,200.074814 
	C549.119263,202.781403 557.033447,208.297089 560.267090,219.025848 
	C560.606934,220.153397 561.550720,221.474945 562.570374,221.964050 
	C574.022583,227.457489 577.202454,237.607101 577.951050,249.082108 
	C578.210449,253.059860 578.019348,257.067017 578.021484,261.967224 
	C577.696899,265.485016 577.253235,268.088623 577.099548,270.709229 
	C576.742676,276.796387 575.284851,282.938232 579.467468,288.603790 
	C580.799744,290.408417 580.937866,293.287842 581.120850,295.713318 
	C581.804993,304.780640 578.926575,313.023163 574.566650,321.111755 
	C569.700928,325.537811 567.455933,331.140991 564.760681,336.628510 
	C561.646912,342.967987 558.150391,349.498199 553.340942,354.532440 
	C546.972900,361.198090 547.890930,368.077118 549.665771,375.940308 
	C550.139832,378.119385 550.699280,379.962219 551.258728,381.805054 
z"/>
<path fill="#0287D1" opacity="1.000000" stroke="none" 
	d="
M233.930130,557.998901 
	C236.119049,540.390442 240.001434,523.261353 247.897552,507.207825 
	C254.737839,493.300934 264.883911,482.544281 278.535980,475.311493 
	C288.237915,470.171417 298.383514,465.860931 308.021240,460.611328 
	C312.108002,458.385315 315.401215,454.702423 319.375031,451.089508 
	C320.426147,447.335754 321.157349,444.174164 322.014709,440.632446 
	C323.204895,434.608582 322.289520,429.805725 318.352539,425.060394 
	C314.381104,420.273560 311.741241,414.391907 308.429962,409.044403 
	C305.425446,404.192200 302.302429,399.413300 299.144287,394.261292 
	C297.469879,389.624054 295.882782,385.327667 294.295685,381.031281 
	C294.111938,374.493042 292.407410,367.675262 298.600067,362.472412 
	C299.365997,361.828918 298.516907,359.323181 298.501160,357.679565 
	C298.397919,346.919922 296.966309,335.960999 298.515198,325.442169 
	C301.628815,304.297150 316.527527,290.449738 337.631439,287.095245 
	C351.077759,284.957886 364.501099,285.037933 377.626129,289.158020 
	C385.199585,291.535431 391.390991,295.782379 394.800781,304.100800 
	C395.617432,305.859741 395.926056,307.552551 396.854370,308.023254 
	C405.968689,312.644836 408.812378,321.028259 410.597778,330.606781 
	C410.787994,335.704559 410.904419,340.351044 410.874512,345.375549 
	C410.158875,349.826019 409.840240,353.954742 408.942963,357.953613 
	C408.191681,361.301941 409.183624,363.591095 411.888550,365.829285 
	C412.402710,370.472290 412.851013,374.727875 413.168579,379.364075 
	C412.184174,383.125183 411.330475,386.505676 410.265991,390.123444 
	C407.400696,394.148224 404.505280,397.791595 402.137268,401.750458 
	C395.280243,413.214203 388.578247,424.771973 381.921265,436.353668 
	C373.558838,450.902466 368.286743,466.580109 365.054474,483.400269 
	C363.898163,491.458954 362.230286,499.128418 362.012299,506.838928 
	C361.569946,522.484924 368.694336,531.252808 384.331024,535.601135 
	C392.354279,537.882080 400.104004,539.965027 407.938660,542.442444 
	C408.748108,554.170349 415.954895,560.648621 425.328491,565.871704 
	C429.389069,568.052856 433.239990,570.023438 436.940979,572.286804 
	C435.536438,573.460571 434.281830,574.341553 432.703369,575.309448 
	C428.556000,577.177429 424.849457,580.146973 420.889069,580.536682 
	C402.371338,582.358826 383.795868,584.401062 365.218475,584.644775 
	C324.072083,585.184753 283.064667,583.270142 242.881042,571.534363 
	C236.133453,569.222595 234.597137,563.894592 233.930130,557.998901 
z"/>
<path fill="#0186D1" opacity="1.000000" stroke="none" 
	d="
M624.304565,307.108032 
	C624.605774,306.977753 624.994019,306.926971 625.195740,306.705933 
	C643.668030,286.458618 673.956726,279.667267 699.532104,290.128204 
	C706.433350,292.950958 711.765381,297.433289 714.349609,304.748383 
	C714.805786,306.039642 715.822754,307.459351 716.980347,308.124329 
	C725.876038,313.234772 729.028320,321.571075 729.924133,331.068237 
	C730.329224,335.363037 730.058350,339.721619 730.033936,344.914612 
	C729.302979,350.387543 728.559448,354.988525 728.012085,359.612701 
	C727.873352,360.784302 728.224121,362.071686 728.583252,363.233795 
	C729.768433,367.069824 731.876526,370.817230 732.141113,374.700165 
	C732.688110,382.723785 729.759338,390.041504 725.267578,396.999023 
	C722.995544,400.314850 720.896667,403.391327 718.991699,406.583496 
	C715.618103,412.236633 713.178406,418.698669 708.857239,423.473083 
	C703.051697,429.887665 702.788330,436.542236 704.602173,444.465881 
	C706.047607,447.963470 707.487183,451.061615 708.926697,454.159760 
	C712.879822,456.811737 716.652039,459.800812 720.826050,462.041321 
	C728.138672,465.966522 735.694641,469.438934 743.154236,473.089630 
	C762.176270,482.398926 774.972900,497.216583 782.154541,517.042542 
	C787.435181,531.620544 791.699707,546.409607 791.703125,562.772095 
	C789.984680,565.611877 788.473633,567.760986 786.594360,569.971924 
	C774.148438,573.028809 762.205688,576.832764 749.968750,578.872070 
	C708.062256,585.855896 665.848511,586.344727 623.609070,582.718689 
	C613.579712,581.857727 602.786865,583.231812 593.725708,576.043213 
	C591.921509,574.892517 590.359741,573.981873 588.718140,572.795044 
	C589.035828,571.927551 589.433350,571.336182 590.226074,570.671997 
	C592.610474,569.503052 594.519165,568.215210 596.601929,567.342712 
	C608.077515,562.535583 616.852417,555.528870 618.239990,541.898010 
	C625.760681,539.863098 632.884949,537.900879 640.385986,535.937500 
	C652.894226,532.479736 663.100342,526.398560 663.777344,512.512634 
	C664.222412,503.384827 662.117249,494.132660 661.178955,484.518127 
	C657.744812,465.139557 651.459106,447.156647 641.588928,430.607513 
	C633.561707,417.148560 624.885071,404.076904 616.426758,390.502441 
	C615.792664,388.718140 615.228210,387.264954 614.633423,385.384491 
	C613.277832,377.309509 610.816223,369.507416 618.011047,363.133331 
	C618.514709,362.687103 618.250732,361.283417 618.212402,360.330322 
	C617.805176,350.218903 617.371399,340.108551 617.074646,329.609680 
	C619.571106,321.850250 621.937805,314.479126 624.304565,307.108032 
z"/>
<path fill="#F8F8F9" opacity="1.000000" stroke="none" 
	d="
M623.868042,307.078766 
	C621.937805,314.479126 619.571106,321.850250 616.714355,329.525757 
	C615.500061,328.064117 614.775696,326.298126 613.841125,324.019531 
	C611.253418,333.166626 608.451538,341.583191 606.583313,350.202148 
	C605.355469,355.866638 605.031494,361.829926 605.120605,367.646881 
	C605.203003,373.026917 607.139160,378.407318 604.139587,383.623718 
	C603.703186,384.382599 604.202209,385.621490 603.973145,386.566711 
	C602.242310,393.708679 604.714539,402.153900 597.433105,407.631012 
	C596.859070,408.062805 597.045715,409.505890 596.878906,410.479004 
	C588.050537,406.201477 579.222168,401.923920 570.172302,397.385468 
	C574.708618,393.845306 573.182861,387.004456 569.926086,383.551849 
	C567.575684,381.060059 566.752625,378.457336 568.115967,375.502869 
	C570.500732,370.334869 573.336914,365.375763 575.739563,360.215332 
	C580.250977,350.525696 584.793091,340.840698 588.916992,330.984131 
	C591.204956,325.515778 592.524231,319.650208 594.558167,314.064911 
	C596.203125,309.547882 602.950745,309.229553 608.078918,313.265289 
	C608.694580,313.749817 609.247253,314.314575 610.144836,315.128418 
	C613.719055,310.706146 616.859741,305.839203 623.868042,307.078766 
z"/>
<path fill="#E8E9E9" opacity="1.000000" stroke="none" 
	d="
M403.835144,665.001526 
	C405.960663,667.219360 407.700073,669.488586 409.650635,672.346313 
	C410.073761,675.618896 409.547424,678.659302 410.638031,680.919312 
	C413.737091,687.341309 419.604828,690.858093 426.343353,691.930908 
	C441.122345,694.283752 455.955017,696.535461 470.852417,697.836365 
	C483.537323,698.944092 496.349396,699.075867 509.094482,698.893188 
	C524.995789,698.665222 540.918884,698.099426 556.771179,696.880676 
	C570.585388,695.818604 584.357788,693.937317 598.067993,691.880005 
	C610.493896,690.015381 616.585938,683.448181 617.907227,671.793823 
	C619.215332,669.728149 620.523376,667.662476 621.994385,665.290894 
	C623.417664,666.223145 625.712708,667.410767 625.776001,668.707336 
	C626.327759,679.997253 623.973572,691.784485 612.561401,697.685852 
	C607.258179,700.428101 601.066711,701.911560 595.103210,702.825623 
	C581.405945,704.925049 567.643188,707.037964 553.830933,707.845581 
	C531.988037,709.122620 510.039764,710.485962 488.216156,709.670349 
	C466.833557,708.871277 445.283203,707.833801 424.334900,702.119263 
	C406.703430,697.309570 399.296326,688.563110 400.144287,671.561646 
	C400.254944,669.342651 402.299988,667.220154 403.835144,665.001526 
z"/>
<path fill="#E6E8E8" opacity="1.000000" stroke="none" 
	d="
M433.027222,575.222534 
	C434.281830,574.341553 435.536438,573.460571 437.332001,572.293396 
	C442.900818,573.058105 447.983887,573.912231 452.918610,575.295532 
	C454.184937,575.650574 454.983368,577.674805 455.996765,578.932190 
	C443.986298,585.121033 432.681427,592.259399 423.606506,602.933594 
	C418.169617,604.121826 413.064514,605.573242 407.864563,606.116760 
	C398.363831,607.109741 388.810669,607.624207 379.272247,608.226074 
	C372.003082,608.684753 364.720154,609.311401 357.448273,609.253052 
	C346.253784,609.163330 335.063965,608.534790 323.871063,608.169128 
	C320.378326,608.054932 316.858429,608.293640 313.391418,607.955627 
	C298.422485,606.496277 283.424530,605.207214 268.528290,603.184814 
	C261.367279,602.212585 254.293182,600.109558 247.381393,597.890503 
	C230.841354,592.580139 225.373138,574.245972 232.084702,559.048706 
	C232.258301,558.655640 232.832062,558.439331 233.574677,558.069763 
	C234.597137,563.894592 236.133453,569.222595 242.670746,571.851562 
	C242.278687,574.161072 241.046951,576.208618 241.548538,577.655212 
	C243.277023,582.640320 246.120834,586.885559 251.859955,588.104004 
	C256.698517,589.131104 261.516754,590.254761 266.358307,591.267151 
	C288.120667,595.818176 310.232574,597.480408 332.357574,597.833069 
	C356.678192,598.220825 381.046997,597.885193 405.334900,596.668518 
	C412.915833,596.288696 420.640106,592.724976 427.675659,589.328186 
	C433.814667,586.364197 435.346130,580.329224 433.027222,575.222534 
z"/>
<path fill="#E6E8E8" opacity="1.000000" stroke="none" 
	d="
M588.798035,573.071167 
	C590.359741,573.981873 591.921509,574.892517 593.717651,576.422485 
	C591.809448,582.180176 593.442566,586.433716 597.876526,589.078857 
	C601.521423,591.253296 605.684753,593.297302 609.811279,593.792908 
	C624.560303,595.564209 639.380798,597.604309 654.194092,597.769592 
	C675.230896,598.004272 696.312988,597.125488 717.322693,595.849182 
	C732.128113,594.949768 746.895447,592.933228 761.576965,590.730408 
	C767.349915,589.864136 773.053040,587.590515 778.408569,585.131470 
	C784.591492,582.292542 788.109802,575.217285 786.962646,569.910156 
	C788.473633,567.760986 789.984680,565.611877 791.727295,563.226013 
	C793.300537,564.814514 795.639404,566.542480 795.828369,568.480042 
	C797.571289,586.352966 789.006409,596.403198 772.188721,599.692932 
	C754.225037,603.206970 735.891663,604.977600 717.655945,606.905823 
	C704.329407,608.314819 690.896057,609.494141 677.516907,609.428772 
	C660.133362,609.343872 642.738037,608.177979 625.387085,606.930603 
	C619.781982,606.527710 614.309509,604.362732 608.758545,603.081116 
	C606.673218,602.599609 604.537354,602.337280 601.970581,601.963867 
	C592.842834,591.391785 581.386902,584.707825 569.174561,578.232910 
	C570.520752,576.767029 571.934204,575.601624 573.547485,575.150085 
	C577.314697,574.095459 581.159668,573.281067 585.013184,572.594299 
	C586.208557,572.381348 587.532776,572.891907 588.798035,573.071167 
z"/>
<path fill="#F8F8F9" opacity="1.000000" stroke="none" 
	d="
M410.524017,330.155487 
	C408.812378,321.028259 405.968689,312.644836 396.854370,308.023254 
	C395.926056,307.552551 395.617432,305.859741 395.020935,304.367889 
	C395.685699,303.990631 396.496124,304.224915 396.993317,303.930359 
	C401.820526,301.070892 406.661621,300.975525 411.961304,302.802795 
	C413.422150,303.306458 415.709930,301.547089 417.567932,300.713837 
	C418.729126,300.193085 419.796204,299.462433 421.039825,298.748901 
	C421.039825,301.109467 421.039825,302.713226 421.039825,304.317017 
	C422.516785,303.747589 424.007874,303.212006 425.467926,302.602203 
	C429.272705,301.013214 430.236511,303.778290 430.853394,306.385925 
	C433.319672,316.811829 435.104889,327.427277 438.107605,337.690063 
	C441.190094,348.225250 442.884369,359.211853 448.705170,368.980103 
	C450.848480,372.576904 449.975616,377.845947 451.313690,382.088867 
	C452.308167,385.242249 454.542297,388.042877 456.437134,390.857330 
	C457.331055,392.185150 458.724426,393.176666 459.944763,394.656372 
	C454.383057,397.709442 448.768066,400.426697 442.462280,402.957733 
	C439.748444,398.326508 435.927155,400.447388 432.706238,400.197632 
	C431.497589,400.103912 429.461304,399.557190 429.294098,398.859528 
	C427.363922,390.805206 424.096893,382.628723 424.361755,374.589355 
	C424.816711,360.779846 421.322754,348.115234 417.242218,335.354004 
	C416.187042,332.054047 414.468506,329.685638 410.524017,330.155487 
z"/>
<path fill="#394149" opacity="1.000000" stroke="none" 
	d="
M361.452759,787.810791 
	C357.588074,788.072693 354.049469,787.974243 350.753754,788.820984 
	C347.035004,789.776428 345.054413,792.773926 344.884521,796.653015 
	C344.712433,800.581177 347.124695,802.880737 350.507965,804.013428 
	C354.445312,805.331482 358.535736,806.185181 362.530792,807.340576 
	C365.241577,808.124634 367.946533,808.967163 370.576904,809.983276 
	C376.834900,812.400635 380.890961,816.610229 381.167755,823.679504 
	C381.442871,830.706299 378.361267,836.172180 372.344177,839.350342 
	C362.404022,844.600647 352.117188,844.496704 342.221375,839.069031 
	C336.683075,836.031372 333.998962,830.755737 334.039764,824.721375 
	C338.658264,823.656738 341.930206,823.809204 344.650085,829.218323 
	C348.281525,836.440186 364.318176,836.824280 369.622375,830.600464 
	C373.236786,826.359436 372.128082,820.410339 366.813568,818.214478 
	C362.391876,816.387512 357.601349,815.452698 352.972809,814.127625 
	C351.057220,813.579346 349.103516,813.142578 347.226349,812.485840 
	C339.695862,809.851501 335.620270,804.911072 335.272400,798.122131 
	C334.907562,791.002319 338.880219,784.531860 345.985687,781.611206 
	C354.405060,778.150452 362.922913,778.142883 371.081543,782.507874 
	C376.730469,785.530151 379.708160,790.471802 380.570770,797.166992 
	C375.968262,797.392151 371.757660,799.057495 369.436707,792.893372 
	C368.571747,790.596130 364.497101,789.507507 361.452759,787.810791 
z"/>
<path fill="#394149" opacity="1.000000" stroke="none" 
	d="
M486.958313,796.019226 
	C494.693665,794.902954 500.743683,797.073242 505.778748,803.165833 
	C505.778748,795.304871 505.778748,787.443970 505.778748,779.312256 
	C508.917542,779.312256 511.511566,779.312256 514.513184,779.312256 
	C514.513184,799.889709 514.513184,820.472778 514.513184,841.458740 
	C511.943481,841.458740 509.231140,841.458740 506.129944,841.458740 
	C506.014740,839.486023 505.895844,837.449768 505.712860,834.316467 
	C500.167725,841.329834 493.802887,844.110229 485.931732,841.919006 
	C483.578430,841.263855 481.062317,840.311584 479.245697,838.762573 
	C471.219269,831.918762 470.387115,822.736389 471.908234,813.148743 
	C473.266144,804.589905 477.732300,798.375000 486.958313,796.019226 
M488.310059,804.557312 
	C479.769409,808.115173 478.744080,823.614990 483.785126,830.043762 
	C487.366577,834.611084 493.448730,836.108276 498.496368,833.511475 
	C504.969025,830.181580 507.591431,820.571167 504.407806,811.847351 
	C501.820374,804.757263 497.306122,802.517151 488.310059,804.557312 
z"/>
<path fill="#394149" opacity="1.000000" stroke="none" 
	d="
M537.597351,797.473755 
	C555.386169,791.720276 567.967712,802.118347 566.771362,821.890564 
	C561.419800,821.890564 555.997681,821.890503 550.575562,821.890503 
	C545.270935,821.890503 539.966309,821.890564 534.216125,821.890564 
	C534.631592,827.433289 536.401489,831.690063 541.340393,833.870178 
	C546.109192,835.975159 551.333435,835.964844 554.812683,832.062683 
	C558.220398,828.240906 561.816895,828.697144 567.240540,828.957825 
	C564.957397,832.345337 563.568481,835.367249 561.345276,837.532532 
	C553.187134,845.478333 532.656006,845.544617 526.744324,829.652588 
	C521.978577,816.840881 526.028259,804.127625 537.597351,797.473755 
M541.552185,815.180054 
	C546.945190,815.180054 552.338196,815.180054 557.787537,815.180054 
	C556.765808,806.897583 552.039246,802.460144 545.522217,803.073547 
	C539.079407,803.680054 534.694031,808.687134 535.156921,815.183228 
	C536.946350,815.183228 538.759949,815.183228 541.552185,815.180054 
z"/>
<path fill="#394149" opacity="1.000000" stroke="none" 
	d="
M422.657776,796.865295 
	C425.481537,796.594299 427.956421,796.594299 431.244904,796.594299 
	C431.244904,803.735535 431.241882,810.824402 431.247040,817.913269 
	C431.248383,819.744873 431.252258,821.576965 431.294952,823.407898 
	C431.466797,830.776550 434.865723,834.611938 441.151459,834.553955 
	C447.405548,834.496216 451.827423,830.066711 451.990906,823.274780 
	C452.175201,815.619446 452.052368,807.956848 452.087189,800.297607 
	C452.092316,799.174255 452.230774,798.051575 452.326111,796.657227 
	C455.320709,796.657227 458.064514,796.657227 461.129089,796.657227 
	C461.129089,811.741760 461.129089,826.657043 461.129089,841.719360 
	C458.271088,841.719360 455.657928,841.719360 452.922485,841.719360 
	C452.678864,839.680481 452.455872,837.814209 452.295746,836.473938 
	C448.204132,838.493286 444.501862,841.243652 440.389404,842.166809 
	C430.408203,844.407288 422.634583,838.138672 422.232147,827.576172 
	C421.846130,817.445251 422.251312,807.284119 422.657776,796.865295 
z"/>
<path fill="#394149" opacity="1.000000" stroke="none" 
	d="
M616.078552,834.418457 
	C616.084290,837.014587 616.084290,839.164673 616.084290,841.612549 
	C613.114014,841.612549 610.386475,841.612549 606.983582,841.612549 
	C606.983582,832.264526 607.155579,822.987000 606.931274,813.719055 
	C606.737915,805.732361 600.705139,801.674988 593.175293,804.101807 
	C588.803528,805.510803 586.035889,809.676941 585.952209,815.562683 
	C585.831604,824.050842 585.921387,832.542053 585.921387,841.449585 
	C582.998657,841.449585 580.287537,841.449585 577.203857,841.449585 
	C577.203857,826.673706 577.203857,811.786560 577.203857,796.608032 
	C579.734192,796.608032 582.177063,796.608032 584.996216,796.608032 
	C585.308716,798.486572 585.645874,800.513367 585.805420,801.472412 
	C590.037903,799.567749 594.086609,796.655273 598.475830,795.989990 
	C608.688171,794.442017 615.559814,800.635681 615.940674,810.976868 
	C616.222656,818.633362 616.045410,826.306641 616.078552,834.418457 
z"/>
<path fill="#394149" opacity="1.000000" stroke="none" 
	d="
M678.417480,815.835693 
	C681.355225,816.685852 684.013794,817.189514 686.426025,818.252197 
	C693.988342,821.583557 696.172974,830.145203 690.846313,836.429626 
	C685.527405,842.705017 678.202271,843.171448 670.666626,842.206909 
	C663.844055,841.333618 658.810608,838.042297 656.551941,831.249390 
	C656.405273,830.808228 656.459167,830.300354 656.393921,829.510925 
	C660.253540,829.116333 663.741394,827.682068 666.739563,832.169006 
	C669.379150,836.119263 678.615784,836.377075 682.434631,833.427307 
	C685.747192,830.868530 685.438416,826.781799 681.434814,825.123169 
	C677.930908,823.671631 674.114990,822.956543 670.416870,821.993164 
	C660.748230,819.474792 656.735779,815.236389 657.478455,808.246155 
	C658.222351,801.245300 664.378296,796.596252 673.343140,795.820801 
	C683.360413,794.954346 692.483276,800.224365 692.511963,808.970520 
	C688.854126,808.904419 685.217529,810.803040 682.476746,805.811768 
	C680.403625,802.036255 672.228455,801.957886 668.776611,804.793884 
	C665.680725,807.337463 666.131897,811.575500 669.926697,813.266235 
	C672.486389,814.406616 675.316528,814.940002 678.417480,815.835693 
z"/>
<path fill="#E8E9E9" opacity="1.000000" stroke="none" 
	d="
M551.683960,381.859558 
	C550.699280,379.962219 550.139832,378.119385 549.761841,375.555634 
	C551.021362,373.418976 552.266663,372.100037 553.150757,370.572083 
	C559.728699,359.203308 566.637085,347.996521 572.559143,336.292297 
	C574.822937,331.818329 577.980774,326.608856 574.851257,320.940369 
	C578.926575,313.023163 581.804993,304.780640 581.120850,295.713318 
	C580.937866,293.287842 580.799744,290.408417 579.467468,288.603790 
	C575.284851,282.938232 576.742676,276.796387 577.099548,270.709229 
	C577.253235,268.088623 577.696899,265.485016 578.083923,262.431030 
	C579.437500,262.969299 581.546936,263.747467 581.844666,264.967651 
	C582.897278,269.281555 583.626648,273.725677 583.940125,278.158539 
	C584.775574,289.971924 585.314331,301.806061 586.002380,313.630127 
	C586.645203,324.677856 582.720215,334.436493 577.501099,343.817413 
	C571.271118,355.015472 565.134460,366.271698 558.576477,377.275726 
	C557.331604,379.364655 554.310608,380.395172 551.683960,381.859558 
z"/>
<path fill="#E6E8E8" opacity="1.000000" stroke="none" 
	d="
M725.528015,396.811798 
	C729.759338,390.041504 732.688110,382.723785 732.141113,374.700165 
	C731.876526,370.817230 729.768433,367.069824 728.583252,363.233795 
	C728.224121,362.071686 727.873352,360.784302 728.012085,359.612701 
	C728.559448,354.988525 729.302979,350.387543 730.086975,345.378448 
	C731.790710,346.982178 734.591614,348.890076 734.758362,351.005524 
	C735.418518,359.383270 735.102295,367.832428 735.457581,376.242065 
	C735.643677,380.647156 736.253479,385.065460 737.055237,389.406982 
	C738.744263,398.551788 735.859924,406.824249 732.017334,414.707855 
	C727.007019,424.987213 721.486877,435.029053 715.873352,444.996918 
	C714.118164,448.113525 711.351440,450.660431 708.987183,453.813904 
	C707.487183,451.061615 706.047607,447.963470 705.006592,444.444824 
	C706.594788,442.875458 708.078125,441.906250 708.913879,440.540741 
	C710.717041,437.594574 712.298035,434.497009 713.773438,431.368683 
	C718.044983,422.311462 722.423706,413.293488 726.268433,404.055389 
	C727.088501,402.084869 725.829285,399.248993 725.528015,396.811798 
z"/>
<path fill="#394149" opacity="1.000000" stroke="none" 
	d="
M645.761536,803.756714 
	C643.676270,803.817383 642.051941,803.890259 640.052429,803.979919 
	C640.052429,812.706787 639.726196,821.157593 640.178223,829.566589 
	C640.437622,834.391907 644.573120,834.719666 648.804688,834.042908 
	C649.078430,836.738037 649.306335,838.982544 649.629944,842.169067 
	C645.425049,841.908203 641.599670,842.149231 638.013123,841.336487 
	C632.601807,840.110291 630.938232,835.715942 630.891052,830.668579 
	C630.809082,821.892395 630.868286,813.114929 630.868286,804.145813 
	C628.379395,803.903198 626.448181,803.714966 624.228516,803.498657 
	C624.228516,801.270935 624.228516,799.188171 624.228516,796.755249 
	C626.184265,796.531738 628.228210,796.298096 630.644653,796.021973 
	C630.644653,792.374084 630.644653,788.943054 630.644653,785.187134 
	C633.916382,785.187134 636.788696,785.187134 640.145264,785.187134 
	C640.145264,788.832581 640.145264,792.263794 640.145264,796.137085 
	C643.200989,796.137085 645.782715,796.137085 648.956848,796.137085 
	C648.055542,799.105591 651.597961,802.763550 645.761536,803.756714 
z"/>
<path fill="#394149" opacity="1.000000" stroke="none" 
	d="
M390.565582,796.410767 
	C393.551270,796.739258 394.663391,795.705139 394.497559,793.064941 
	C394.343292,790.608765 394.464630,788.135193 394.464630,785.390991 
	C397.608765,785.390991 400.340088,785.390991 403.655273,785.390991 
	C403.655273,788.891663 403.655273,792.297058 403.655273,796.066650 
	C406.780792,796.244629 409.358887,796.391418 412.327911,796.560425 
	C412.327911,798.875366 412.327911,801.084290 412.327911,803.614380 
	C409.598511,803.759155 406.857666,803.904602 403.793518,804.067139 
	C403.793518,812.909851 403.327484,821.529236 404.122437,830.030640 
	C404.320190,832.145691 408.593170,833.879639 410.993011,835.788696 
	C411.428894,835.395569 411.864777,835.002441 412.300659,834.609253 
	C412.524078,836.855713 412.747467,839.102173 413.041840,842.062012 
	C409.970428,842.062012 407.358826,842.233215 404.777130,842.028198 
	C398.404358,841.521912 395.115051,838.360474 394.791168,831.817139 
	C394.429810,824.518127 394.577057,817.193787 394.510620,809.880371 
	C394.494354,808.087952 394.508209,806.295288 394.508209,804.198059 
	C392.099274,803.981689 390.186066,803.809814 387.824310,803.597656 
	C388.924133,801.114014 384.971741,797.576355 390.565582,796.410767 
z"/>
<path fill="#E8E9E9" opacity="1.000000" stroke="none" 
	d="
M293.875793,381.029236 
	C295.882782,385.327667 297.469879,389.624054 298.960876,394.653748 
	C299.009247,398.742584 298.247375,402.480774 299.471558,405.380432 
	C302.856354,413.397644 306.507446,421.423157 311.165100,428.737396 
	C314.010620,433.205933 315.725128,439.233398 321.888519,441.012573 
	C321.157349,444.174164 320.426147,447.335754 319.435974,450.742432 
	C316.825989,449.399353 313.655884,448.330261 312.264252,446.134186 
	C305.873596,436.049377 299.653687,425.825043 294.002045,415.312347 
	C288.627930,405.315857 287.693420,394.443481 290.242462,383.391693 
	C290.469177,382.408752 292.345673,381.806335 293.875793,381.029236 
z"/>
<path fill="#E8E9E9" opacity="1.000000" stroke="none" 
	d="
M476.753754,371.023560 
	C476.182343,374.107086 475.610962,377.190613 474.504150,380.634308 
	C471.852234,379.405670 469.510803,378.037598 467.678131,376.170197 
	C465.559296,374.011261 463.888519,371.412598 462.023193,369.004883 
	C461.373260,367.559448 460.723328,366.113983 459.997650,363.972229 
	C457.454712,358.869659 455.041962,354.431274 452.474518,350.084259 
	C451.959839,349.212799 450.856293,348.689117 450.024261,348.005096 
	C450.017914,347.555206 450.011566,347.105286 449.958557,345.951080 
	C447.280273,338.501709 444.648621,331.756653 442.016968,325.011627 
	C442.011475,324.255371 442.006012,323.499115 441.955078,322.050171 
	C441.281128,320.906555 440.652588,320.455658 440.024048,320.004761 
	C440.021210,319.556488 440.018372,319.108215 440.301819,318.179260 
	C440.399841,316.137054 440.211639,314.575562 440.023407,313.014069 
	C440.347778,311.586121 440.672180,310.158142 441.265869,308.168396 
	C442.890656,306.741455 444.246124,305.876282 445.601624,305.011139 
	C447.087738,309.411530 448.573883,313.811920 449.747833,318.653656 
	C448.984680,319.879700 448.006256,320.799347 448.166992,321.427582 
	C449.352325,326.060913 450.080872,330.990997 452.242981,335.158569 
	C457.352142,345.006775 462.885559,354.671478 468.892548,363.994720 
	C470.666351,366.747864 471.334106,371.905548 476.753754,371.023560 
z"/>
<path fill="#E6E8E8" opacity="1.000000" stroke="none" 
	d="
M448.349792,258.988037 
	C449.378693,266.387878 450.089081,273.797516 450.664825,281.217621 
	C450.758057,282.419495 450.490692,283.778229 449.980621,284.873840 
	C448.490845,288.073944 446.793884,291.177612 445.036163,294.661011 
	C443.598846,292.815918 441.057983,290.528198 441.225281,288.459503 
	C441.923492,279.826019 443.314545,271.237701 444.772705,262.687592 
	C445.006622,261.316040 446.874176,260.223083 448.349792,258.988037 
z"/>
<path fill="#E6E8E8" opacity="1.000000" stroke="none" 
	d="
M462.057617,369.365967 
	C463.888519,371.412598 465.559296,374.011261 467.678131,376.170197 
	C469.510803,378.037598 471.852234,379.405670 474.331970,380.993469 
	C472.983337,383.809326 471.271545,386.626160 469.264404,389.565002 
	C466.676697,383.033691 464.384338,376.380371 462.057617,369.365967 
z"/>
<path fill="#E6E8E8" opacity="1.000000" stroke="none" 
	d="
M441.748413,325.244507 
	C444.648621,331.756653 447.280273,338.501709 449.957184,345.613617 
	C449.417847,345.721527 448.453491,345.598175 448.305389,345.183411 
	C445.968323,338.636841 443.736145,332.052795 441.748413,325.244507 
z"/>
<path fill="#E6E8E8" opacity="1.000000" stroke="none" 
	d="
M450.059937,348.369812 
	C450.856293,348.689117 451.959839,349.212799 452.474518,350.084259 
	C455.041962,354.431274 457.454712,358.869659 459.962219,363.627747 
	C454.067261,361.729187 454.053436,355.302155 450.933289,351.064117 
	C450.464386,350.427246 450.365570,349.517883 450.059937,348.369812 
z"/>
<path fill="#E6E8E8" opacity="1.000000" stroke="none" 
	d="
M445.644348,304.623932 
	C444.246124,305.876282 442.890656,306.741455 441.275879,307.798096 
	C439.607483,303.917206 440.273071,300.500641 444.494324,298.044861 
	C445.125793,300.074036 445.406433,302.155365 445.644348,304.623932 
z"/>
<path fill="#E6E8E8" opacity="1.000000" stroke="none" 
	d="
M439.755371,313.243164 
	C440.211639,314.575562 440.399841,316.137054 440.306091,317.843048 
	C439.845215,316.482452 439.666290,314.977386 439.755371,313.243164 
z"/>
<path fill="#E6E8E8" opacity="1.000000" stroke="none" 
	d="
M440.063110,320.322021 
	C440.652588,320.455658 441.281128,320.906555 441.955811,321.672028 
	C441.368744,321.537476 440.735443,321.088379 440.063110,320.322021 
z"/>
<path fill="#D9DCDD" opacity="1.000000" stroke="none" 
	d="
M617.520569,671.839172 
	C616.585938,683.448181 610.493896,690.015381 598.067993,691.880005 
	C584.357788,693.937317 570.585388,695.818604 556.771179,696.880676 
	C540.918884,698.099426 524.995789,698.665222 509.094482,698.893188 
	C496.349396,699.075867 483.537323,698.944092 470.852417,697.836365 
	C455.955017,696.535461 441.122345,694.283752 426.343353,691.930908 
	C419.604828,690.858093 413.737091,687.341309 410.638031,680.919312 
	C409.547424,678.659302 410.073761,675.618896 409.915009,672.564026 
	C430.180328,678.859863 451.126251,681.388794 472.205902,682.888611 
	C502.442871,685.040039 532.683838,684.810608 562.891174,682.113770 
	C581.304504,680.469849 599.510254,677.718994 617.520569,671.839172 
z"/>
<path fill="#DCDFE1" opacity="1.000000" stroke="none" 
	d="
M444.119934,449.019379 
	C453.563721,422.308563 472.338837,406.528412 500.126312,401.514832 
	C530.017273,396.121735 560.025452,409.492828 575.777710,435.072815 
	C576.994629,437.048981 577.937134,439.194183 578.668518,441.632019 
	C575.009949,442.627258 565.370605,437.013306 564.109863,433.637634 
	C561.710266,427.212738 555.486511,425.287659 550.351685,422.234192 
	C549.150635,421.519928 546.744751,422.831787 544.893188,423.211426 
	C529.193420,414.886627 512.672913,413.473480 495.558746,417.482971 
	C482.534424,420.534271 472.283875,427.737762 463.909546,438.811859 
	C459.997467,441.001190 456.344208,442.566437 453.611450,445.117737 
	C450.774567,447.766266 448.082703,449.629364 444.119934,449.019379 
z"/>
<path fill="#EAEDEE" opacity="1.000000" stroke="none" 
	d="
M443.929443,449.338654 
	C448.082703,449.629364 450.774567,447.766266 453.611450,445.117737 
	C456.344208,442.566437 459.997467,441.001190 463.633484,438.997986 
	C455.221375,453.186951 454.246979,469.375885 451.943451,485.294708 
	C448.990021,505.704803 441.029541,523.901550 426.461884,538.867737 
	C421.960419,543.492249 422.065460,545.320679 427.050873,550.605103 
	C426.300629,551.912415 425.167969,552.781433 425.127228,553.698853 
	C424.950592,557.678528 425.092621,561.672363 425.118774,565.661011 
	C415.954895,560.648621 408.748108,554.170349 408.340240,542.430908 
	C414.601288,541.386536 419.376221,538.267639 422.469421,533.555298 
	C425.514313,528.916565 429.217957,523.852356 425.798889,517.619202 
	C435.236755,501.389648 438.147583,483.430939 440.051605,465.125000 
	C440.595245,459.898010 442.472992,454.809784 443.929443,449.338654 
z"/>
<path fill="#DCDFE1" opacity="1.000000" stroke="none" 
	d="
M535.900940,462.026489 
	C541.369568,466.256958 546.198853,471.117615 552.026306,473.848816 
	C557.086670,476.220490 557.859192,478.794098 556.325562,483.303894 
	C547.149963,483.797913 539.827332,479.378204 525.758484,464.701141 
	C511.520905,482.443604 492.302216,488.008942 470.175842,487.199005 
	C470.175842,484.116913 470.175842,481.363770 470.175842,478.550110 
	C476.874847,477.921967 483.574127,477.908112 489.995605,476.565613 
	C503.993347,473.639191 514.941650,466.029144 522.396851,453.582184 
	C523.461060,451.805389 525.487915,450.605225 527.069275,449.138214 
	C528.391113,450.785187 529.831665,452.352295 531.006348,454.098267 
	C532.671875,456.573730 534.141663,459.180939 535.900940,462.026489 
z"/>
<path fill="#EAEDEE" opacity="1.000000" stroke="none" 
	d="
M587.674683,477.961823 
	C587.890747,479.532867 588.106812,481.103943 588.227417,483.329651 
	C588.279419,484.297882 588.426941,484.611481 588.574402,484.925049 
	C589.056580,487.015045 589.538757,489.105042 589.659058,491.659485 
	C584.925659,496.729523 588.572388,500.842133 590.067261,505.110291 
	C592.834595,513.012207 595.550598,520.932617 591.862061,529.319275 
	C587.581787,521.368835 582.275879,513.781372 579.298584,505.369751 
	C576.073242,496.257172 574.988953,486.382324 573.026184,476.828552 
	C571.265503,468.258820 569.579895,459.673706 568.053711,450.417603 
	C571.961914,449.461273 575.103638,450.232941 577.875793,453.177063 
	C579.311218,454.701538 581.948669,455.094177 584.043091,455.998169 
	C584.527222,457.705994 585.011292,459.413818 585.100647,461.569580 
	C583.940125,464.257904 582.463318,466.543884 582.603333,468.726135 
	C582.750977,471.028473 583.208435,474.335175 587.113770,473.996521 
	C587.319031,474.809906 587.524292,475.623260 587.560181,476.849121 
	C587.279480,477.565186 587.374084,477.798584 587.674683,477.961823 
z"/>
<path fill="#E6E8E8" opacity="1.000000" stroke="none" 
	d="
M591.964539,529.632751 
	C595.550598,520.932617 592.834595,513.012207 590.067261,505.110291 
	C588.572388,500.842133 584.925659,496.729523 589.652466,492.059937 
	C593.721619,500.721252 597.435425,509.446625 600.907043,518.678894 
	C600.339417,520.938416 599.433472,522.817627 599.783630,524.422852 
	C601.910828,534.174377 610.530457,537.434875 617.843506,541.970703 
	C616.852417,555.528870 608.077515,562.535583 596.601929,567.342712 
	C594.519165,568.215210 592.610474,569.503052 590.293091,570.241760 
	C591.812927,566.296387 593.513550,562.621582 595.557556,559.148865 
	C597.096191,556.534790 599.712036,554.366516 597.932678,550.852112 
	C598.803772,549.894470 599.610779,548.867493 600.557861,547.992188 
	C603.423157,545.343994 603.320068,542.735046 600.763367,539.915161 
	C597.802002,536.648926 594.960510,533.273987 591.964539,529.632751 
z"/>
<path fill="#D9DCDD" opacity="1.000000" stroke="none" 
	d="
M425.328461,565.871704 
	C425.092621,561.672363 424.950592,557.678528 425.127228,553.698853 
	C425.167969,552.781433 426.300629,551.912415 427.320099,550.851440 
	C443.376099,561.220581 461.200806,564.273987 479.618591,565.270081 
	C479.816345,565.811401 480.014099,566.352722 480.211853,566.893982 
	C472.377228,570.879639 464.542633,574.865234 456.352386,578.891541 
	C454.983368,577.674805 454.184937,575.650574 452.918610,575.295532 
	C447.983887,573.912231 442.900818,573.058105 437.481934,572.000549 
	C433.239990,570.023438 429.389069,568.052856 425.328461,565.871704 
z"/>
<path fill="#D9DCDD" opacity="1.000000" stroke="none" 
	d="
M597.618408,551.001465 
	C599.712036,554.366516 597.096191,556.534790 595.557556,559.148865 
	C593.513550,562.621582 591.812927,566.296387 589.897827,570.314575 
	C589.433350,571.336182 589.035828,571.927551 588.718140,572.795044 
	C587.532776,572.891907 586.208557,572.381348 585.013184,572.594299 
	C581.159668,573.281067 577.314697,574.095459 573.547485,575.150085 
	C571.934204,575.601624 570.520752,576.767029 568.927856,578.004761 
	C561.156433,574.694702 553.473633,570.987854 545.790771,567.281067 
	C545.950989,566.687866 546.111145,566.094666 546.271301,565.501465 
	C564.316345,564.254883 581.936951,561.556824 597.618408,551.001465 
z"/>
<path fill="#E6E8E8" opacity="1.000000" stroke="none" 
	d="
M584.062134,455.601074 
	C581.948669,455.094177 579.311218,454.701538 577.875793,453.177063 
	C575.103638,450.232941 571.961914,449.461273 568.034668,450.036682 
	C562.960449,439.216827 555.585388,430.236053 545.069336,423.493591 
	C546.744751,422.831787 549.150635,421.519928 550.351685,422.234192 
	C555.486511,425.287659 561.710266,427.212738 564.109863,433.637634 
	C565.370605,437.013306 575.009949,442.627258 578.699585,441.992828 
	C580.739929,446.389587 582.410583,450.796814 584.062134,455.601074 
z"/>
<path fill="#EAEDEE" opacity="1.000000" stroke="none" 
	d="
M410.476807,389.886139 
	C411.330475,386.505676 412.184174,383.125183 413.529297,379.373779 
	C415.331390,380.102264 417.720337,381.152313 417.773346,382.309357 
	C418.063965,388.650665 418.595215,395.170593 417.441711,401.329071 
	C416.500214,406.355469 413.218750,410.922760 411.207367,415.789703 
	C410.866516,416.614502 411.701019,417.925018 412.005859,419.435608 
	C412.061951,420.425537 412.104675,420.990997 412.147400,421.556427 
	C391.227905,440.438416 383.378143,465.656403 378.067810,492.069550 
	C377.185272,496.459045 376.364227,500.953003 376.364716,505.398560 
	C376.365112,508.928223 377.664856,512.457703 378.190765,516.487000 
	C377.826965,518.970703 376.954437,521.246094 377.629944,522.882324 
	C379.414062,527.203857 381.869354,531.248352 384.057465,535.403137 
	C368.694336,531.252808 361.569946,522.484924 362.012299,506.838928 
	C362.230286,499.128418 363.898163,491.458954 365.422913,483.384491 
	C367.279419,481.349915 369.120056,479.902069 369.879059,478.018372 
	C372.933441,470.437958 373.903534,462.195679 379.178589,455.285614 
	C384.772430,447.957977 388.657867,439.334290 394.179840,431.941742 
	C402.823090,420.370575 410.182190,408.414337 412.263275,393.788422 
	C412.549072,391.779724 413.368652,390.164215 410.476807,389.886139 
z"/>
<path fill="#EAEDEE" opacity="1.000000" stroke="none" 
	d="
M614.663696,385.811737 
	C615.228210,387.264954 615.792664,388.718140 616.042358,390.668335 
	C615.313049,393.422791 613.922363,396.076721 614.650757,397.870117 
	C618.044678,406.226959 621.531006,414.622894 625.935852,422.470703 
	C630.173767,430.020966 636.011841,436.665924 640.347961,444.170227 
	C644.617188,451.558777 648.134277,459.419708 651.491150,467.282684 
	C653.347534,471.630920 654.347961,476.372742 655.451660,481.004547 
	C656.220947,484.233307 657.994019,485.450500 661.154114,484.936188 
	C662.117249,494.132660 664.222412,503.384827 663.777344,512.512634 
	C663.100342,526.398560 652.894226,532.479736 640.425049,535.593872 
	C640.970398,534.080139 642.074707,533.014832 642.696167,531.718140 
	C644.804565,527.318848 649.622925,523.704407 646.918701,517.838196 
	C647.884827,514.054810 649.950195,510.177460 649.635925,506.503601 
	C647.803711,485.085236 642.410645,464.493011 632.207153,445.513031 
	C628.397644,438.426819 622.734741,432.336914 618.129272,425.404175 
	C618.706238,423.961761 619.652893,422.663940 619.331665,421.897430 
	C618.127136,419.022827 616.769226,416.140015 614.993286,413.591736 
	C610.678406,407.400391 607.935181,400.855499 608.999390,393.130524 
	C609.486877,389.591644 609.896240,386.023895 614.663696,385.811737 
z"/>
<path fill="#F0F3F4" opacity="1.000000" stroke="none" 
	d="
M614.633423,385.384491 
	C609.896240,386.023895 609.486877,389.591644 608.999390,393.130524 
	C607.935181,400.855499 610.678406,407.400391 614.993286,413.591736 
	C616.769226,416.140015 618.127136,419.022827 619.331665,421.897430 
	C619.652893,422.663940 618.706238,423.961761 617.967041,425.101624 
	C610.844360,420.429321 604.096375,415.670990 597.113586,410.695801 
	C597.045715,409.505890 596.859070,408.062805 597.433105,407.631012 
	C604.714539,402.153900 602.242310,393.708679 603.973145,386.566711 
	C604.202209,385.621490 603.703186,384.382599 604.139587,383.623718 
	C607.139160,378.407318 605.203003,373.026917 605.120605,367.646881 
	C605.031494,361.829926 605.355469,355.866638 606.583313,350.202148 
	C608.451538,341.583191 611.253418,333.166626 613.841125,324.019531 
	C614.775696,326.298126 615.500061,328.064117 616.584656,329.914001 
	C617.371399,340.108551 617.805176,350.218903 618.212402,360.330322 
	C618.250732,361.283417 618.514709,362.687103 618.011047,363.133331 
	C610.816223,369.507416 613.277832,377.309509 614.633423,385.384491 
z"/>
<path fill="#F6F6F6" opacity="1.000000" stroke="none" 
	d="
M411.992493,419.011169 
	C411.701019,417.925018 410.866516,416.614502 411.207367,415.789703 
	C413.218750,410.922760 416.500214,406.355469 417.441711,401.329071 
	C418.595215,395.170593 418.063965,388.650665 417.773346,382.309357 
	C417.720337,381.152313 415.331390,380.102264 413.660034,378.993103 
	C412.851013,374.727875 412.402710,370.472290 411.973633,365.448029 
	C412.609192,363.939331 413.211517,363.187134 413.844086,362.461304 
	C417.975525,357.721008 416.330383,347.526123 411.020874,344.997528 
	C410.904419,340.351044 410.787994,335.704559 410.597778,330.606781 
	C414.468506,329.685638 416.187042,332.054047 417.242218,335.354004 
	C421.322754,348.115234 424.816711,360.779846 424.361755,374.589355 
	C424.096893,382.628723 427.363922,390.805206 429.294098,398.859528 
	C429.461304,399.557190 431.497589,400.103912 432.706238,400.197632 
	C435.927155,400.447388 439.748444,398.326508 442.112549,402.997131 
	C437.567841,405.830780 432.682037,408.438843 427.227875,410.830017 
	C422.832214,408.158447 420.020203,409.178741 417.540466,412.848907 
	C416.007996,415.117065 413.862671,416.971161 411.992493,419.011169 
z"/>
<path fill="#DCDFE1" opacity="1.000000" stroke="none" 
	d="
M384.331024,535.601135 
	C381.869354,531.248352 379.414062,527.203857 377.629944,522.882324 
	C376.954437,521.246094 377.826965,518.970703 378.362854,516.841309 
	C387.483459,523.291565 398.102356,524.768005 408.287933,527.350525 
	C417.140472,529.595154 417.182892,529.446106 422.429169,522.105530 
	C423.389191,520.762329 424.303162,519.386230 425.518646,517.822266 
	C429.217957,523.852356 425.514313,528.916565 422.469421,533.555298 
	C419.376221,538.267639 414.601288,541.386536 408.255310,542.036499 
	C400.104004,539.965027 392.354279,537.882080 384.331024,535.601135 
z"/>
<path fill="#D9DCDD" opacity="1.000000" stroke="none" 
	d="
M646.585815,517.963928 
	C649.622925,523.704407 644.804565,527.318848 642.696167,531.718140 
	C642.074707,533.014832 640.970398,534.080139 640.048279,535.595093 
	C632.884949,537.900879 625.760681,539.863098 618.239990,541.898010 
	C610.530457,537.434875 601.910828,534.174377 599.783630,524.422852 
	C599.433472,522.817627 600.339417,520.938416 601.021851,519.022827 
	C609.470276,529.412354 609.543335,529.682800 622.845520,526.089294 
	C630.788757,523.943542 638.459656,520.790100 646.585815,517.963928 
z"/>
<path fill="#DCDFE1" opacity="1.000000" stroke="none" 
	d="
M476.865601,370.577942 
	C471.334106,371.905548 470.666351,366.747864 468.892548,363.994720 
	C462.885559,354.671478 457.352142,345.006775 452.242981,335.158569 
	C450.080872,330.990997 449.352325,326.060913 448.166992,321.427582 
	C448.006256,320.799347 448.984680,319.879700 449.807098,319.021667 
	C454.971680,324.579865 459.047241,330.512360 461.873260,337.538574 
	C464.302521,343.578278 467.806854,349.490601 472.053375,354.407776 
	C476.229523,359.243469 477.972046,364.058502 476.865601,370.577942 
z"/>
<path fill="#D9DCDD" opacity="1.000000" stroke="none" 
	d="
M574.566650,321.111755 
	C577.980774,326.608856 574.822937,331.818329 572.559143,336.292297 
	C566.637085,347.996521 559.728699,359.203308 553.150757,370.572083 
	C552.266663,372.100037 551.021362,373.418976 549.847229,375.219421 
	C547.890930,368.077118 546.972900,361.198090 553.340942,354.532440 
	C558.150391,349.498199 561.646912,342.967987 564.760681,336.628510 
	C567.455933,331.140991 569.700928,325.537811 574.566650,321.111755 
z"/>
<path fill="#F0F3F4" opacity="1.000000" stroke="none" 
	d="
M412.005859,419.435638 
	C413.862671,416.971161 416.007996,415.117065 417.540466,412.848907 
	C420.020203,409.178741 422.832214,408.158447 426.876038,410.909637 
	C422.325287,414.549774 417.557953,417.893372 412.469025,421.396667 
	C412.104675,420.990997 412.061951,420.425537 412.005859,419.435638 
z"/>
<path fill="#E6E8E8" opacity="1.000000" stroke="none" 
	d="
M587.155273,473.559387 
	C583.208435,474.335175 582.750977,471.028473 582.603333,468.726135 
	C582.463318,466.543884 583.940125,464.257904 585.111816,461.956879 
	C586.077393,465.638245 586.637085,469.380280 587.155273,473.559387 
z"/>
<path fill="#E6E8E8" opacity="1.000000" stroke="none" 
	d="
M588.615845,484.653412 
	C588.426941,484.611481 588.279419,484.297882 588.134766,483.715759 
	C588.310791,483.758728 588.484009,484.070251 588.615845,484.653412 
z"/>
<path fill="#E6E8E8" opacity="1.000000" stroke="none" 
	d="
M587.721436,477.730865 
	C587.374084,477.798584 587.279480,477.565186 587.493652,477.161316 
	C587.596313,477.061066 587.768066,477.499908 587.721436,477.730865 
z"/>
<path fill="#D9DCDD" opacity="1.000000" stroke="none" 
	d="
M432.703369,575.309448 
	C435.346130,580.329224 433.814667,586.364197 427.675659,589.328186 
	C420.640106,592.724976 412.915833,596.288696 405.334900,596.668518 
	C381.046997,597.885193 356.678192,598.220825 332.357574,597.833069 
	C310.232574,597.480408 288.120667,595.818176 266.358307,591.267151 
	C261.516754,590.254761 256.698517,589.131104 251.859955,588.104004 
	C246.120834,586.885559 243.277023,582.640320 241.548538,577.655212 
	C241.046951,576.208618 242.278687,574.161072 242.926147,572.071777 
	C283.064667,583.270142 324.072083,585.184753 365.218475,584.644775 
	C383.795868,584.401062 402.371338,582.358826 420.889069,580.536682 
	C424.849457,580.146973 428.556000,577.177429 432.703369,575.309448 
z"/>
<path fill="#DCDFE1" opacity="1.000000" stroke="none" 
	d="
M410.265991,390.123444 
	C413.368652,390.164215 412.549072,391.779724 412.263275,393.788422 
	C410.182190,408.414337 402.823090,420.370575 394.179840,431.941742 
	C388.657867,439.334290 384.772430,447.957977 379.178589,455.285614 
	C373.903534,462.195679 372.933441,470.437958 369.879059,478.018372 
	C369.120056,479.902069 367.279419,481.349915 365.567505,483.013855 
	C368.286743,466.580109 373.558838,450.902466 381.921265,436.353668 
	C388.578247,424.771973 395.280243,413.214203 402.137268,401.750458 
	C404.505280,397.791595 407.400696,394.148224 410.265991,390.123444 
z"/>
<path fill="#D9DCDD" opacity="1.000000" stroke="none" 
	d="
M322.014709,440.632446 
	C315.725128,439.233398 314.010620,433.205933 311.165100,428.737396 
	C306.507446,421.423157 302.856354,413.397644 299.471558,405.380432 
	C298.247375,402.480774 299.009247,398.742584 299.048218,394.994568 
	C302.302429,399.413300 305.425446,404.192200 308.429962,409.044403 
	C311.741241,414.391907 314.381104,420.273560 318.352539,425.060394 
	C322.289520,429.805725 323.204895,434.608582 322.014709,440.632446 
z"/>
<path fill="#EAEDEE" opacity="1.000000" stroke="none" 
	d="
M410.874512,345.375549 
	C416.330383,347.526123 417.975525,357.721008 413.844086,362.461304 
	C413.211517,363.187134 412.609192,363.939331 411.907806,365.060577 
	C409.183624,363.591095 408.191681,361.301941 408.942963,357.953613 
	C409.840240,353.954742 410.158875,349.826019 410.874512,345.375549 
z"/>
<path fill="#D9DCDD" opacity="1.000000" stroke="none" 
	d="
M786.594360,569.971924 
	C788.109802,575.217285 784.591492,582.292542 778.408569,585.131470 
	C773.053040,587.590515 767.349915,589.864136 761.576965,590.730408 
	C746.895447,592.933228 732.128113,594.949768 717.322693,595.849182 
	C696.312988,597.125488 675.230896,598.004272 654.194092,597.769592 
	C639.380798,597.604309 624.560303,595.564209 609.811279,593.792908 
	C605.684753,593.297302 601.521423,591.253296 597.876526,589.078857 
	C593.442566,586.433716 591.809448,582.180176 593.960022,576.662476 
	C602.786865,583.231812 613.579712,581.857727 623.609070,582.718689 
	C665.848511,586.344727 708.062256,585.855896 749.968750,578.872070 
	C762.205688,576.832764 774.148438,573.028809 786.594360,569.971924 
z"/>
<path fill="#DCDFE1" opacity="1.000000" stroke="none" 
	d="
M661.178955,484.518127 
	C657.994019,485.450500 656.220947,484.233307 655.451660,481.004547 
	C654.347961,476.372742 653.347534,471.630920 651.491150,467.282684 
	C648.134277,459.419708 644.617188,451.558777 640.347961,444.170227 
	C636.011841,436.665924 630.173767,430.020966 625.935852,422.470703 
	C621.531006,414.622894 618.044678,406.226959 614.650757,397.870117 
	C613.922363,396.076721 615.313049,393.422791 616.112000,390.999390 
	C624.885071,404.076904 633.561707,417.148560 641.588928,430.607513 
	C651.459106,447.156647 657.744812,465.139557 661.178955,484.518127 
z"/>
<path fill="#D9DCDD" opacity="1.000000" stroke="none" 
	d="
M725.267578,396.999023 
	C725.829285,399.248993 727.088501,402.084869 726.268433,404.055389 
	C722.423706,413.293488 718.044983,422.311462 713.773438,431.368683 
	C712.298035,434.497009 710.717041,437.594574 708.913879,440.540741 
	C708.078125,441.906250 706.594788,442.875458 705.000671,444.045380 
	C702.788330,436.542236 703.051697,429.887665 708.857239,423.473083 
	C713.178406,418.698669 715.618103,412.236633 718.991699,406.583496 
	C720.896667,403.391327 722.995544,400.314850 725.267578,396.999023 
z"/>
<path fill="#F0F3F4" opacity="1.000000" stroke="none" 
	d="
M488.646667,804.375244 
	C497.306122,802.517151 501.820374,804.757263 504.407806,811.847351 
	C507.591431,820.571167 504.969025,830.181580 498.496368,833.511475 
	C493.448730,836.108276 487.366577,834.611084 483.785126,830.043762 
	C478.744080,823.614990 479.769409,808.115173 488.646667,804.375244 
z"/>
<path fill="#F0F3F4" opacity="1.000000" stroke="none" 
	d="
M541.062866,815.181641 
	C538.759949,815.183228 536.946350,815.183228 535.156921,815.183228 
	C534.694031,808.687134 539.079407,803.680054 545.522217,803.073547 
	C552.039246,802.460144 556.765808,806.897583 557.787537,815.180054 
	C552.338196,815.180054 546.945190,815.180054 541.062866,815.181641 
z"/>
</svg>