<svg version="1.1" id="Layer_1" xmlns="http://www.w3.org/2000/svg" xmlns:xlink="http://www.w3.org/1999/xlink" x="0px" y="0px"
	 width="100%" viewBox="0 0 1024 1024" enable-background="new 0 0 1024 1024" xml:space="preserve">
<path fill="#F6F7F7" opacity="1.000000" stroke="none" 
	d="
M0.999993,935.000000 
	C1.000000,653.303955 1.000000,371.607941 1.380544,89.368881 
	C2.164347,88.164116 2.858785,87.531616 2.928601,86.836388 
	C5.096904,65.244591 15.160524,47.374165 29.695786,31.965790 
	C43.239017,17.609035 60.242493,8.855058 79.284401,3.903572 
	C81.304672,3.378238 83.100204,1.988646 85.000000,1.000000 
	C369.696045,1.000000 654.392090,1.000000 939.626099,1.373362 
	C940.819885,2.154191 941.430969,2.803024 942.138000,2.933935 
	C961.535461,6.525562 978.494385,15.061189 992.892334,28.459618 
	C1008.887024,43.343910 1018.852173,61.664215 1023.039673,83.135956 
	C1023.242981,84.178429 1024.326416,85.049248 1025.000000,86.000000 
	C1025.000000,370.029388 1025.000000,654.058777 1024.628174,938.624084 
	C1023.835938,939.980957 1023.158752,940.764343 1023.032654,941.628174 
	C1019.882568,963.218262 1009.195618,981.082886 994.123474,996.045471 
	C980.118530,1009.948608 962.770325,1018.662048 943.368103,1022.995483 
	C942.156616,1023.266052 941.118652,1024.313843 940.000000,1025.000000 
	C655.970642,1025.000000 371.941284,1025.000000 87.376938,1024.630005 
	C86.352501,1023.870605 85.909065,1023.226440 85.366951,1023.128479 
	C62.857597,1019.063049 43.872620,1008.549561 28.352510,991.821838 
	C14.311240,976.688110 5.603633,958.972961 2.932470,938.383911 
	C2.777886,937.192383 1.666235,936.125122 0.999993,935.000000 
M470.946259,777.405579 
	C472.664551,777.418152 474.382843,777.430725 476.611755,777.755493 
	C479.762024,774.286011 479.535889,772.444763 474.880157,770.280945 
	C473.264557,770.243896 471.648926,770.206848 469.828308,769.683716 
	C469.390076,769.420593 468.951813,769.157471 468.328186,768.020264 
	C468.328186,765.381226 468.328186,762.742249 468.328186,759.779114 
	C465.240234,759.779114 462.657379,759.779114 459.851135,759.779114 
	C459.598389,763.374878 459.360931,766.752991 459.133484,769.988770 
	C456.966705,770.291260 455.391510,770.511169 453.860779,770.724915 
	C453.860779,773.012878 453.860779,774.942261 453.860779,776.918152 
	C455.842407,777.336365 457.552765,777.697266 459.581451,778.125366 
	C459.581451,780.212585 459.570679,782.020813 459.583374,783.828918 
	C459.627869,790.159058 459.398895,796.507141 459.802917,802.814575 
	C460.283081,810.311707 469.131866,815.219727 475.760132,811.847717 
	C476.489441,811.476685 476.640228,809.968445 477.455688,808.732117 
	C477.244324,808.117188 477.032959,807.502258 476.481567,806.107117 
	C476.003418,805.727051 475.491455,804.981750 475.052185,805.022339 
	C469.233856,805.560547 468.066986,802.161011 468.216583,797.343079 
	C468.405334,791.265015 468.405396,785.181213 468.972198,779.046448 
	C469.352539,778.565247 469.732880,778.083984 470.946259,777.405579 
M214.119781,325.997284 
	C208.395218,325.968567 207.645432,331.016907 206.478271,334.564423 
	C203.907120,342.379272 202.000412,350.449890 200.372589,358.527008 
	C198.874344,365.961182 197.660767,373.509277 197.121109,381.064270 
	C196.570511,388.772247 197.119446,396.552368 196.957367,404.296112 
	C196.768066,413.339722 196.197449,422.375763 196.036987,431.419403 
	C195.871521,440.745697 195.992508,450.077209 196.001968,459.406433 
	C196.024506,481.651886 195.962601,503.897980 196.121994,526.142456 
	C196.200562,537.106628 196.841171,548.066223 196.962952,559.030823 
	C197.116547,572.859009 196.842163,586.692444 197.044113,600.519348 
	C197.248734,614.529907 201.836380,628.319397 199.138641,642.527893 
	C198.812851,644.243774 200.287720,646.257324 200.724289,648.179138 
	C200.979324,649.301819 200.846893,650.516235 200.858780,651.689697 
	C200.874390,653.228577 200.653275,654.801208 200.895813,656.300842 
	C201.830994,662.083252 206.796585,665.169495 210.021103,669.396057 
	C212.378632,672.486267 214.999069,675.678101 218.195770,677.759644 
	C223.910934,681.481079 230.060562,684.579529 236.197083,687.595520 
	C241.066849,689.989014 246.012878,692.847595 251.232941,693.784973 
	C263.905182,696.060425 276.789124,697.127686 289.523926,699.095032 
	C296.974091,700.245972 304.350830,701.998718 311.660858,703.870178 
	C314.753174,704.661865 317.318604,706.899597 320.537537,703.601318 
	C321.630737,702.481262 324.657135,703.110291 326.793610,703.170837 
	C334.171478,703.379822 341.557129,704.037964 348.917969,703.812500 
	C352.463287,703.703796 355.986969,701.757141 358.384796,706.061707 
	C358.613647,706.472595 359.766541,706.827454 360.173828,706.611389 
	C366.059601,703.489197 373.379425,706.523804 378.990784,702.213562 
	C379.409271,701.892151 380.494385,701.880188 380.908661,702.196716 
	C385.841461,705.965881 391.409424,703.755249 396.716431,704.055420 
	C399.277740,704.200317 401.802887,705.250732 404.352264,705.283569 
	C409.550385,705.350586 414.756775,704.812805 419.954193,704.891968 
	C424.124512,704.955444 428.289429,705.891846 432.451721,705.856201 
	C440.590729,705.786377 448.728485,705.000061 456.862732,705.059875 
	C477.232208,705.209656 497.598389,705.766724 517.967834,705.964233 
	C531.216553,706.092712 544.469604,705.952454 557.718811,705.782532 
	C564.098206,705.700745 570.480469,704.950134 576.847961,705.094910 
	C582.798218,705.230103 588.726074,706.208923 594.675415,706.664917 
	C595.701843,706.743530 596.797607,706.098694 597.841003,705.730591 
	C599.385498,705.185608 600.905273,704.112854 602.446838,704.091736 
	C612.870850,703.949097 623.297791,704.023376 633.723816,704.033264 
	C634.054871,704.033569 634.417236,704.020386 634.712402,704.141602 
	C646.074341,708.809631 657.885559,705.354126 669.446594,705.713135 
	C679.660217,706.030396 689.944519,703.991638 700.202881,703.050537 
	C701.511597,702.930481 703.027222,702.780273 704.142578,703.298767 
	C706.742432,704.507446 708.404968,704.607483 711.076782,702.502502 
	C713.597412,700.516541 717.651855,700.196472 721.110229,699.742920 
	C727.502869,698.904480 733.947754,698.436218 740.381165,697.949402 
	C743.605530,697.705383 747.076111,698.468933 750.042908,697.532898 
	C756.390747,695.529968 762.483276,692.717896 768.680420,690.237366 
	C770.653748,689.447449 772.791687,688.923035 774.570374,687.819519 
	C780.542786,684.113953 785.634033,678.661499 793.489990,678.849731 
	C794.327759,678.869873 795.452637,678.145447 795.994385,677.427063 
	C799.065857,673.354065 802.074463,669.228455 804.955627,665.018860 
	C806.906067,662.169006 808.594543,659.140808 810.430054,656.211060 
	C814.171509,650.239258 815.612854,643.623901 816.841125,636.738953 
	C818.251282,628.834290 821.616516,621.260986 822.836731,613.344055 
	C824.538391,602.303894 825.195312,591.090088 826.009521,579.929443 
	C826.853210,568.363525 827.606140,556.778870 827.905029,545.189697 
	C828.086670,538.148071 827.049377,531.081543 827.072632,524.027832 
	C827.101135,515.403687 827.753967,506.783325 827.949829,498.157104 
	C828.012939,495.376831 827.236816,492.580078 827.270935,489.796143 
	C827.409607,478.501312 827.763245,467.209290 827.937622,455.914703 
	C828.032776,449.751282 827.802979,443.581848 827.948303,437.420471 
	C828.092651,431.298187 828.900391,425.172272 828.732483,419.066803 
	C828.526550,411.583008 827.774170,404.100830 826.962158,396.650208 
	C825.690491,384.982971 824.604004,373.268219 822.616211,361.715179 
	C821.080933,352.792328 817.970093,344.148895 816.203186,335.253418 
	C815.503052,331.728394 814.124634,330.713318 810.817200,330.084381 
	C810.351379,323.619720 810.566956,317.018768 809.305969,310.713104 
	C802.560364,276.981232 774.863220,254.109421 740.470459,253.865387 
	C710.150146,253.650238 679.826172,253.719940 649.505371,253.906204 
	C638.898987,253.971359 630.808044,250.005615 625.219910,240.992340 
	C621.361633,234.769104 617.515076,228.538498 613.673584,222.304794 
	C604.926575,208.110825 591.906921,200.482010 575.561768,200.301025 
	C533.583984,199.836182 491.593811,199.839111 449.616241,200.323227 
	C433.848419,200.505081 421.251190,208.007690 412.580200,221.488342 
	C408.258453,228.207336 404.014557,234.976913 399.644836,241.664413 
	C394.522705,249.503372 387.350708,253.565338 377.844208,253.438690 
	C372.351685,253.365509 366.855133,253.681030 361.359955,253.701904 
	C334.704620,253.803192 308.036926,253.396225 281.397736,254.092529 
	C261.417175,254.614761 244.736847,263.413391 231.783051,278.543243 
	C220.181671,292.093506 214.395584,307.998718 214.119781,325.997284 
M427.525421,754.923462 
	C417.645020,754.934875 420.081482,753.639038 416.722961,762.201965 
	C413.203125,771.176147 409.823029,780.205566 406.430176,789.229065 
	C403.650604,796.621277 400.942047,804.040283 397.937378,812.162842 
	C402.136658,810.975403 406.556030,814.455627 408.728729,808.567688 
	C412.932281,797.176208 413.103729,797.239563 425.114502,797.228210 
	C425.280945,797.228088 425.447479,797.223877 425.613770,797.228455 
	C437.937836,797.566284 435.202576,795.190491 439.360474,806.789734 
	C439.968658,808.486389 440.687347,810.143433 441.354492,811.817749 
	C444.508362,811.817749 447.476135,811.817749 450.624390,811.817749 
	C450.438110,810.967102 450.375397,810.303955 450.149109,809.702332 
	C443.655640,792.438293 437.165649,775.172791 430.592651,757.938965 
	C430.165649,756.819397 429.080078,755.950989 427.525421,754.923462 
M624.469543,812.132690 
	C627.359497,810.502380 630.249390,808.872070 633.431763,807.076782 
	C633.633057,808.747742 633.805176,810.176147 633.975281,811.588196 
	C636.792358,811.588196 639.365784,811.588196 642.104126,811.588196 
	C642.104126,792.360962 642.104126,773.439026 642.104126,754.573425 
	C639.233154,754.573425 636.674011,754.573425 633.765503,754.573425 
	C633.765503,758.455383 633.765503,761.939148 633.765503,765.422913 
	C633.765503,768.931396 633.765503,772.439880 633.765503,775.948425 
	C627.634705,769.743347 621.150024,768.308411 613.919373,770.996094 
	C605.990967,773.942932 603.536316,780.762512 602.826721,788.451294 
	C602.629028,790.593384 602.712402,792.781311 602.870667,794.933167 
	C603.751709,806.913574 611.728333,813.542542 624.469543,812.132690 
M292.204987,793.499207 
	C292.204987,799.581238 292.204987,805.663330 292.204987,811.662598 
	C295.668518,811.662598 298.262451,811.662598 300.790039,811.662598 
	C302.433929,805.359253 297.971100,797.374146 306.792877,793.429077 
	C309.965759,798.044678 313.040619,802.576477 316.176941,807.065308 
	C320.054321,812.614685 321.898651,813.182983 329.156555,811.048706 
	C323.607391,802.950562 318.107147,794.923706 311.758453,785.658630 
	C317.053619,780.324768 322.206940,775.133728 326.987122,770.318542 
	C321.483215,768.884338 316.942780,771.347412 312.962952,776.122864 
	C309.718048,780.016541 305.847717,783.389038 301.154633,788.095886 
	C301.154633,775.810486 301.154633,765.011658 301.154633,754.264709 
	C297.864227,754.264709 295.294708,754.264709 292.208008,754.264709 
	C292.208008,767.230042 292.208008,779.864746 292.204987,793.499207 
M666.988281,812.482422 
	C670.534851,810.935791 674.081360,809.389221 677.833313,807.753052 
	C677.960571,808.725098 678.142334,810.112976 678.331360,811.556763 
	C681.125366,811.556763 683.699768,811.556763 686.555420,811.556763 
	C686.555420,802.135986 686.783875,793.010681 686.485046,783.902710 
	C686.234192,776.256653 682.360474,771.776550 675.651672,770.309937 
	C666.399719,768.287354 657.353149,771.377869 654.037659,777.757629 
	C653.458740,778.871643 653.155518,780.128967 652.712219,781.355408 
	C658.697388,782.875366 658.697449,782.875427 662.552185,779.496155 
	C665.742188,776.699890 671.680847,775.769409 674.604553,778.313782 
	C676.250793,779.746460 677.090942,782.382507 677.586853,784.632385 
	C677.689209,785.096802 674.741028,786.651428 673.051514,787.010681 
	C668.834229,787.907471 664.425049,788.015930 660.288818,789.153381 
	C653.697205,790.965942 650.387146,796.002197 651.046997,802.141296 
	C651.778259,808.945190 656.952209,812.517090 666.988281,812.482422 
M257.833374,788.248291 
	C247.868744,791.076538 243.875961,796.732788 246.334946,804.537354 
	C248.453751,811.262207 257.038849,814.647095 265.193756,811.678467 
	C267.720978,810.758423 269.933655,808.974365 272.694153,807.348022 
	C272.983765,808.998535 273.219147,810.340027 273.449005,811.650146 
	C276.156677,811.650146 278.582916,811.650146 281.383209,811.650146 
	C281.383209,802.443054 281.489746,793.491150 281.351562,784.542969 
	C281.227234,776.491333 277.509979,771.981689 270.044159,770.327759 
	C260.995667,768.323364 252.131775,771.390808 248.969055,777.714722 
	C248.364502,778.923523 248.143097,780.323914 247.709335,781.753235 
	C251.867905,782.142761 255.152176,783.186096 258.000854,779.242859 
	C260.309509,776.047180 267.277893,775.855652 269.904755,778.510742 
	C271.442902,780.065491 272.039581,782.748657 272.453278,785.033997 
	C272.526123,785.436340 269.663025,786.705505 268.049896,787.005981 
	C264.955597,787.582458 261.785339,787.751343 257.833374,788.248291 
M802.381348,769.984558 
	C790.935852,772.668823 785.297852,781.226807 786.304993,794.386963 
	C787.128845,805.152344 793.865173,812.004272 804.368835,812.760742 
	C814.316711,813.477234 821.959229,808.627686 823.761108,800.180969 
	C819.975281,799.721375 816.751648,799.244690 813.567078,802.819031 
	C810.161743,806.641052 805.267517,806.615356 800.677124,804.303650 
	C796.579712,802.240173 794.724915,798.903137 795.260193,793.917236 
	C800.287964,793.917236 805.091736,793.917236 809.895508,793.917236 
	C814.796204,793.917236 819.696960,793.917236 824.416382,793.917236 
	C826.230347,780.887817 818.806396,768.011536 802.381348,769.984558 
M332.638275,788.966980 
	C332.677948,790.962952 332.599518,792.969360 332.776031,794.953186 
	C334.137482,810.252991 351.733948,818.386536 364.170532,809.259216 
	C366.847046,807.294800 368.527405,803.973083 371.424164,800.321716 
	C366.045990,799.787354 362.919495,799.355286 359.895752,802.758667 
	C356.597168,806.471375 351.787720,806.555603 347.388062,804.517761 
	C343.295319,802.622131 341.431549,799.059326 341.392731,793.841736 
	C351.341858,793.841736 361.043976,793.841736 370.640533,793.841736 
	C372.678131,777.518311 362.628326,767.328979 347.916992,770.066650 
	C339.396057,771.652344 334.098877,777.941772 332.638275,788.966980 
M546.690918,804.944763 
	C547.213379,803.633667 547.735840,802.322571 548.369080,800.733459 
	C544.129395,799.831909 541.058472,799.823181 537.972717,802.971130 
	C534.521851,806.491455 529.829712,806.540039 525.428650,804.391113 
	C521.305237,802.377930 519.535095,798.885071 519.763855,793.733154 
	C529.612000,793.733154 539.186279,793.733154 548.679138,793.733154 
	C550.445923,777.084534 539.433838,766.590942 524.774475,770.342651 
	C515.210571,772.790283 510.275269,781.210876 510.956024,793.919617 
	C511.420013,802.581299 515.931274,809.025024 523.275146,811.515747 
	C532.151794,814.526367 540.628357,812.333374 546.690918,804.944763 
M717.133667,769.979126 
	C713.574768,771.403809 710.015869,772.828491 706.297119,774.317200 
	C705.702576,768.068787 701.352417,770.369812 697.678833,770.704590 
	C697.678833,784.570496 697.678833,798.104492 697.678833,811.589722 
	C700.682495,811.589722 703.258911,811.589722 706.179932,811.589722 
	C706.179932,803.617554 705.747864,795.939148 706.380859,788.349548 
	C706.655396,785.057922 708.347839,780.902771 710.824707,779.067017 
	C713.069275,777.403320 717.725830,777.294434 720.436462,778.494141 
	C722.625671,779.463013 724.585144,783.332886 724.757385,786.036255 
	C725.301575,794.576782 724.958191,803.173889 724.958191,811.506592 
	C728.421448,811.506592 730.984070,811.506592 733.706116,811.506592 
	C733.706116,802.444946 733.841980,793.800171 733.672058,785.161377 
	C733.455688,774.165527 728.971130,769.940674 717.133667,769.979126 
M557.844849,789.500488 
	C557.844849,796.918579 557.844849,804.336670 557.844849,811.644897 
	C561.112793,811.644897 563.554382,811.644897 566.471741,811.644897 
	C566.471741,809.765259 566.461304,808.128540 566.473572,806.491943 
	C566.522156,799.994934 566.406738,793.490723 566.682861,787.003174 
	C566.919189,781.450867 569.844177,778.043823 574.362305,777.311035 
	C580.924011,776.246887 585.346924,779.755981 585.544128,786.700256 
	C585.779724,794.994263 585.599670,803.300110 585.599670,811.714111 
	C588.677124,811.714111 591.279053,811.714111 593.922119,811.714111 
	C593.922119,801.490967 594.298462,791.498535 593.796143,781.550476 
	C593.431763,774.333252 588.432312,769.679626 581.206543,770.083008 
	C576.303467,770.356750 571.511230,772.614380 566.479065,774.038635 
	C566.376282,773.617126 566.003174,772.087524 565.662659,770.691528 
	C562.925903,770.691528 560.514587,770.691528 557.842651,770.691528 
	C557.842651,776.854797 557.842651,782.677734 557.844849,789.500488 
M204.735886,763.030457 
	C208.855896,763.030457 212.975906,763.030457 217.671219,763.030457 
	C217.671219,779.511047 217.671219,795.554443 217.671219,811.527832 
	C220.841904,811.527832 223.422943,811.527832 226.479477,811.527832 
	C226.479477,795.307678 226.479477,779.387756 226.479477,762.854309 
	C232.509384,762.854309 238.065994,762.854309 243.713486,762.854309 
	C243.713486,759.985779 243.713486,757.751831 243.713486,755.303101 
	C228.983963,755.303101 214.584366,755.303101 199.260864,755.303101 
	C200.860245,758.310547 196.601089,763.452148 204.735886,763.030457 
M775.474792,807.960876 
	C777.191895,805.117920 778.908936,802.274963 781.008545,798.798645 
	C775.932190,798.026611 772.772095,797.231628 769.961060,801.594543 
	C765.912476,807.878357 755.369324,806.135559 752.384888,798.913025 
	C750.132324,793.461609 750.229187,787.804260 753.171082,782.527405 
	C756.688965,776.217834 766.058228,774.978455 769.882874,780.856995 
	C772.880920,785.465027 776.183838,784.151001 779.985779,783.868530 
	C777.520874,772.057617 765.035339,766.288269 753.679810,771.385681 
	C745.711548,774.962585 742.753967,781.794250 742.320862,789.871338 
	C741.869629,798.286011 743.875366,806.024475 751.969482,810.290466 
	C759.814819,814.425415 767.673462,813.885132 775.474792,807.960876 
M496.761871,795.363525 
	C496.761871,789.477234 496.761871,783.590942 496.761871,777.633362 
	C499.898560,777.466370 502.177643,777.345093 504.633606,777.214355 
	C504.633606,774.910889 504.633606,772.841736 504.633606,770.552002 
	C501.964355,770.368835 499.570923,770.204590 496.954254,770.025024 
	C496.778381,766.428955 496.620209,763.195435 496.461426,759.948730 
	C493.356354,759.948730 490.669983,759.948730 488.232178,759.948730 
	C486.519409,764.239685 491.316589,771.525940 482.135864,770.739624 
	C482.135864,773.137390 482.135864,775.176392 482.135864,777.144348 
	C484.288422,777.384583 486.025452,777.578430 487.611938,777.755432 
	C487.790802,778.521851 487.929626,778.842834 487.931427,779.164612 
	C487.968384,785.809387 488.008026,792.454224 488.010284,799.099060 
	C488.014252,810.692749 493.603699,814.720459 505.045441,811.250061 
	C505.045441,810.300171 505.127869,809.310120 505.023712,808.340088 
	C504.905212,807.236145 504.620026,806.150085 504.422394,805.133728 
	C497.272034,804.530090 496.837830,804.012451 496.761871,795.363525 
z"/>
<path fill="#FEFFFF" opacity="1.000000" stroke="none" 
	d="
M0.999993,935.468628 
	C1.666235,936.125122 2.777886,937.192383 2.932470,938.383911 
	C5.603633,958.972961 14.311240,976.688110 28.352510,991.821838 
	C43.872620,1008.549561 62.857597,1019.063049 85.366951,1023.128479 
	C85.909065,1023.226440 86.352501,1023.870605 86.920982,1024.630005 
	C58.404762,1025.000000 29.809528,1025.000000 1.000000,1025.000000 
	C1.000000,995.312805 1.000000,965.625061 0.999993,935.468628 
z"/>
<path fill="#FEFFFF" opacity="1.000000" stroke="none" 
	d="
M940.468628,1025.000000 
	C941.118652,1024.313843 942.156616,1023.266052 943.368103,1022.995483 
	C962.770325,1018.662048 980.118530,1009.948608 994.123474,996.045471 
	C1009.195618,981.082886 1019.882568,963.218262 1023.032654,941.628174 
	C1023.158752,940.764343 1023.835938,939.980957 1024.628174,939.080017 
	C1025.000000,967.593140 1025.000000,996.186279 1025.000000,1025.000000 
	C996.979492,1025.000000 968.958374,1025.000000 940.468628,1025.000000 
z"/>
<path fill="#FEFFFF" opacity="1.000000" stroke="none" 
	d="
M84.531342,1.000000 
	C83.100204,1.988646 81.304672,3.378238 79.284401,3.903572 
	C60.242493,8.855058 43.239017,17.609035 29.695786,31.965790 
	C15.160524,47.374165 5.096904,65.244591 2.928601,86.836388 
	C2.858785,87.531616 2.164347,88.164116 1.380544,88.912933 
	C1.000000,59.741467 1.000000,30.482929 1.000000,1.000000 
	C28.687157,1.000000 56.374920,1.000000 84.531342,1.000000 
z"/>
<path fill="#FEFFFF" opacity="1.000000" stroke="none" 
	d="
M1025.000000,85.531342 
	C1024.326416,85.049248 1023.242981,84.178429 1023.039673,83.135956 
	C1018.852173,61.664215 1008.887024,43.343910 992.892334,28.459618 
	C978.494385,15.061189 961.535461,6.525562 942.138000,2.933935 
	C941.430969,2.803024 940.819885,2.154191 940.082031,1.373362 
	C968.260193,1.000000 996.520447,1.000000 1025.000000,1.000000 
	C1025.000000,29.020514 1025.000000,57.041599 1025.000000,85.531342 
z"/>
<path fill="#2B88C8" opacity="1.000000" stroke="none" 
	d="
M214.873810,325.994781 
	C214.395584,307.998718 220.181671,292.093506 231.783051,278.543243 
	C244.736847,263.413391 261.417175,254.614761 281.397736,254.092529 
	C308.036926,253.396225 334.704620,253.803192 361.359955,253.701904 
	C366.855133,253.681030 372.351685,253.365509 377.844208,253.438690 
	C387.350708,253.565338 394.522705,249.503372 399.644836,241.664413 
	C404.014557,234.976913 408.258453,228.207336 412.580200,221.488342 
	C421.251190,208.007690 433.848419,200.505081 449.616241,200.323227 
	C491.593811,199.839111 533.583984,199.836182 575.561768,200.301025 
	C591.906921,200.482010 604.926575,208.110825 613.673584,222.304794 
	C617.515076,228.538498 621.361633,234.769104 625.219910,240.992340 
	C630.808044,250.005615 638.898987,253.971359 649.505371,253.906204 
	C679.826172,253.719940 710.150146,253.650238 740.470459,253.865387 
	C774.863220,254.109421 802.560364,276.981232 809.305969,310.713104 
	C810.566956,317.018768 810.351379,323.619720 810.810486,331.003418 
	C810.872986,342.281433 810.942200,352.640442 810.917908,363.460510 
	C810.794373,372.241333 810.763245,380.561066 810.734558,388.880798 
	C810.532410,447.586029 810.330688,506.291290 810.048828,565.414490 
	C809.681824,568.555237 809.394958,571.278015 808.923218,574.325684 
	C808.137573,577.090637 807.536743,579.530762 806.705566,582.152710 
	C806.344299,582.890076 806.213379,583.445679 805.944885,584.209961 
	C805.806335,584.740723 805.805359,585.062744 805.516663,585.607544 
	C804.178589,587.886963 803.128174,589.943542 801.885254,592.284058 
	C801.035278,594.015930 800.377808,595.464050 799.472290,597.090576 
	C798.719604,598.148438 798.215027,599.027893 797.443359,600.061279 
	C796.430542,601.426819 795.684875,602.638306 794.625854,603.975281 
	C792.170715,606.322083 790.028992,608.543457 787.584229,610.922485 
	C780.465881,615.523315 773.650635,619.966492 766.436401,624.493164 
	C754.224915,628.716492 742.005249,629.185913 729.617737,629.177856 
	C587.252991,629.085815 444.888153,629.100708 302.523376,629.166504 
	C288.194031,629.173157 273.879700,629.558228 259.818176,624.448120 
	C252.906189,623.298401 248.021454,618.923096 242.385040,615.355835 
	C238.487579,611.635864 234.798203,608.181030 231.089417,604.391846 
	C229.713547,602.372009 228.357071,600.686707 226.847443,598.913818 
	C226.694275,598.826355 226.341843,598.842407 226.289307,598.519958 
	C225.922455,597.420532 225.608139,596.643494 225.202576,595.552429 
	C224.159821,594.118347 223.208313,592.998352 222.216949,591.491821 
	C220.168884,584.713501 218.160690,578.321716 216.156738,571.501587 
	C215.940582,569.384155 215.720169,567.695129 215.583344,565.737122 
	C215.483749,564.961426 215.300598,564.454712 215.162231,563.484070 
	C215.188492,524.778442 215.195175,486.536682 215.142471,448.294952 
	C215.107880,423.195129 214.987488,398.095459 214.998230,372.535065 
	C215.019028,362.714111 214.947128,353.353821 214.964233,343.533264 
	C214.993439,337.380310 214.933624,331.687531 214.873810,325.994781 
M747.557434,324.271484 
	C747.327148,321.814758 747.370728,319.294861 746.820923,316.911865 
	C743.836426,303.974274 730.388245,296.474945 716.934875,300.298492 
	C706.197998,303.349976 696.507874,314.705078 701.023193,329.742767 
	C704.754822,341.199432 715.493530,348.235382 727.013489,346.771576 
	C737.969543,345.379456 746.769409,335.888855 747.557434,324.271484 
M451.489197,575.479431 
	C481.645996,589.404358 513.050720,591.653748 545.194885,584.820435 
	C566.092285,580.377991 585.335815,571.950012 602.748962,558.127869 
	C610.948181,550.416504 619.897339,543.352417 627.212097,534.877625 
	C653.668823,504.225098 664.533936,468.253418 661.969238,427.133362 
	C660.914551,410.713806 657.406433,394.899231 650.212463,379.217377 
	C643.767151,364.925323 636.124084,351.392731 624.985474,339.273010 
	C600.768188,311.807343 570.403564,295.173309 534.291138,290.277191 
	C490.007507,284.273224 450.061157,295.322998 415.661407,324.394806 
	C400.645477,337.085022 388.196747,351.934235 379.281281,370.357178 
	C377.837677,373.534729 376.394073,376.712311 374.553925,380.319855 
	C374.413116,380.873749 374.272308,381.427673 373.908234,382.336426 
	C373.908234,382.336426 373.882751,382.754944 373.389679,383.274719 
	C372.320526,386.527161 371.251373,389.779602 369.808472,393.620270 
	C369.534332,394.735199 369.260162,395.850128 368.673431,397.207947 
	C368.503082,397.422913 368.418549,397.667542 368.058777,398.669037 
	C367.411896,401.784271 366.765015,404.899506 365.891449,408.778717 
	C364.985107,418.856201 364.078766,428.933655 363.019775,439.925873 
	C363.258911,443.613525 363.498047,447.301178 363.515198,451.489899 
	C363.670807,451.996216 363.826385,452.502533 363.876556,453.885803 
	C366.214996,481.113800 375.779236,505.618683 392.008209,527.500549 
	C400.751190,539.288940 410.675690,549.989624 423.284210,558.838684 
	C430.145935,563.038025 437.007660,567.237305 444.348145,571.885498 
	C445.121582,572.292236 445.894989,572.698975 446.575775,573.187561 
	C446.575775,573.187561 446.617188,573.061096 447.287720,573.464111 
	C448.028564,573.684387 448.769440,573.904663 449.901306,574.575256 
	C450.268433,574.707153 450.635529,574.839050 451.489197,575.479431 
z"/>
<path fill="#F3F3F3" opacity="1.000000" stroke="none" 
	d="
M214.496796,325.996033 
	C214.933624,331.687531 214.993439,337.380310 214.596649,343.545227 
	C212.435104,347.365143 210.118698,350.541992 209.127243,354.089111 
	C203.814026,373.098328 204.607483,392.723419 204.110214,412.160217 
	C203.609497,431.732086 203.878784,451.327606 204.028397,470.911133 
	C204.252899,500.295013 204.667114,529.677429 205.001251,559.060486 
	C205.049561,563.308105 204.911880,567.568359 205.194672,571.800476 
	C205.646606,578.563782 205.935791,585.385193 207.090332,592.043884 
	C209.119186,603.745178 211.482880,615.405029 214.207428,626.964111 
	C216.695633,637.520569 221.135483,647.323181 229.080353,654.976440 
	C234.386032,660.087402 239.944199,665.061279 245.970276,669.263428 
	C251.748444,673.292786 257.937744,677.305969 264.555328,679.420410 
	C273.933777,682.416992 283.455139,685.616211 293.690308,685.151428 
	C297.919250,684.959351 302.195679,686.391418 306.474487,686.605713 
	C317.825714,687.174194 329.189178,687.791565 340.549286,687.821228 
	C358.086975,687.867065 375.625702,687.424500 393.164368,687.220642 
	C399.875549,687.142639 406.589050,687.056274 413.299164,687.146118 
	C420.762512,687.246094 428.222473,687.578003 435.685394,687.739990 
	C440.116913,687.836182 444.554199,687.909790 448.983673,687.794067 
	C454.371552,687.653381 459.756622,687.045288 465.138031,687.102295 
	C473.601715,687.191833 482.061829,687.929871 490.522400,687.911011 
	C499.896881,687.890137 509.269562,687.096252 518.644165,687.072083 
	C526.351624,687.052185 534.058899,687.891968 541.769409,687.953247 
	C559.683655,688.095581 577.599854,687.997559 595.515259,687.997437 
	C604.898743,687.997375 614.283447,687.901855 623.665466,688.018188 
	C645.705811,688.291443 667.744629,688.865356 689.784607,688.892395 
	C697.534119,688.901917 705.273438,687.416199 713.037842,687.061462 
	C728.626465,686.349182 744.456482,685.941772 758.841675,679.585205 
	C769.325439,674.952576 780.223511,669.393066 788.249146,661.510254 
	C799.563477,650.397217 808.144775,636.306274 811.942261,620.645752 
	C815.469543,606.099426 817.349487,591.063904 818.778748,576.131165 
	C819.689575,566.615601 818.229675,556.894592 818.245911,547.266418 
	C818.265076,535.884338 819.011230,524.501343 818.944580,513.121643 
	C818.784302,485.746735 818.298706,458.373810 818.017578,430.999329 
	C817.909485,420.475555 818.392273,409.931091 817.892578,399.430023 
	C817.366150,388.366974 816.102295,377.331116 814.821777,366.322845 
	C814.677612,365.084045 812.334656,364.101044 811.011414,362.999451 
	C810.942200,352.640442 810.872986,342.281433 810.894958,331.460938 
	C814.124634,330.713318 815.503052,331.728394 816.203186,335.253418 
	C817.970093,344.148895 821.080933,352.792328 822.616211,361.715179 
	C824.604004,373.268219 825.690491,384.982971 826.962158,396.650208 
	C827.774170,404.100830 828.526550,411.583008 828.732483,419.066803 
	C828.900391,425.172272 828.092651,431.298187 827.948303,437.420471 
	C827.802979,443.581848 828.032776,449.751282 827.937622,455.914703 
	C827.763245,467.209290 827.409607,478.501312 827.270935,489.796143 
	C827.236816,492.580078 828.012939,495.376831 827.949829,498.157104 
	C827.753967,506.783325 827.101135,515.403687 827.072632,524.027832 
	C827.049377,531.081543 828.086670,538.148071 827.905029,545.189697 
	C827.606140,556.778870 826.853210,568.363525 826.009521,579.929443 
	C825.195312,591.090088 824.538391,602.303894 822.836731,613.344055 
	C821.616516,621.260986 818.251282,628.834290 816.841125,636.738953 
	C815.612854,643.623901 814.171509,650.239258 810.430054,656.211060 
	C808.594543,659.140808 806.906067,662.169006 804.955627,665.018860 
	C802.074463,669.228455 799.065857,673.354065 795.994385,677.427063 
	C795.452637,678.145447 794.327759,678.869873 793.489990,678.849731 
	C785.634033,678.661499 780.542786,684.113953 774.570374,687.819519 
	C772.791687,688.923035 770.653748,689.447449 768.680420,690.237366 
	C762.483276,692.717896 756.390747,695.529968 750.042908,697.532898 
	C747.076111,698.468933 743.605530,697.705383 740.381165,697.949402 
	C733.947754,698.436218 727.502869,698.904480 721.110229,699.742920 
	C717.651855,700.196472 713.597412,700.516541 711.076782,702.502502 
	C708.404968,704.607483 706.742432,704.507446 704.142578,703.298767 
	C703.027222,702.780273 701.511597,702.930481 700.202881,703.050537 
	C689.944519,703.991638 679.660217,706.030396 669.446594,705.713135 
	C657.885559,705.354126 646.074341,708.809631 634.712402,704.141602 
	C634.417236,704.020386 634.054871,704.033569 633.723816,704.033264 
	C623.297791,704.023376 612.870850,703.949097 602.446838,704.091736 
	C600.905273,704.112854 599.385498,705.185608 597.841003,705.730591 
	C596.797607,706.098694 595.701843,706.743530 594.675415,706.664917 
	C588.726074,706.208923 582.798218,705.230103 576.847961,705.094910 
	C570.480469,704.950134 564.098206,705.700745 557.718811,705.782532 
	C544.469604,705.952454 531.216553,706.092712 517.967834,705.964233 
	C497.598389,705.766724 477.232208,705.209656 456.862732,705.059875 
	C448.728485,705.000061 440.590729,705.786377 432.451721,705.856201 
	C428.289429,705.891846 424.124512,704.955444 419.954193,704.891968 
	C414.756775,704.812805 409.550385,705.350586 404.352264,705.283569 
	C401.802887,705.250732 399.277740,704.200317 396.716431,704.055420 
	C391.409424,703.755249 385.841461,705.965881 380.908661,702.196716 
	C380.494385,701.880188 379.409271,701.892151 378.990784,702.213562 
	C373.379425,706.523804 366.059601,703.489197 360.173828,706.611389 
	C359.766541,706.827454 358.613647,706.472595 358.384796,706.061707 
	C355.986969,701.757141 352.463287,703.703796 348.917969,703.812500 
	C341.557129,704.037964 334.171478,703.379822 326.793610,703.170837 
	C324.657135,703.110291 321.630737,702.481262 320.537537,703.601318 
	C317.318604,706.899597 314.753174,704.661865 311.660858,703.870178 
	C304.350830,701.998718 296.974091,700.245972 289.523926,699.095032 
	C276.789124,697.127686 263.905182,696.060425 251.232941,693.784973 
	C246.012878,692.847595 241.066849,689.989014 236.197083,687.595520 
	C230.060562,684.579529 223.910934,681.481079 218.195770,677.759644 
	C214.999069,675.678101 212.378632,672.486267 210.021103,669.396057 
	C206.796585,665.169495 201.830994,662.083252 200.895813,656.300842 
	C200.653275,654.801208 200.874390,653.228577 200.858780,651.689697 
	C200.846893,650.516235 200.979324,649.301819 200.724289,648.179138 
	C200.287720,646.257324 198.812851,644.243774 199.138641,642.527893 
	C201.836380,628.319397 197.248734,614.529907 197.044113,600.519348 
	C196.842163,586.692444 197.116547,572.859009 196.962952,559.030823 
	C196.841171,548.066223 196.200562,537.106628 196.121994,526.142456 
	C195.962601,503.897980 196.024506,481.651886 196.001968,459.406433 
	C195.992508,450.077209 195.871521,440.745697 196.036987,431.419403 
	C196.197449,422.375763 196.768066,413.339722 196.957367,404.296112 
	C197.119446,396.552368 196.570511,388.772247 197.121109,381.064270 
	C197.660767,373.509277 198.874344,365.961182 200.372589,358.527008 
	C202.000412,350.449890 203.907120,342.379272 206.478271,334.564423 
	C207.645432,331.016907 208.395218,325.968567 214.496796,325.996033 
z"/>
<path fill="#42494F" opacity="1.000000" stroke="none" 
	d="
M427.913147,754.944580 
	C429.080078,755.950989 430.165649,756.819397 430.592651,757.938965 
	C437.165649,775.172791 443.655640,792.438293 450.149109,809.702332 
	C450.375397,810.303955 450.438110,810.967102 450.624390,811.817749 
	C447.476135,811.817749 444.508362,811.817749 441.354492,811.817749 
	C440.687347,810.143433 439.968658,808.486389 439.360474,806.789734 
	C435.202576,795.190491 437.937836,797.566284 425.613770,797.228455 
	C425.447479,797.223877 425.280945,797.228088 425.114502,797.228210 
	C413.103729,797.239563 412.932281,797.176208 408.728729,808.567688 
	C406.556030,814.455627 402.136658,810.975403 397.937378,812.162842 
	C400.942047,804.040283 403.650604,796.621277 406.430176,789.229065 
	C409.823029,780.205566 413.203125,771.176147 416.722961,762.201965 
	C420.081482,753.639038 417.645020,754.934875 427.913147,754.944580 
M432.537811,787.174805 
	C429.939056,779.961487 427.340332,772.748169 424.283966,764.264648 
	C421.144104,773.493652 418.439911,781.442139 415.540924,789.963196 
	C421.122711,789.963196 425.749451,790.059631 430.364899,789.873718 
	C431.187958,789.840576 431.963898,788.636780 432.537811,787.174805 
z"/>
<path fill="#42494F" opacity="1.000000" stroke="none" 
	d="
M624.077148,812.216064 
	C611.728333,813.542542 603.751709,806.913574 602.870667,794.933167 
	C602.712402,792.781311 602.629028,790.593384 602.826721,788.451294 
	C603.536316,780.762512 605.990967,773.942932 613.919373,770.996094 
	C621.150024,768.308411 627.634705,769.743347 633.765503,775.948425 
	C633.765503,772.439880 633.765503,768.931396 633.765503,765.422913 
	C633.765503,761.939148 633.765503,758.455383 633.765503,754.573425 
	C636.674011,754.573425 639.233154,754.573425 642.104126,754.573425 
	C642.104126,773.439026 642.104126,792.360962 642.104126,811.588196 
	C639.365784,811.588196 636.792358,811.588196 633.975281,811.588196 
	C633.805176,810.176147 633.633057,808.747742 633.431763,807.076782 
	C630.249390,808.872070 627.359497,810.502380 624.077148,812.216064 
M613.444702,799.795349 
	C616.231140,804.279907 620.266174,805.952026 625.364136,804.844604 
	C630.512878,803.726013 632.852234,799.711975 633.301270,795.123657 
	C633.674194,791.313843 633.067444,787.202637 631.958008,783.506104 
	C630.624512,779.063171 626.821350,777.179138 622.236450,777.271423 
	C617.586914,777.364929 613.714844,779.644958 612.981567,784.091309 
	C612.178162,788.962341 612.972778,794.096924 613.444702,799.795349 
z"/>
<path fill="#42494F" opacity="1.000000" stroke="none" 
	d="
M292.206482,792.999329 
	C292.208008,779.864746 292.208008,767.230042 292.208008,754.264709 
	C295.294708,754.264709 297.864227,754.264709 301.154633,754.264709 
	C301.154633,765.011658 301.154633,775.810486 301.154633,788.095886 
	C305.847717,783.389038 309.718048,780.016541 312.962952,776.122864 
	C316.942780,771.347412 321.483215,768.884338 326.987122,770.318542 
	C322.206940,775.133728 317.053619,780.324768 311.758453,785.658630 
	C318.107147,794.923706 323.607391,802.950562 329.156555,811.048706 
	C321.898651,813.182983 320.054321,812.614685 316.176941,807.065308 
	C313.040619,802.576477 309.965759,798.044678 306.792877,793.429077 
	C297.971100,797.374146 302.433929,805.359253 300.790039,811.662598 
	C298.262451,811.662598 295.668518,811.662598 292.204987,811.662598 
	C292.204987,805.663330 292.204987,799.581238 292.206482,792.999329 
z"/>
<path fill="#454D52" opacity="1.000000" stroke="none" 
	d="
M666.578613,812.531616 
	C656.952209,812.517090 651.778259,808.945190 651.046997,802.141296 
	C650.387146,796.002197 653.697205,790.965942 660.288818,789.153381 
	C664.425049,788.015930 668.834229,787.907471 673.051514,787.010681 
	C674.741028,786.651428 677.689209,785.096802 677.586853,784.632385 
	C677.090942,782.382507 676.250793,779.746460 674.604553,778.313782 
	C671.680847,775.769409 665.742188,776.699890 662.552185,779.496155 
	C658.697449,782.875427 658.697388,782.875366 652.712219,781.355408 
	C653.155518,780.128967 653.458740,778.871643 654.037659,777.757629 
	C657.353149,771.377869 666.399719,768.287354 675.651672,770.309937 
	C682.360474,771.776550 686.234192,776.256653 686.485046,783.902710 
	C686.783875,793.010681 686.555420,802.135986 686.555420,811.556763 
	C683.699768,811.556763 681.125366,811.556763 678.331360,811.556763 
	C678.142334,810.112976 677.960571,808.725098 677.833313,807.753052 
	C674.081360,809.389221 670.534851,810.935791 666.578613,812.531616 
M666.917419,794.048035 
	C665.237610,794.689026 663.334229,795.018982 661.922791,796.033447 
	C658.620483,798.406860 659.153870,803.528687 662.879761,804.920227 
	C666.972290,806.448669 671.078491,806.128784 674.601074,803.245483 
	C677.893616,800.550537 678.516235,797.063049 677.300598,792.869141 
	C673.975525,793.251343 670.865723,793.608826 666.917419,794.048035 
z"/>
<path fill="#42494F" opacity="1.000000" stroke="none" 
	d="
M258.239990,788.168823 
	C261.785339,787.751343 264.955597,787.582458 268.049896,787.005981 
	C269.663025,786.705505 272.526123,785.436340 272.453278,785.033997 
	C272.039581,782.748657 271.442902,780.065491 269.904755,778.510742 
	C267.277893,775.855652 260.309509,776.047180 258.000854,779.242859 
	C255.152176,783.186096 251.867905,782.142761 247.709335,781.753235 
	C248.143097,780.323914 248.364502,778.923523 248.969055,777.714722 
	C252.131775,771.390808 260.995667,768.323364 270.044159,770.327759 
	C277.509979,771.981689 281.227234,776.491333 281.351562,784.542969 
	C281.489746,793.491150 281.383209,802.443054 281.383209,811.650146 
	C278.582916,811.650146 276.156677,811.650146 273.449005,811.650146 
	C273.219147,810.340027 272.983765,808.998535 272.694153,807.348022 
	C269.933655,808.974365 267.720978,810.758423 265.193756,811.678467 
	C257.038849,814.647095 248.453751,811.262207 246.334946,804.537354 
	C243.875961,796.732788 247.868744,791.076538 258.239990,788.168823 
M272.665253,793.761414 
	C268.165649,794.101379 263.534637,793.925842 259.228210,795.023682 
	C257.389984,795.492371 254.938110,798.746460 255.111679,800.503052 
	C255.297882,802.387573 257.966888,804.966797 260.032776,805.554688 
	C267.106110,807.567627 272.578888,802.597900 272.665253,793.761414 
z"/>
<path fill="#454D52" opacity="1.000000" stroke="none" 
	d="
M802.779114,769.931030 
	C818.806396,768.011536 826.230347,780.887817 824.416382,793.917236 
	C819.696960,793.917236 814.796204,793.917236 809.895508,793.917236 
	C805.091736,793.917236 800.287964,793.917236 795.260193,793.917236 
	C794.724915,798.903137 796.579712,802.240173 800.677124,804.303650 
	C805.267517,806.615356 810.161743,806.641052 813.567078,802.819031 
	C816.751648,799.244690 819.975281,799.721375 823.761108,800.180969 
	C821.959229,808.627686 814.316711,813.477234 804.368835,812.760742 
	C793.865173,812.004272 787.128845,805.152344 786.304993,794.386963 
	C785.297852,781.226807 790.935852,772.668823 802.779114,769.931030 
M811.130615,787.561279 
	C812.708374,787.441711 814.286072,787.322083 815.848267,787.203674 
	C815.408020,779.955566 811.853027,776.530518 805.517639,776.746765 
	C799.425964,776.954712 795.557556,780.911804 795.380066,787.564270 
	C800.322144,787.564270 805.266113,787.564270 811.130615,787.561279 
z"/>
<path fill="#42494F" opacity="1.000000" stroke="none" 
	d="
M332.675903,788.542480 
	C334.098877,777.941772 339.396057,771.652344 347.916992,770.066650 
	C362.628326,767.328979 372.678131,777.518311 370.640533,793.841736 
	C361.043976,793.841736 351.341858,793.841736 341.392731,793.841736 
	C341.431549,799.059326 343.295319,802.622131 347.388062,804.517761 
	C351.787720,806.555603 356.597168,806.471375 359.895752,802.758667 
	C362.919495,799.355286 366.045990,799.787354 371.424164,800.321716 
	C368.527405,803.973083 366.847046,807.294800 364.170532,809.259216 
	C351.733948,818.386536 334.137482,810.252991 332.776031,794.953186 
	C332.599518,792.969360 332.677948,790.962952 332.675903,788.542480 
M345.942078,787.611206 
	C351.464722,787.611206 356.987366,787.611206 362.599548,787.611206 
	C361.503357,780.000366 358.281891,776.920898 352.237183,776.838867 
	C346.039215,776.754761 342.645691,779.836914 341.348267,787.103760 
	C342.595490,787.274658 343.827332,787.443481 345.942078,787.611206 
z"/>
<path fill="#42494F" opacity="1.000000" stroke="none" 
	d="
M546.477295,805.256592 
	C540.628357,812.333374 532.151794,814.526367 523.275146,811.515747 
	C515.931274,809.025024 511.420013,802.581299 510.956024,793.919617 
	C510.275269,781.210876 515.210571,772.790283 524.774475,770.342651 
	C539.433838,766.590942 550.445923,777.084534 548.679138,793.733154 
	C539.186279,793.733154 529.612000,793.733154 519.763855,793.733154 
	C519.535095,798.885071 521.305237,802.377930 525.428650,804.391113 
	C529.829712,806.540039 534.521851,806.491455 537.972717,802.971130 
	C541.058472,799.823181 544.129395,799.831909 548.369080,800.733459 
	C547.735840,802.322571 547.213379,803.633667 546.477295,805.256592 
M535.192444,777.873779 
	C526.093140,775.273438 519.877747,779.060364 519.923767,787.342529 
	C526.629517,787.342529 533.333740,787.342529 540.156494,787.342529 
	C540.882446,783.062378 538.555115,780.580017 535.192444,777.873779 
z"/>
<path fill="#454D52" opacity="1.000000" stroke="none" 
	d="
M717.524780,769.946899 
	C728.971130,769.940674 733.455688,774.165527 733.672058,785.161377 
	C733.841980,793.800171 733.706116,802.444946 733.706116,811.506592 
	C730.984070,811.506592 728.421448,811.506592 724.958191,811.506592 
	C724.958191,803.173889 725.301575,794.576782 724.757385,786.036255 
	C724.585144,783.332886 722.625671,779.463013 720.436462,778.494141 
	C717.725830,777.294434 713.069275,777.403320 710.824707,779.067017 
	C708.347839,780.902771 706.655396,785.057922 706.380859,788.349548 
	C705.747864,795.939148 706.179932,803.617554 706.179932,811.589722 
	C703.258911,811.589722 700.682495,811.589722 697.678833,811.589722 
	C697.678833,798.104492 697.678833,784.570496 697.678833,770.704590 
	C701.352417,770.369812 705.702576,768.068787 706.297119,774.317200 
	C710.015869,772.828491 713.574768,771.403809 717.524780,769.946899 
z"/>
<path fill="#42494F" opacity="1.000000" stroke="none" 
	d="
M557.843750,789.000610 
	C557.842651,782.677734 557.842651,776.854797 557.842651,770.691528 
	C560.514587,770.691528 562.925903,770.691528 565.662659,770.691528 
	C566.003174,772.087524 566.376282,773.617126 566.479065,774.038635 
	C571.511230,772.614380 576.303467,770.356750 581.206543,770.083008 
	C588.432312,769.679626 593.431763,774.333252 593.796143,781.550476 
	C594.298462,791.498535 593.922119,801.490967 593.922119,811.714111 
	C591.279053,811.714111 588.677124,811.714111 585.599670,811.714111 
	C585.599670,803.300110 585.779724,794.994263 585.544128,786.700256 
	C585.346924,779.755981 580.924011,776.246887 574.362305,777.311035 
	C569.844177,778.043823 566.919189,781.450867 566.682861,787.003174 
	C566.406738,793.490723 566.522156,799.994934 566.473572,806.491943 
	C566.461304,808.128540 566.471741,809.765259 566.471741,811.644897 
	C563.554382,811.644897 561.112793,811.644897 557.844849,811.644897 
	C557.844849,804.336670 557.844849,796.918579 557.843750,789.000610 
z"/>
<path fill="#42494F" opacity="1.000000" stroke="none" 
	d="
M204.271973,763.028381 
	C196.601089,763.452148 200.860245,758.310547 199.260864,755.303101 
	C214.584366,755.303101 228.983963,755.303101 243.713486,755.303101 
	C243.713486,757.751831 243.713486,759.985779 243.713486,762.854309 
	C238.065994,762.854309 232.509384,762.854309 226.479477,762.854309 
	C226.479477,779.387756 226.479477,795.307678 226.479477,811.527832 
	C223.422943,811.527832 220.841904,811.527832 217.671219,811.527832 
	C217.671219,795.554443 217.671219,779.511047 217.671219,763.030457 
	C212.975906,763.030457 208.855896,763.030457 204.271973,763.028381 
z"/>
<path fill="#454D52" opacity="1.000000" stroke="none" 
	d="
M775.212158,808.209229 
	C767.673462,813.885132 759.814819,814.425415 751.969482,810.290466 
	C743.875366,806.024475 741.869629,798.286011 742.320862,789.871338 
	C742.753967,781.794250 745.711548,774.962585 753.679810,771.385681 
	C765.035339,766.288269 777.520874,772.057617 779.985779,783.868530 
	C776.183838,784.151001 772.880920,785.465027 769.882874,780.856995 
	C766.058228,774.978455 756.688965,776.217834 753.171082,782.527405 
	C750.229187,787.804260 750.132324,793.461609 752.384888,798.913025 
	C755.369324,806.135559 765.912476,807.878357 769.961060,801.594543 
	C772.772095,797.231628 775.932190,798.026611 781.008545,798.798645 
	C778.908936,802.274963 777.191895,805.117920 775.212158,808.209229 
z"/>
<path fill="#454D52" opacity="1.000000" stroke="none" 
	d="
M496.763794,795.842224 
	C496.837830,804.012451 497.272034,804.530090 504.422394,805.133728 
	C504.620026,806.150085 504.905212,807.236145 505.023712,808.340088 
	C505.127869,809.310120 505.045441,810.300171 505.045441,811.250061 
	C493.603699,814.720459 488.014252,810.692749 488.010284,799.099060 
	C488.008026,792.454224 487.968384,785.809387 487.931427,779.164612 
	C487.929626,778.842834 487.790802,778.521851 487.611938,777.755432 
	C486.025452,777.578430 484.288422,777.384583 482.135864,777.144348 
	C482.135864,775.176392 482.135864,773.137390 482.135864,770.739624 
	C491.316589,771.525940 486.519409,764.239685 488.232178,759.948730 
	C490.669983,759.948730 493.356354,759.948730 496.461426,759.948730 
	C496.620209,763.195435 496.778381,766.428955 496.954254,770.025024 
	C499.570923,770.204590 501.964355,770.368835 504.633606,770.552002 
	C504.633606,772.841736 504.633606,774.910889 504.633606,777.214355 
	C502.177643,777.345093 499.898560,777.466370 496.761871,777.633362 
	C496.761871,783.590942 496.761871,789.477234 496.763794,795.842224 
z"/>
<path fill="#42494F" opacity="1.000000" stroke="none" 
	d="
M477.059326,808.987610 
	C476.640228,809.968445 476.489441,811.476685 475.760132,811.847717 
	C469.131866,815.219727 460.283081,810.311707 459.802917,802.814575 
	C459.398895,796.507141 459.627869,790.159058 459.583374,783.828918 
	C459.570679,782.020813 459.581451,780.212585 459.581451,778.125366 
	C457.552765,777.697266 455.842407,777.336365 453.860779,776.918152 
	C453.860779,774.942261 453.860779,773.012878 453.860779,770.724915 
	C455.391510,770.511169 456.966705,770.291260 459.133484,769.988770 
	C459.360931,766.752991 459.598389,763.374878 459.851135,759.779114 
	C462.657379,759.779114 465.240234,759.779114 468.328186,759.779114 
	C468.328186,762.742249 468.328186,765.381226 468.320557,768.684143 
	C468.886414,769.621887 469.459869,769.895813 470.033325,770.169739 
	C471.648926,770.206848 473.264557,770.243896 475.504150,770.555481 
	C476.119141,773.034424 476.110138,775.238892 476.101135,777.443298 
	C474.382843,777.430725 472.664551,777.418152 470.239868,777.381592 
	C469.184570,777.938354 468.835693,778.519104 468.486816,779.099854 
	C468.405396,785.181213 468.405334,791.265015 468.216583,797.343079 
	C468.066986,802.161011 469.233856,805.560547 475.052185,805.022339 
	C475.491455,804.981750 476.003418,805.727051 476.525177,806.753662 
	C476.732300,807.929382 476.895813,808.458496 477.059326,808.987610 
z"/>
<path fill="#D2D4D6" opacity="1.000000" stroke="none" 
	d="
M476.356445,777.599365 
	C476.110138,775.238892 476.119141,773.034424 475.905518,770.511108 
	C479.535889,772.444763 479.762024,774.286011 476.356445,777.599365 
z"/>
<path fill="#D2D4D6" opacity="1.000000" stroke="none" 
	d="
M468.729492,779.073120 
	C468.835693,778.519104 469.184570,777.938354 469.823364,777.480225 
	C469.732880,778.083984 469.352539,778.565247 468.729492,779.073120 
z"/>
<path fill="#D2D4D6" opacity="1.000000" stroke="none" 
	d="
M477.257507,808.859863 
	C476.895813,808.458496 476.732300,807.929382 476.695190,807.143799 
	C477.032959,807.502258 477.244324,808.117188 477.257507,808.859863 
z"/>
<path fill="#D2D4D6" opacity="1.000000" stroke="none" 
	d="
M469.930817,769.926758 
	C469.459869,769.895813 468.886414,769.621887 468.413269,769.121216 
	C468.951813,769.157471 469.390076,769.420593 469.930817,769.926758 
z"/>
<path fill="#EEEFEF" opacity="1.000000" stroke="none" 
	d="
M810.917908,363.460510 
	C812.334656,364.101044 814.677612,365.084045 814.821777,366.322845 
	C816.102295,377.331116 817.366150,388.366974 817.892578,399.430023 
	C818.392273,409.931091 817.909485,420.475555 818.017578,430.999329 
	C818.298706,458.373810 818.784302,485.746735 818.944580,513.121643 
	C819.011230,524.501343 818.265076,535.884338 818.245911,547.266418 
	C818.229675,556.894592 819.689575,566.615601 818.778748,576.131165 
	C817.349487,591.063904 815.469543,606.099426 811.942261,620.645752 
	C808.144775,636.306274 799.563477,650.397217 788.249146,661.510254 
	C780.223511,669.393066 769.325439,674.952576 758.841675,679.585205 
	C744.456482,685.941772 728.626465,686.349182 713.037842,687.061462 
	C705.273438,687.416199 697.534119,688.901917 689.784607,688.892395 
	C667.744629,688.865356 645.705811,688.291443 623.665466,688.018188 
	C614.283447,687.901855 604.898743,687.997375 595.515259,687.997437 
	C577.599854,687.997559 559.683655,688.095581 541.769409,687.953247 
	C534.058899,687.891968 526.351624,687.052185 518.644165,687.072083 
	C509.269562,687.096252 499.896881,687.890137 490.522400,687.911011 
	C482.061829,687.929871 473.601715,687.191833 465.138031,687.102295 
	C459.756622,687.045288 454.371552,687.653381 448.983673,687.794067 
	C444.554199,687.909790 440.116913,687.836182 435.685394,687.739990 
	C428.222473,687.578003 420.762512,687.246094 413.299164,687.146118 
	C406.589050,687.056274 399.875549,687.142639 393.164368,687.220642 
	C375.625702,687.424500 358.086975,687.867065 340.549286,687.821228 
	C329.189178,687.791565 317.825714,687.174194 306.474487,686.605713 
	C302.195679,686.391418 297.919250,684.959351 293.690308,685.151428 
	C283.455139,685.616211 273.933777,682.416992 264.555328,679.420410 
	C257.937744,677.305969 251.748444,673.292786 245.970276,669.263428 
	C239.944199,665.061279 234.386032,660.087402 229.080353,654.976440 
	C221.135483,647.323181 216.695633,637.520569 214.207428,626.964111 
	C211.482880,615.405029 209.119186,603.745178 207.090332,592.043884 
	C205.935791,585.385193 205.646606,578.563782 205.194672,571.800476 
	C204.911880,567.568359 205.049561,563.308105 205.001251,559.060486 
	C204.667114,529.677429 204.252899,500.295013 204.028397,470.911133 
	C203.878784,451.327606 203.609497,431.732086 204.110214,412.160217 
	C204.607483,392.723419 203.814026,373.098328 209.127243,354.089111 
	C210.118698,350.541992 212.435104,347.365143 214.507629,344.005432 
	C214.947128,353.353821 215.019028,362.714111 214.620117,372.548645 
	C213.124908,374.524414 211.530609,375.909760 211.195877,377.551880 
	C210.518387,380.875549 210.374939,384.334015 210.273193,387.744720 
	C209.807526,403.353363 209.284744,418.962891 209.093262,434.575928 
	C209.010071,441.359955 209.891479,448.152039 209.929184,454.942688 
	C209.957626,460.063232 209.053268,465.189026 209.082626,470.309509 
	C209.121109,477.014221 209.865784,483.713409 209.956207,490.419678 
	C210.112732,502.029968 209.999908,513.643860 209.999969,525.256287 
	C210.000046,538.250671 209.752655,551.251404 210.088394,564.237122 
	C210.306122,572.658386 211.225403,581.073242 212.099396,589.462952 
	C213.261703,600.620544 214.775269,611.630066 218.486298,622.417908 
	C224.567032,640.094299 235.149811,654.077209 250.579758,664.190369 
	C263.927612,672.938904 278.627777,677.943848 294.911621,678.104553 
	C306.328766,678.217163 317.729950,679.644287 329.150024,679.858887 
	C338.784546,680.039917 348.437286,679.027588 358.079651,679.069763 
	C372.033417,679.130798 385.984131,679.894653 399.937866,679.954407 
	C433.015320,680.096191 466.093781,680.000000 499.171844,680.000000 
	C527.326294,680.000000 555.480835,680.046875 583.635071,679.955933 
	C588.592285,679.939941 593.561401,678.936890 598.501282,679.101562 
	C611.004150,679.518494 623.487610,680.538574 635.990906,680.912964 
	C641.874084,681.089172 647.787781,680.023010 653.683044,680.072693 
	C664.303345,680.162354 674.928040,681.087402 685.536438,680.888977 
	C697.620728,680.663086 709.714233,679.871277 721.756653,678.797485 
	C731.698730,677.910950 741.771667,677.077881 751.427002,674.737549 
	C764.269836,671.624756 776.336731,666.217285 785.410400,655.996155 
	C788.810120,652.166443 791.738831,647.903198 794.727234,643.726685 
	C803.749817,631.116882 809.608093,617.113098 811.912231,601.814209 
	C813.387146,592.020325 814.154297,582.103638 814.820862,572.213806 
	C815.027588,569.146545 815.100830,565.162842 810.128845,564.996521 
	C810.330688,506.291290 810.532410,447.586029 810.734558,388.880798 
	C810.763245,380.561066 810.794373,372.241333 810.917908,363.460510 
z"/>
<path fill="#D2D4D6" opacity="1.000000" stroke="none" 
	d="
M260.089874,624.688843 
	C273.879700,629.558228 288.194031,629.173157 302.523376,629.166504 
	C444.888153,629.100708 587.252991,629.085815 729.617737,629.177856 
	C742.005249,629.185913 754.224915,628.716492 766.477478,624.947815 
	C766.066284,627.478149 765.827576,630.597473 764.243469,631.608459 
	C760.240295,634.163147 755.802917,636.797241 751.233215,637.556824 
	C739.179504,639.560181 726.987183,641.484802 714.806519,641.809692 
	C690.661743,642.453735 666.487549,642.049500 642.325989,641.955261 
	C637.867188,641.937866 633.406738,641.014954 628.953857,641.069580 
	C616.236633,641.225403 603.521484,641.994263 590.808044,641.939392 
	C552.930420,641.775879 515.053467,641.388977 477.177460,640.973694 
	C461.135834,640.797791 445.098114,640.282104 429.056763,640.046265 
	C426.105042,640.002869 423.140808,640.834351 420.188599,640.794739 
	C409.478363,640.651367 398.771027,640.118896 388.062134,640.106140 
	C380.354553,640.096924 372.643921,640.994690 364.938812,640.936401 
	C347.482056,640.804382 330.027740,640.338623 312.572998,639.980286 
	C311.422241,639.956665 310.279694,639.599487 309.127686,639.559326 
	C304.155487,639.385498 299.174561,639.389282 294.209137,639.109741 
	C286.516418,638.676575 278.627258,638.977783 271.199341,637.297180 
	C262.006927,635.217407 259.905212,631.845337 260.089874,624.688843 
z"/>
<path fill="#EBECEC" opacity="1.000000" stroke="none" 
	d="
M810.048828,565.414490 
	C815.100830,565.162842 815.027588,569.146545 814.820862,572.213806 
	C814.154297,582.103638 813.387146,592.020325 811.912231,601.814209 
	C809.608093,617.113098 803.749817,631.116882 794.727234,643.726685 
	C791.738831,647.903198 788.810120,652.166443 785.410400,655.996155 
	C776.336731,666.217285 764.269836,671.624756 751.427002,674.737549 
	C741.771667,677.077881 731.698730,677.910950 721.756653,678.797485 
	C709.714233,679.871277 697.620728,680.663086 685.536438,680.888977 
	C674.928040,681.087402 664.303345,680.162354 653.683044,680.072693 
	C647.787781,680.023010 641.874084,681.089172 635.990906,680.912964 
	C623.487610,680.538574 611.004150,679.518494 598.501282,679.101562 
	C593.561401,678.936890 588.592285,679.939941 583.635071,679.955933 
	C555.480835,680.046875 527.326294,680.000000 499.171844,680.000000 
	C466.093781,680.000000 433.015320,680.096191 399.937866,679.954407 
	C385.984131,679.894653 372.033417,679.130798 358.079651,679.069763 
	C348.437286,679.027588 338.784546,680.039917 329.150024,679.858887 
	C317.729950,679.644287 306.328766,678.217163 294.911621,678.104553 
	C278.627777,677.943848 263.927612,672.938904 250.579758,664.190369 
	C235.149811,654.077209 224.567032,640.094299 218.486298,622.417908 
	C214.775269,611.630066 213.261703,600.620544 212.099396,589.462952 
	C211.225403,581.073242 210.306122,572.658386 210.088394,564.237122 
	C209.752655,551.251404 210.000046,538.250671 209.999969,525.256287 
	C209.999908,513.643860 210.112732,502.029968 209.956207,490.419678 
	C209.865784,483.713409 209.121109,477.014221 209.082626,470.309509 
	C209.053268,465.189026 209.957626,460.063232 209.929184,454.942688 
	C209.891479,448.152039 209.010071,441.359955 209.093262,434.575928 
	C209.284744,418.962891 209.807526,403.353363 210.273193,387.744720 
	C210.374939,384.334015 210.518387,380.875549 211.195877,377.551880 
	C211.530609,375.909760 213.124908,374.524414 214.527405,373.009277 
	C214.987488,398.095459 215.107880,423.195129 215.142471,448.294952 
	C215.195175,486.536682 215.188492,524.778442 214.934723,563.620483 
	C214.941528,564.815796 215.220642,565.410950 215.499756,566.006042 
	C215.720169,567.695129 215.940582,569.384155 215.850494,571.745483 
	C215.026810,574.654358 213.960724,576.926025 214.099304,579.121582 
	C214.609528,587.204224 214.786667,595.413757 216.423920,603.298401 
	C220.373932,622.320740 228.303131,639.125916 242.975876,652.855530 
	C254.631577,663.762024 268.542419,668.774170 283.306549,671.753357 
	C293.225250,673.754822 303.623932,673.676086 313.822784,673.929626 
	C336.263275,674.487671 358.712982,674.679199 381.159393,674.990051 
	C386.081421,675.058228 391.005219,674.984192 395.928131,675.002258 
	C485.836517,675.332520 575.744873,675.668030 665.653259,675.997070 
	C671.901184,676.019897 678.151672,676.113586 684.396606,675.975098 
	C695.517639,675.728516 706.711304,676.018127 717.733093,674.801331 
	C728.827881,673.576477 740.152161,674.609680 751.024597,670.323792 
	C764.780640,664.901123 777.924988,659.880798 787.716370,647.278503 
	C802.781189,627.888855 810.421448,606.365234 811.846130,582.299438 
	C812.006165,579.596680 810.071350,576.770020 809.108032,574.000793 
	C809.394958,571.278015 809.681824,568.555237 810.048828,565.414490 
z"/>
<path fill="#D8DADB" opacity="1.000000" stroke="none" 
	d="
M379.794830,369.904022 
	C388.196747,351.934235 400.645477,337.085022 415.661407,324.394806 
	C450.061157,295.322998 490.007507,284.273224 534.291138,290.277191 
	C570.403564,295.173309 600.768188,311.807343 624.748413,339.645752 
	C622.692688,340.518250 620.575989,341.880005 619.105774,341.371704 
	C611.903748,338.881683 605.663574,334.766602 600.432495,329.105347 
	C594.742615,322.947510 587.713135,320.283630 579.203064,319.520172 
	C572.168884,318.889069 564.419556,317.280579 558.686462,313.516724 
	C552.488770,309.447815 546.740234,308.750092 540.074585,309.459473 
	C535.327454,309.964600 530.568420,310.664795 525.811157,310.692993 
	C519.289429,310.731720 512.762207,310.258850 506.241669,309.921417 
	C502.730713,309.739746 499.136261,309.791107 495.741943,309.021179 
	C488.489380,307.375946 480.957031,305.879059 475.218292,311.592926 
	C469.826263,316.961609 463.604187,315.731781 457.353271,316.353394 
	C451.038300,316.981354 444.204437,316.946594 439.499115,322.265839 
	C433.212585,329.372620 425.577240,334.859283 416.772095,337.589569 
	C409.803528,339.750397 406.796875,345.390594 402.461731,349.768402 
	C396.647247,355.640015 392.005554,362.658966 386.403015,368.765778 
	C385.207306,370.069061 382.048981,369.571777 379.794830,369.904022 
z"/>
<path fill="#D8DADB" opacity="1.000000" stroke="none" 
	d="
M259.818176,624.448120 
	C259.905212,631.845337 262.006927,635.217407 271.199341,637.297180 
	C278.627258,638.977783 286.516418,638.676575 294.209137,639.109741 
	C299.174561,639.389282 304.155487,639.385498 309.127686,639.559326 
	C310.279694,639.599487 311.422241,639.956665 312.572998,639.980286 
	C330.027740,640.338623 347.482056,640.804382 364.938812,640.936401 
	C372.643921,640.994690 380.354553,640.096924 388.062134,640.106140 
	C398.771027,640.118896 409.478363,640.651367 420.188599,640.794739 
	C423.140808,640.834351 426.105042,640.002869 429.056763,640.046265 
	C445.098114,640.282104 461.135834,640.797791 477.177460,640.973694 
	C515.053467,641.388977 552.930420,641.775879 590.808044,641.939392 
	C603.521484,641.994263 616.236633,641.225403 628.953857,641.069580 
	C633.406738,641.014954 637.867188,641.937866 642.325989,641.955261 
	C666.487549,642.049500 690.661743,642.453735 714.806519,641.809692 
	C726.987183,641.484802 739.179504,639.560181 751.233215,637.556824 
	C755.802917,636.797241 760.240295,634.163147 764.243469,631.608459 
	C765.827576,630.597473 766.066284,627.478149 766.876465,624.864258 
	C773.650635,619.966492 780.465881,615.523315 787.726013,611.256836 
	C787.045410,614.523804 786.614868,618.189209 784.639282,620.575806 
	C781.283447,624.629883 776.665894,627.615845 773.105164,631.529724 
	C768.321594,636.787598 762.469116,640.603210 755.848083,641.972839 
	C741.802734,644.878296 727.603210,647.906189 713.345764,648.695496 
	C696.125549,649.648621 678.780273,648.108582 661.488342,648.073853 
	C647.282043,648.045288 633.075500,648.797302 618.867065,648.893005 
	C611.497253,648.942627 604.124084,648.083679 596.750244,648.043945 
	C574.237244,647.922791 551.723083,648.000000 529.209412,648.000000 
	C512.043335,648.000000 494.877197,648.023987 477.711243,647.978943 
	C474.440155,647.970337 471.171265,647.616577 467.898743,647.549133 
	C462.115234,647.429932 456.326050,647.515808 450.545807,647.321228 
	C441.433014,647.014404 432.322662,646.164246 423.216583,646.233887 
	C408.453308,646.346985 393.696716,647.176697 378.932709,647.399292 
	C369.038055,647.548462 359.135468,647.175354 349.236542,647.026917 
	C345.492889,646.970764 341.747742,646.941345 338.006653,646.806396 
	C332.544647,646.609375 327.087463,646.180359 321.625000,646.112793 
	C309.264709,645.959778 296.891296,646.253296 284.546448,645.770569 
	C279.519379,645.573914 274.528625,643.936462 269.563416,642.774597 
	C259.052795,640.315186 252.637939,631.885681 245.191223,625.199890 
	C243.206146,623.417664 238.473007,620.088989 242.593124,615.621033 
	C248.021454,618.923096 252.906189,623.298401 259.818176,624.448120 
z"/>
<path fill="#E8E9E9" opacity="1.000000" stroke="none" 
	d="
M808.923218,574.325684 
	C810.071350,576.770020 812.006165,579.596680 811.846130,582.299438 
	C810.421448,606.365234 802.781189,627.888855 787.716370,647.278503 
	C777.924988,659.880798 764.780640,664.901123 751.024597,670.323792 
	C740.152161,674.609680 728.827881,673.576477 717.733093,674.801331 
	C706.711304,676.018127 695.517639,675.728516 684.396606,675.975098 
	C678.151672,676.113586 671.901184,676.019897 665.653259,675.997070 
	C575.744873,675.668030 485.836517,675.332520 395.928131,675.002258 
	C391.005219,674.984192 386.081421,675.058228 381.159393,674.990051 
	C358.712982,674.679199 336.263275,674.487671 313.822784,673.929626 
	C303.623932,673.676086 293.225250,673.754822 283.306549,671.753357 
	C268.542419,668.774170 254.631577,663.762024 242.975876,652.855530 
	C228.303131,639.125916 220.373932,622.320740 216.423920,603.298401 
	C214.786667,595.413757 214.609528,587.204224 214.099304,579.121582 
	C213.960724,576.926025 215.026810,574.654358 215.846252,572.173767 
	C218.160690,578.321716 220.168884,584.713501 221.895721,591.705933 
	C219.475800,596.368896 218.172119,600.483215 219.820724,605.144836 
	C221.370010,609.525635 222.335617,614.124023 224.034836,618.438904 
	C232.758591,640.591248 247.395508,656.755127 270.698639,664.073853 
	C281.040710,667.322021 291.577881,669.033813 302.426758,669.015564 
	C330.173279,668.968811 357.920593,668.888428 385.666321,669.044312 
	C400.874023,669.129700 416.077820,669.774475 431.285950,669.966797 
	C444.061249,670.128357 456.840515,669.943054 469.617493,670.009644 
	C529.403076,670.321106 589.188293,670.716919 648.974121,670.948181 
	C658.430359,670.984802 667.887268,670.209717 677.347778,670.062927 
	C680.966309,670.006775 684.600708,670.982422 688.219360,670.927246 
	C697.596741,670.784546 706.966980,670.178467 716.344360,670.035706 
	C730.318359,669.822998 744.060120,668.922241 757.188538,663.202576 
	C765.411804,659.620056 774.289978,657.296814 780.324829,650.101746 
	C788.965820,639.799561 797.505249,629.348877 802.186829,616.491699 
	C805.843018,606.450378 810.866211,596.477661 805.804321,585.384827 
	C805.805359,585.062744 805.806335,584.740723 806.230835,584.171753 
	C806.748230,583.273560 806.842041,582.622192 806.935913,581.970825 
	C807.536743,579.530762 808.137573,577.090637 808.923218,574.325684 
z"/>
<path fill="#EEEFEF" opacity="1.000000" stroke="none" 
	d="
M661.803833,428.014984 
	C664.533936,468.253418 653.668823,504.225098 627.212097,534.877625 
	C619.897339,543.352417 610.948181,550.416504 602.394165,557.833740 
	C602.945312,555.296326 603.568298,552.881531 604.805359,550.838623 
	C610.783936,540.966248 619.207642,532.600403 622.509766,521.068054 
	C624.563171,513.896545 627.304016,506.924744 629.565430,499.809021 
	C631.462952,493.838257 633.277283,487.827423 634.706238,481.735260 
	C634.936707,480.752777 632.962891,479.253326 632.015137,477.618347 
	C632.464844,475.813873 632.907471,474.383911 633.520508,472.785339 
	C633.871521,472.331543 633.936218,472.022095 633.866150,471.284302 
	C635.182983,461.049225 637.163940,451.254395 637.718689,441.379456 
	C638.846252,421.306396 633.673157,402.350830 626.193604,384.038574 
	C628.384644,384.846527 630.224304,385.608978 632.009705,386.482147 
	C634.798157,387.845795 638.681641,388.578033 640.089417,390.833435 
	C643.354919,396.065094 645.559998,401.989166 647.923218,407.744110 
	C649.991211,412.780212 651.583984,418.009857 653.584839,423.075775 
	C655.015564,426.698425 657.729492,428.590271 661.803833,428.014984 
z"/>
<path fill="#E3E3E3" opacity="1.000000" stroke="none" 
	d="
M799.720398,596.912109 
	C800.377808,595.464050 801.035278,594.015930 802.264404,592.343872 
	C806.642151,594.252502 805.471069,597.963684 804.494324,600.517090 
	C800.840881,610.067200 797.527710,619.962097 792.264465,628.619751 
	C787.265259,636.843079 781.183594,645.408203 773.457336,650.763916 
	C757.780334,661.631042 739.213806,665.835815 720.234558,665.869446 
	C676.388916,665.947144 632.542419,665.242859 588.695435,665.058899 
	C576.412598,665.007324 564.128479,665.790466 551.841858,665.957214 
	C539.769653,666.121094 527.691711,666.114746 515.619568,665.947754 
	C504.999481,665.800842 494.385834,665.215393 483.765778,665.033875 
	C474.328949,664.872559 464.887177,665.000000 455.447601,665.000000 
	C429.436798,665.000000 403.425476,665.094177 377.415436,664.954407 
	C366.795166,664.897339 356.179657,664.185608 345.558289,664.038879 
	C333.401367,663.870911 321.236053,663.797668 309.082367,664.057190 
	C297.059387,664.313843 285.222382,663.452759 273.668701,659.955627 
	C264.766022,657.260925 255.839462,654.462402 248.712860,648.146729 
	C236.903534,637.681030 228.618027,624.721252 223.652512,609.841187 
	C222.166153,605.387024 219.383560,599.859863 225.293823,595.866516 
	C225.608139,596.643494 225.922455,597.420532 225.906265,598.611084 
	C225.191086,600.264954 224.152481,601.765015 224.525635,602.704041 
	C227.394424,609.923096 230.083771,617.272339 233.696213,624.123840 
	C239.842422,635.781006 248.755707,645.770752 260.507477,651.143433 
	C270.365173,655.650330 281.807312,658.150208 292.686462,658.676758 
	C319.764069,659.987549 346.920471,659.690674 374.045807,659.985596 
	C382.552094,660.078064 391.060730,659.940430 399.567444,660.010132 
	C437.382416,660.319885 475.196747,660.711792 513.012085,660.949768 
	C518.468140,660.984131 523.930359,660.049866 529.386292,660.085388 
	C537.094543,660.135681 544.801025,660.967834 552.505615,660.929382 
	C563.577026,660.874084 574.645935,660.076843 585.715942,660.076660 
	C596.766663,660.076416 607.816406,660.904541 618.868347,660.954346 
	C648.533997,661.088135 678.200806,660.942505 707.866821,661.028381 
	C719.670715,661.062561 731.404114,661.189697 742.984070,658.052368 
	C753.075806,655.318054 763.736267,653.661255 771.915039,646.807556 
	C778.206177,641.535645 784.044373,635.300903 788.610962,628.504578 
	C793.810974,620.765442 797.561096,612.013489 801.510376,603.501770 
	C802.415283,601.551575 803.641479,598.179688 799.720398,596.912109 
z"/>
<path fill="#E1E1E2" opacity="1.000000" stroke="none" 
	d="
M379.538055,370.130615 
	C382.048981,369.571777 385.207306,370.069061 386.403015,368.765778 
	C392.005554,362.658966 396.647247,355.640015 402.461731,349.768402 
	C406.796875,345.390594 409.803528,339.750397 416.772095,337.589569 
	C425.577240,334.859283 433.212585,329.372620 439.499115,322.265839 
	C444.204437,316.946594 451.038300,316.981354 457.353271,316.353394 
	C463.604187,315.731781 469.826263,316.961609 475.218292,311.592926 
	C480.957031,305.879059 488.489380,307.375946 495.741943,309.021179 
	C499.136261,309.791107 502.730713,309.739746 506.241669,309.921417 
	C512.762207,310.258850 519.289429,310.731720 525.811157,310.692993 
	C530.568420,310.664795 535.327454,309.964600 540.074585,309.459473 
	C546.740234,308.750092 552.488770,309.447815 558.686462,313.516724 
	C564.419556,317.280579 572.168884,318.889069 579.203064,319.520172 
	C587.713135,320.283630 594.742615,322.947510 600.432495,329.105347 
	C605.663574,334.766602 611.903748,338.881683 619.105774,341.371704 
	C620.575989,341.880005 622.692688,340.518250 624.894104,339.955200 
	C636.124084,351.392731 643.767151,364.925323 649.826416,379.601746 
	C644.772095,380.466675 640.838928,378.824860 637.900757,375.325317 
	C633.864807,370.518188 630.104858,365.478668 626.249268,360.521027 
	C622.569641,355.789490 618.729309,351.590820 612.770142,349.233398 
	C604.016907,345.770721 596.435181,340.429321 589.513489,333.735199 
	C584.778015,329.155518 578.387207,325.742889 570.555054,327.189148 
	C518.595154,303.788239 470.849976,309.557434 426.777954,346.026947 
	C420.052460,344.798096 412.227966,349.871521 407.594360,356.433472 
	C403.348145,362.446838 397.719971,367.468292 392.900208,373.097626 
	C388.870758,377.803894 384.704071,382.484589 381.379822,387.677002 
	C377.998413,392.958740 375.879822,399.043549 372.560272,404.373077 
	C371.415314,406.211334 368.321625,406.835815 366.118134,408.014709 
	C366.765015,404.899506 367.411896,401.784271 368.388306,398.180359 
	C368.890106,397.480164 368.979523,397.237946 368.986023,396.965057 
	C369.260162,395.850128 369.534332,394.735199 370.365875,393.310181 
	C377.427246,391.178864 374.574707,386.654846 373.882751,382.754944 
	C373.882751,382.754944 373.908234,382.336426 374.251282,381.971619 
	C374.713043,381.034485 374.831757,380.462158 374.950470,379.889862 
	C376.394073,376.712311 377.837677,373.534729 379.538055,370.130615 
z"/>
<path fill="#E6E7E7" opacity="1.000000" stroke="none" 
	d="
M225.202576,595.552429 
	C219.383560,599.859863 222.166153,605.387024 223.652512,609.841187 
	C228.618027,624.721252 236.903534,637.681030 248.712860,648.146729 
	C255.839462,654.462402 264.766022,657.260925 273.668701,659.955627 
	C285.222382,663.452759 297.059387,664.313843 309.082367,664.057190 
	C321.236053,663.797668 333.401367,663.870911 345.558289,664.038879 
	C356.179657,664.185608 366.795166,664.897339 377.415436,664.954407 
	C403.425476,665.094177 429.436798,665.000000 455.447601,665.000000 
	C464.887177,665.000000 474.328949,664.872559 483.765778,665.033875 
	C494.385834,665.215393 504.999481,665.800842 515.619568,665.947754 
	C527.691711,666.114746 539.769653,666.121094 551.841858,665.957214 
	C564.128479,665.790466 576.412598,665.007324 588.695435,665.058899 
	C632.542419,665.242859 676.388916,665.947144 720.234558,665.869446 
	C739.213806,665.835815 757.780334,661.631042 773.457336,650.763916 
	C781.183594,645.408203 787.265259,636.843079 792.264465,628.619751 
	C797.527710,619.962097 800.840881,610.067200 804.494324,600.517090 
	C805.471069,597.963684 806.642151,594.252502 802.456970,592.060059 
	C803.128174,589.943542 804.178589,587.886963 805.516602,585.607544 
	C810.866211,596.477661 805.843018,606.450378 802.186829,616.491699 
	C797.505249,629.348877 788.965820,639.799561 780.324829,650.101746 
	C774.289978,657.296814 765.411804,659.620056 757.188538,663.202576 
	C744.060120,668.922241 730.318359,669.822998 716.344360,670.035706 
	C706.966980,670.178467 697.596741,670.784546 688.219360,670.927246 
	C684.600708,670.982422 680.966309,670.006775 677.347778,670.062927 
	C667.887268,670.209717 658.430359,670.984802 648.974121,670.948181 
	C589.188293,670.716919 529.403076,670.321106 469.617493,670.009644 
	C456.840515,669.943054 444.061249,670.128357 431.285950,669.966797 
	C416.077820,669.774475 400.874023,669.129700 385.666321,669.044312 
	C357.920593,668.888428 330.173279,668.968811 302.426758,669.015564 
	C291.577881,669.033813 281.040710,667.322021 270.698639,664.073853 
	C247.395508,656.755127 232.758591,640.591248 224.034836,618.438904 
	C222.335617,614.124023 221.370010,609.525635 219.820724,605.144836 
	C218.172119,600.483215 219.475800,596.368896 221.935577,592.092407 
	C223.208313,592.998352 224.159821,594.118347 225.202576,595.552429 
z"/>
<path fill="#EEEFEF" opacity="1.000000" stroke="none" 
	d="
M363.737183,450.988831 
	C363.498047,447.301178 363.258911,443.613525 363.469543,439.464661 
	C368.692627,437.927185 369.570007,434.225769 370.015900,430.131073 
	C370.785614,423.062744 372.874054,416.588379 378.067505,411.330841 
	C380.137482,409.235291 381.938507,406.741364 383.342590,404.147644 
	C386.520172,398.277802 389.453033,392.270477 392.332214,386.245880 
	C394.133148,382.477478 396.957855,380.732941 401.017395,381.339783 
	C393.697144,394.597504 389.511200,408.357208 388.192841,423.189178 
	C386.566986,441.480621 388.134644,459.354309 392.677612,477.059509 
	C391.534637,478.837250 390.120056,480.543488 390.115356,482.253632 
	C390.094238,489.923126 391.193787,497.413483 394.687500,504.426239 
	C397.502014,510.075684 401.007050,515.619019 402.508240,521.633118 
	C405.254517,532.635559 410.335785,541.903748 418.242615,549.936340 
	C420.405304,552.133362 421.401947,555.478271 422.933685,558.296387 
	C410.675690,549.989624 400.751190,539.288940 392.008209,527.500549 
	C375.779236,505.618683 366.214996,481.113800 364.136597,453.318237 
	C364.176819,452.163361 363.957001,451.576111 363.737183,450.988831 
z"/>
<path fill="#E1E1E2" opacity="1.000000" stroke="none" 
	d="
M799.472290,597.090576 
	C803.641479,598.179688 802.415283,601.551575 801.510376,603.501770 
	C797.561096,612.013489 793.810974,620.765442 788.610962,628.504578 
	C784.044373,635.300903 778.206177,641.535645 771.915039,646.807556 
	C763.736267,653.661255 753.075806,655.318054 742.984070,658.052368 
	C731.404114,661.189697 719.670715,661.062561 707.866821,661.028381 
	C678.200806,660.942505 648.533997,661.088135 618.868347,660.954346 
	C607.816406,660.904541 596.766663,660.076416 585.715942,660.076660 
	C574.645935,660.076843 563.577026,660.874084 552.505615,660.929382 
	C544.801025,660.967834 537.094543,660.135681 529.386292,660.085388 
	C523.930359,660.049866 518.468140,660.984131 513.012085,660.949768 
	C475.196747,660.711792 437.382416,660.319885 399.567444,660.010132 
	C391.060730,659.940430 382.552094,660.078064 374.045807,659.985596 
	C346.920471,659.690674 319.764069,659.987549 292.686462,658.676758 
	C281.807312,658.150208 270.365173,655.650330 260.507477,651.143433 
	C248.755707,645.770752 239.842422,635.781006 233.696213,624.123840 
	C230.083771,617.272339 227.394424,609.923096 224.525635,602.704041 
	C224.152481,601.765015 225.191086,600.264954 225.958801,598.933594 
	C226.341843,598.842407 226.694275,598.826355 226.807724,599.271179 
	C226.947693,601.309753 226.522186,603.082031 227.070129,604.469910 
	C233.081009,619.695190 241.730682,633.092224 255.069321,642.953613 
	C258.622223,645.580322 262.472198,648.226013 266.606201,649.567322 
	C279.114594,653.625732 291.988464,655.562012 305.248932,655.079956 
	C316.062958,654.686829 326.902679,654.999756 337.730988,655.000122 
	C348.309052,655.000427 358.887726,654.933899 369.464966,655.027405 
	C375.857697,655.083923 382.249115,655.578308 388.639618,655.548828 
	C411.688080,655.442505 434.735840,655.065979 457.783936,655.061951 
	C468.737732,655.059998 479.690186,655.889526 490.645782,655.963257 
	C551.529480,656.373230 612.413696,656.751038 673.298340,656.942383 
	C689.088074,656.992065 704.908813,656.802795 720.661072,655.837952 
	C731.502808,655.173889 742.405762,653.656921 752.983704,651.226013 
	C759.446777,649.740662 766.231995,646.890991 771.323120,642.749512 
	C783.861938,632.549561 792.896301,619.368408 799.250244,604.441956 
	C800.079224,602.494812 800.875916,600.517395 797.710510,599.907349 
	C798.215027,599.027893 798.719604,598.148438 799.472290,597.090576 
z"/>
<path fill="#E3E3E3" opacity="1.000000" stroke="none" 
	d="
M632.008057,477.992828 
	C632.962891,479.253326 634.936707,480.752777 634.706238,481.735260 
	C633.277283,487.827423 631.462952,493.838257 629.565430,499.809021 
	C627.304016,506.924744 624.563171,513.896545 622.509766,521.068054 
	C619.207642,532.600403 610.783936,540.966248 604.805359,550.838623 
	C603.568298,552.881531 602.945312,555.296326 602.061890,557.955688 
	C585.335815,571.950012 566.092285,580.377991 545.194885,584.820435 
	C513.050720,591.653748 481.645996,589.404358 451.064667,574.986084 
	C450.263550,574.370117 449.886932,574.247498 449.510315,574.125000 
	C448.769440,573.904663 448.028564,573.684387 446.967651,573.281616 
	C446.647614,573.099182 446.668427,573.105713 446.668427,573.105713 
	C445.894989,572.698975 445.121582,572.292236 444.118958,571.274475 
	C443.645844,570.064453 443.540894,569.066040 443.137390,568.925659 
	C435.558319,566.288696 432.278595,559.993530 429.494232,553.214539 
	C429.198090,552.493530 428.341339,552.024170 427.871613,551.349731 
	C421.661224,542.433350 414.746033,533.897522 409.576965,524.411133 
	C406.854309,519.414368 403.173889,513.236084 407.404266,506.923157 
	C409.760529,510.135803 411.835327,513.146790 413.763184,516.493286 
	C414.049622,519.486572 413.648254,522.761475 415.071930,524.687195 
	C419.444427,530.601990 424.529968,535.987976 429.310181,541.603516 
	C431.842896,544.578857 434.226044,547.686157 436.841400,550.585266 
	C439.984467,554.069397 442.842072,558.085388 446.652252,560.629517 
	C452.487122,564.525513 459.080231,567.270752 465.249969,570.687683 
	C467.831024,572.117065 469.933746,574.696289 472.635620,575.563293 
	C478.708893,577.512207 484.990967,578.859497 491.246735,580.172119 
	C494.944397,580.947876 498.755798,581.609314 502.513000,581.593811 
	C513.933960,581.546814 525.477356,582.100830 536.742004,580.639404 
	C550.688721,578.830139 562.783813,571.366821 574.750305,564.391785 
	C580.515259,561.031494 586.260498,557.026306 590.679565,552.112488 
	C597.155090,544.911926 602.446411,536.644043 608.213867,528.810059 
	C611.454041,524.408875 614.946716,520.065186 613.104126,513.656128 
	C619.479492,501.552704 625.743774,489.772766 632.008057,477.992828 
z"/>
<path fill="#DDDEDE" opacity="1.000000" stroke="none" 
	d="
M797.443359,600.061279 
	C800.875916,600.517395 800.079224,602.494812 799.250244,604.441956 
	C792.896301,619.368408 783.861938,632.549561 771.323120,642.749512 
	C766.231995,646.890991 759.446777,649.740662 752.983704,651.226013 
	C742.405762,653.656921 731.502808,655.173889 720.661072,655.837952 
	C704.908813,656.802795 689.088074,656.992065 673.298340,656.942383 
	C612.413696,656.751038 551.529480,656.373230 490.645782,655.963257 
	C479.690186,655.889526 468.737732,655.059998 457.783936,655.061951 
	C434.735840,655.065979 411.688080,655.442505 388.639618,655.548828 
	C382.249115,655.578308 375.857697,655.083923 369.464966,655.027405 
	C358.887726,654.933899 348.309052,655.000427 337.730988,655.000122 
	C326.902679,654.999756 316.062958,654.686829 305.248932,655.079956 
	C291.988464,655.562012 279.114594,653.625732 266.606201,649.567322 
	C262.472198,648.226013 258.622223,645.580322 255.069321,642.953613 
	C241.730682,633.092224 233.081009,619.695190 227.070129,604.469910 
	C226.522186,603.082031 226.947693,601.309753 226.960892,599.358643 
	C228.357071,600.686707 229.713547,602.372009 231.063080,604.794189 
	C233.698242,611.008545 235.903259,616.755371 239.076218,621.905884 
	C245.114899,631.708374 253.422241,640.123047 263.804443,644.334778 
	C273.694855,648.346924 284.907928,650.013794 295.672241,650.737610 
	C311.018951,651.769470 326.487030,650.940186 341.902771,651.010071 
	C410.189484,651.319702 478.476013,651.670776 546.762634,651.994690 
	C555.011658,652.033875 563.261047,652.000000 571.510254,652.000000 
	C584.258606,652.000000 597.006897,651.998413 609.755249,652.000366 
	C630.169006,652.003479 650.583313,651.928406 670.996277,652.058411 
	C677.872131,652.102234 684.746887,652.977539 691.618225,652.928589 
	C703.356018,652.845032 715.108948,652.631165 726.821655,651.916382 
	C738.924438,651.177856 750.812439,649.038513 762.008789,644.006287 
	C771.435852,639.769287 778.085266,632.089844 784.515991,624.596680 
	C789.517944,618.768311 795.410400,612.718689 794.939209,603.849792 
	C795.684875,602.638306 796.430542,601.426819 797.443359,600.061279 
z"/>
<path fill="#D9DADC" opacity="1.000000" stroke="none" 
	d="
M794.625854,603.975281 
	C795.410400,612.718689 789.517944,618.768311 784.515991,624.596680 
	C778.085266,632.089844 771.435852,639.769287 762.008789,644.006287 
	C750.812439,649.038513 738.924438,651.177856 726.821655,651.916382 
	C715.108948,652.631165 703.356018,652.845032 691.618225,652.928589 
	C684.746887,652.977539 677.872131,652.102234 670.996277,652.058411 
	C650.583313,651.928406 630.169006,652.003479 609.755249,652.000366 
	C597.006897,651.998413 584.258606,652.000000 571.510254,652.000000 
	C563.261047,652.000000 555.011658,652.033875 546.762634,651.994690 
	C478.476013,651.670776 410.189484,651.319702 341.902771,651.010071 
	C326.487030,650.940186 311.018951,651.769470 295.672241,650.737610 
	C284.907928,650.013794 273.694855,648.346924 263.804443,644.334778 
	C253.422241,640.123047 245.114899,631.708374 239.076218,621.905884 
	C235.903259,616.755371 233.698242,611.008545 231.082489,605.128662 
	C234.798203,608.181030 238.487579,611.635864 242.385040,615.355835 
	C238.473007,620.088989 243.206146,623.417664 245.191223,625.199890 
	C252.637939,631.885681 259.052795,640.315186 269.563416,642.774597 
	C274.528625,643.936462 279.519379,645.573914 284.546448,645.770569 
	C296.891296,646.253296 309.264709,645.959778 321.625000,646.112793 
	C327.087463,646.180359 332.544647,646.609375 338.006653,646.806396 
	C341.747742,646.941345 345.492889,646.970764 349.236542,647.026917 
	C359.135468,647.175354 369.038055,647.548462 378.932709,647.399292 
	C393.696716,647.176697 408.453308,646.346985 423.216583,646.233887 
	C432.322662,646.164246 441.433014,647.014404 450.545807,647.321228 
	C456.326050,647.515808 462.115234,647.429932 467.898743,647.549133 
	C471.171265,647.616577 474.440155,647.970337 477.711243,647.978943 
	C494.877197,648.023987 512.043335,648.000000 529.209412,648.000000 
	C551.723083,648.000000 574.237244,647.922791 596.750244,648.043945 
	C604.124084,648.083679 611.497253,648.942627 618.867065,648.893005 
	C633.075500,648.797302 647.282043,648.045288 661.488342,648.073853 
	C678.780273,648.108582 696.125549,649.648621 713.345764,648.695496 
	C727.603210,647.906189 741.802734,644.878296 755.848083,641.972839 
	C762.469116,640.603210 768.321594,636.787598 773.105164,631.529724 
	C776.665894,627.615845 781.283447,624.629883 784.639282,620.575806 
	C786.614868,618.189209 787.045410,614.523804 788.029053,611.099121 
	C790.028992,608.543457 792.170715,606.322083 794.625854,603.975281 
z"/>
<path fill="#E8E9E9" opacity="1.000000" stroke="none" 
	d="
M570.921204,327.231537 
	C578.387207,325.742889 584.778015,329.155518 589.513489,333.735199 
	C596.435181,340.429321 604.016907,345.770721 612.770142,349.233398 
	C618.729309,351.590820 622.569641,355.789490 626.249268,360.521027 
	C630.104858,365.478668 633.864807,370.518188 637.900757,375.325317 
	C640.838928,378.824860 644.772095,380.466675 649.888977,379.974365 
	C657.406433,394.899231 660.914551,410.713806 661.886536,427.574158 
	C657.729492,428.590271 655.015564,426.698425 653.584839,423.075775 
	C651.583984,418.009857 649.991211,412.780212 647.923218,407.744110 
	C645.559998,401.989166 643.354919,396.065094 640.089417,390.833435 
	C638.681641,388.578033 634.798157,387.845795 632.009705,386.482147 
	C630.224304,385.608978 628.384644,384.846527 625.929810,383.829834 
	C618.666870,370.230225 610.349670,357.903381 599.103333,348.109344 
	C590.314270,340.455383 580.358521,334.141113 570.921204,327.231537 
z"/>
<path fill="#D8DADB" opacity="1.000000" stroke="none" 
	d="
M701.018982,328.998077 
	C696.507874,314.705078 706.197998,303.349976 716.934875,300.298492 
	C730.388245,296.474945 743.836426,303.974274 746.820923,316.911865 
	C747.370728,319.294861 747.327148,321.814758 746.978455,324.666199 
	C741.900146,326.748077 737.777771,326.001526 733.499695,323.846649 
	C724.817200,319.473145 716.205078,318.863983 707.971252,325.323273 
	C705.941833,326.915344 703.351440,327.792328 701.018982,328.998077 
z"/>
<path fill="#E8E9E9" opacity="1.000000" stroke="none" 
	d="
M401.082275,380.993835 
	C396.957855,380.732941 394.133148,382.477478 392.332214,386.245880 
	C389.453033,392.270477 386.520172,398.277802 383.342590,404.147644 
	C381.938507,406.741364 380.137482,409.235291 378.067505,411.330841 
	C372.874054,416.588379 370.785614,423.062744 370.015900,430.131073 
	C369.570007,434.225769 368.692627,437.927185 363.545868,439.007294 
	C364.078766,428.933655 364.985107,418.856201 366.004791,408.396729 
	C368.321625,406.835815 371.415314,406.211334 372.560272,404.373077 
	C375.879822,399.043549 377.998413,392.958740 381.379822,387.677002 
	C384.704071,382.484589 388.870758,377.803894 392.900208,373.097626 
	C397.719971,367.468292 403.348145,362.446838 407.594360,356.433472 
	C412.227966,349.871521 420.052460,344.798096 426.618469,346.328583 
	C418.257141,358.096527 409.669708,369.545197 401.082275,380.993835 
z"/>
<path fill="#E6E7E7" opacity="1.000000" stroke="none" 
	d="
M701.021118,329.370422 
	C703.351440,327.792328 705.941833,326.915344 707.971252,325.323273 
	C716.205078,318.863983 724.817200,319.473145 733.499695,323.846649 
	C737.777771,326.001526 741.900146,326.748077 746.826782,325.001587 
	C746.769409,335.888855 737.969543,345.379456 727.013489,346.771576 
	C715.493530,348.235382 704.754822,341.199432 701.021118,329.370422 
z"/>
<path fill="#E6E7E7" opacity="1.000000" stroke="none" 
	d="
M407.122833,506.721466 
	C403.173889,513.236084 406.854309,519.414368 409.576965,524.411133 
	C414.746033,533.897522 421.661224,542.433350 427.871613,551.349731 
	C428.341339,552.024170 429.198090,552.493530 429.494232,553.214539 
	C432.278595,559.993530 435.558319,566.288696 443.137390,568.925659 
	C443.540894,569.066040 443.645844,570.064453 443.879578,571.050049 
	C437.007660,567.237305 430.145935,563.038025 423.108948,558.567505 
	C421.401947,555.478271 420.405304,552.133362 418.242615,549.936340 
	C410.335785,541.903748 405.254517,532.635559 402.508240,521.633118 
	C401.007050,515.619019 397.502014,510.075684 394.687500,504.426239 
	C391.193787,497.413483 390.094238,489.923126 390.115356,482.253632 
	C390.120056,480.543488 391.534637,478.837250 392.914154,477.323456 
	C398.059753,487.252289 402.591278,496.986877 407.122833,506.721466 
z"/>
<path fill="#D2D4D6" opacity="1.000000" stroke="none" 
	d="
M373.636230,383.014832 
	C374.574707,386.654846 377.427246,391.178864 370.552734,393.016083 
	C371.251373,389.779602 372.320526,386.527161 373.636230,383.014832 
z"/>
<path fill="#E8E9E9" opacity="1.000000" stroke="none" 
	d="
M363.626190,451.239380 
	C363.957001,451.576111 364.176819,452.163361 364.189270,452.879761 
	C363.826385,452.502533 363.670807,451.996216 363.626190,451.239380 
z"/>
<path fill="#E8E9E9" opacity="1.000000" stroke="none" 
	d="
M215.583344,565.737122 
	C215.220642,565.410950 214.941528,564.815796 214.889923,564.084351 
	C215.300598,564.454712 215.483749,564.961426 215.583344,565.737122 
z"/>
<path fill="#E6E7E7" opacity="1.000000" stroke="none" 
	d="
M806.705566,582.152710 
	C806.842041,582.622192 806.748230,583.273560 806.368408,583.963074 
	C806.213379,583.445679 806.344299,582.890076 806.705566,582.152710 
z"/>
<path fill="#D2D4D6" opacity="1.000000" stroke="none" 
	d="
M374.752197,380.104858 
	C374.831757,380.462158 374.713043,381.034485 374.362915,381.794189 
	C374.272308,381.427673 374.413116,380.873749 374.752197,380.104858 
z"/>
<path fill="#DDDEDE" opacity="1.000000" stroke="none" 
	d="
M449.705811,574.350098 
	C449.886932,574.247498 450.263550,574.370117 450.821381,574.731873 
	C450.635529,574.839050 450.268433,574.707153 449.705811,574.350098 
z"/>
<path fill="#DDDEDE" opacity="1.000000" stroke="none" 
	d="
M446.622101,573.146606 
	C446.668427,573.105713 446.647614,573.099182 446.632385,573.080139 
	C446.617188,573.061096 446.575775,573.187561 446.622101,573.146606 
z"/>
<path fill="#D2D4D6" opacity="1.000000" stroke="none" 
	d="
M368.829712,397.086487 
	C368.979523,397.237946 368.890106,397.480164 368.568787,397.816772 
	C368.418549,397.667542 368.503082,397.422913 368.829712,397.086487 
z"/>
<path fill="#E8E9E9" opacity="1.000000" stroke="none" 
	d="
M432.649719,787.574158 
	C431.963898,788.636780 431.187958,789.840576 430.364899,789.873718 
	C425.749451,790.059631 421.122711,789.963196 415.540924,789.963196 
	C418.439911,781.442139 421.144104,773.493652 424.283966,764.264648 
	C427.340332,772.748169 429.939056,779.961487 432.649719,787.574158 
z"/>
<path fill="#EEEFEF" opacity="1.000000" stroke="none" 
	d="
M613.257874,799.456055 
	C612.972778,794.096924 612.178162,788.962341 612.981567,784.091309 
	C613.714844,779.644958 617.586914,777.364929 622.236450,777.271423 
	C626.821350,777.179138 630.624512,779.063171 631.958008,783.506104 
	C633.067444,787.202637 633.674194,791.313843 633.301270,795.123657 
	C632.852234,799.711975 630.512878,803.726013 625.364136,804.844604 
	C620.266174,805.952026 616.231140,804.279907 613.257874,799.456055 
z"/>
<path fill="#EBECEC" opacity="1.000000" stroke="none" 
	d="
M667.336670,794.007202 
	C670.865723,793.608826 673.975525,793.251343 677.300598,792.869141 
	C678.516235,797.063049 677.893616,800.550537 674.601074,803.245483 
	C671.078491,806.128784 666.972290,806.448669 662.879761,804.920227 
	C659.153870,803.528687 658.620483,798.406860 661.922791,796.033447 
	C663.334229,795.018982 665.237610,794.689026 667.336670,794.007202 
z"/>
<path fill="#EBECEC" opacity="1.000000" stroke="none" 
	d="
M272.731842,794.176147 
	C272.578888,802.597900 267.106110,807.567627 260.032776,805.554688 
	C257.966888,804.966797 255.297882,802.387573 255.111679,800.503052 
	C254.938110,798.746460 257.389984,795.492371 259.228210,795.023682 
	C263.534637,793.925842 268.165649,794.101379 272.731842,794.176147 
z"/>
<path fill="#E6E7E7" opacity="1.000000" stroke="none" 
	d="
M810.670349,787.562744 
	C805.266113,787.564270 800.322144,787.564270 795.380066,787.564270 
	C795.557556,780.911804 799.425964,776.954712 805.517639,776.746765 
	C811.853027,776.530518 815.408020,779.955566 815.848267,787.203674 
	C814.286072,787.322083 812.708374,787.441711 810.670349,787.562744 
z"/>
<path fill="#E8E9E9" opacity="1.000000" stroke="none" 
	d="
M345.500610,787.611755 
	C343.827332,787.443481 342.595490,787.274658 341.348267,787.103760 
	C342.645691,779.836914 346.039215,776.754761 352.237183,776.838867 
	C358.281891,776.920898 361.503357,780.000366 362.599548,787.611206 
	C356.987366,787.611206 351.464722,787.611206 345.500610,787.611755 
z"/>
<path fill="#E6E7E7" opacity="1.000000" stroke="none" 
	d="
M535.528076,778.072266 
	C538.555115,780.580017 540.882446,783.062378 540.156494,787.342529 
	C533.333740,787.342529 526.629517,787.342529 519.923767,787.342529 
	C519.877747,779.060364 526.093140,775.273438 535.528076,778.072266 
z"/>
<path fill="#2B89C8" opacity="1.000000" stroke="none" 
	d="
M407.404266,506.923157 
	C402.591278,496.986877 398.059753,487.252289 393.291687,477.253754 
	C388.134644,459.354309 386.566986,441.480621 388.192841,423.189178 
	C389.511200,408.357208 393.697144,394.597504 401.017395,381.339783 
	C409.669708,369.545197 418.257141,358.096527 427.004028,346.346222 
	C470.849976,309.557434 518.595154,303.788239 570.555054,327.189148 
	C580.358521,334.141113 590.314270,340.455383 599.103333,348.109344 
	C610.349670,357.903381 618.666870,370.230225 625.554077,383.833984 
	C633.673157,402.350830 638.846252,421.306396 637.718689,441.379456 
	C637.163940,451.254395 635.182983,461.049225 633.684082,471.450439 
	C633.307373,472.303192 633.250488,472.614288 633.350098,472.953949 
	C632.907471,474.383911 632.464844,475.813873 632.015137,477.618347 
	C625.743774,489.772766 619.479492,501.552704 612.810425,513.815552 
	C606.824036,520.227356 601.597107,526.544250 595.603516,532.022339 
	C555.640930,568.547668 494.194672,574.117737 448.039673,545.825989 
	C434.964661,537.811340 424.076660,527.437927 413.910126,516.157776 
	C411.835327,513.146790 409.760529,510.135803 407.404266,506.923157 
M582.984070,400.523132 
	C584.443359,392.262512 578.622925,385.687408 570.462280,387.176697 
	C567.314758,387.751099 564.053955,389.947174 561.699036,392.270325 
	C540.972534,412.716827 520.410522,433.330597 499.900055,453.994324 
	C498.190613,455.716522 497.214844,458.166962 495.839722,460.372833 
	C492.897491,457.567535 491.690552,456.440643 490.509735,455.287018 
	C481.823547,446.801208 473.227234,438.221008 464.426056,429.856323 
	C459.647614,425.314850 453.069641,425.986816 448.502991,431.082367 
	C443.912354,436.204681 444.177277,441.672180 449.570160,446.898407 
	C461.804688,459.390167 473.957977,471.963104 486.312836,484.334717 
	C491.423065,489.451843 497.057617,489.090027 502.524475,483.645538 
	C526.484375,459.783752 550.448364,435.925629 574.273865,411.930145 
	C577.470642,408.710632 579.886536,404.715790 582.984070,400.523132 
z"/>
<path fill="#E3E3E3" opacity="1.000000" stroke="none" 
	d="
M633.520508,472.785339 
	C633.250488,472.614288 633.307373,472.303192 633.702759,471.854492 
	C633.936218,472.022095 633.871521,472.331543 633.520508,472.785339 
z"/>
<path fill="#D9DADC" opacity="1.000000" stroke="none" 
	d="
M413.763184,516.493286 
	C424.076660,527.437927 434.964661,537.811340 448.039673,545.825989 
	C494.194672,574.117737 555.640930,568.547668 595.603516,532.022339 
	C601.597107,526.544250 606.824036,520.227356 612.699341,514.139099 
	C614.946716,520.065186 611.454041,524.408875 608.213867,528.810059 
	C602.446411,536.644043 597.155090,544.911926 590.679565,552.112488 
	C586.260498,557.026306 580.515259,561.031494 574.750305,564.391785 
	C562.783813,571.366821 550.688721,578.830139 536.742004,580.639404 
	C525.477356,582.100830 513.933960,581.546814 502.513000,581.593811 
	C498.755798,581.609314 494.944397,580.947876 491.246735,580.172119 
	C484.990967,578.859497 478.708893,577.512207 472.635620,575.563293 
	C469.933746,574.696289 467.831024,572.117065 465.249969,570.687683 
	C459.080231,567.270752 452.487122,564.525513 446.652252,560.629517 
	C442.842072,558.085388 439.984467,554.069397 436.841400,550.585266 
	C434.226044,547.686157 431.842896,544.578857 429.310181,541.603516 
	C424.529968,535.987976 419.444427,530.601990 415.071930,524.687195 
	C413.648254,522.761475 414.049622,519.486572 413.763184,516.493286 
z"/>
<path fill="#E6E7E7" opacity="1.000000" stroke="none" 
	d="
M582.663940,401.079956 
	C579.886536,404.715790 577.470642,408.710632 574.273865,411.930145 
	C550.448364,435.925629 526.484375,459.783752 502.524475,483.645538 
	C497.057617,489.090027 491.423065,489.451843 486.312836,484.334717 
	C473.957977,471.963104 461.804688,459.390167 449.849976,446.520325 
	C451.758972,446.249756 453.437073,446.661804 455.008606,446.409698 
	C460.528931,445.524109 464.570923,447.563263 468.021912,451.823090 
	C469.742645,453.947144 472.192444,455.522339 474.444824,457.164215 
	C477.889618,459.675293 481.344116,462.204529 484.996033,464.389099 
	C487.486359,465.878845 490.969910,468.424438 492.880859,467.663574 
	C498.916748,465.260376 506.451233,462.850555 509.638184,457.978638 
	C514.019287,451.281281 520.224670,446.851379 525.855408,442.487457 
	C532.196899,437.572662 537.659058,432.563995 541.676819,425.796600 
	C546.029480,418.465210 553.574341,415.019470 560.214966,410.484955 
	C567.043518,405.822113 573.672607,400.610687 582.663940,401.079956 
z"/>
<path fill="#DDDEDE" opacity="1.000000" stroke="none" 
	d="
M582.823975,400.801514 
	C573.672607,400.610687 567.043518,405.822113 560.214966,410.484955 
	C553.574341,415.019470 546.029480,418.465210 541.676819,425.796600 
	C537.659058,432.563995 532.196899,437.572662 525.855408,442.487457 
	C520.224670,446.851379 514.019287,451.281281 509.638184,457.978638 
	C506.451233,462.850555 498.916748,465.260376 492.880859,467.663574 
	C490.969910,468.424438 487.486359,465.878845 484.996033,464.389099 
	C481.344116,462.204529 477.889618,459.675293 474.444824,457.164215 
	C472.192444,455.522339 469.742645,453.947144 468.021912,451.823090 
	C464.570923,447.563263 460.528931,445.524109 455.008606,446.409698 
	C453.437073,446.661804 451.758972,446.249756 449.684387,446.206970 
	C444.177277,441.672180 443.912354,436.204681 448.502991,431.082367 
	C453.069641,425.986816 459.647614,425.314850 464.426056,429.856323 
	C473.227234,438.221008 481.823547,446.801208 490.509735,455.287018 
	C491.690552,456.440643 492.897491,457.567535 495.839722,460.372833 
	C497.214844,458.166962 498.190613,455.716522 499.900055,453.994324 
	C520.410522,433.330597 540.972534,412.716827 561.699036,392.270325 
	C564.053955,389.947174 567.314758,387.751099 570.462280,387.176697 
	C578.622925,385.687408 584.443359,392.262512 582.823975,400.801514 
z"/>
</svg>